<svg width="42" height="273" viewBox="0 0 42 273" fill="none" xmlns="http://www.w3.org/2000/svg">
<path d="M31 169H41V209H1V169H11" stroke="#1F242E" stroke-width="2"/>
<path d="M21.7504 195.689C22.857 195.689 23.7337 195.466 24.3804 195.019C25.027 194.572 25.3504 193.859 25.3504 192.879C25.3504 191.906 25.027 191.196 24.3804 190.749C23.7337 190.296 22.857 190.069 21.7504 190.069C20.6504 190.069 19.7804 190.296 19.1404 190.749C18.4937 191.196 18.1704 191.906 18.1704 192.879C18.1704 193.859 18.4937 194.572 19.1404 195.019C19.7804 195.466 20.6504 195.689 21.7504 195.689ZM21.7504 191.769C22.3837 191.769 22.8737 191.846 23.2204 191.999C23.5604 192.146 23.7304 192.439 23.7304 192.879C23.7304 193.326 23.5604 193.626 23.2204 193.779C22.8737 193.932 22.3837 194.009 21.7504 194.009C21.1237 194.009 20.6404 193.932 20.3004 193.779C19.9604 193.626 19.7904 193.326 19.7904 192.879C19.7904 192.439 19.9604 192.146 20.3004 191.999C20.6337 191.846 21.117 191.769 21.7504 191.769ZM24.0004 186.333C22.487 184.213 21.2837 183.153 20.3904 183.153C19.8437 183.153 19.5704 183.39 19.5704 183.863C19.5704 184.13 19.6637 184.327 19.8504 184.453C20.037 184.573 20.327 184.64 20.7204 184.653L20.7204 186.323C19.8604 186.283 19.2137 186.023 18.7804 185.543C18.347 185.063 18.1304 184.457 18.1304 183.723C18.1304 182.957 18.3237 182.38 18.7104 181.993C19.097 181.6 19.6004 181.403 20.2204 181.403C20.907 181.403 21.5804 181.667 22.2404 182.193C22.8937 182.72 23.447 183.35 23.9004 184.083L23.9004 181.293L25.2804 181.293L25.2804 186.333L24.0004 186.333Z" fill="#1F242E"/>
<path d="M18.2904 152.809L25.3604 152.809L25.3604 154.519L18.2904 154.519L18.2904 152.809ZM25.3604 142.348L25.3604 144.058L21.0204 146.918L25.3604 146.918L25.3604 148.628L18.2904 148.628L18.2904 146.918L22.6704 144.058L18.2904 144.058L18.2904 142.348L25.3604 142.348ZM18.2904 133.087L19.6504 133.087L19.6504 135.007L25.3604 135.007L25.3604 136.727L19.6504 136.727L19.6504 138.627L18.2904 138.627L18.2904 133.087ZM25.3604 125.737L22.6904 127.267L22.6904 127.657L25.3604 127.657L25.3604 129.367L18.2904 129.367L18.2904 126.447C18.2904 125.887 18.387 125.413 18.5803 125.027C18.7737 124.64 19.0403 124.35 19.3803 124.157C19.7137 123.963 20.097 123.867 20.5304 123.867C21.0437 123.867 21.4803 124.01 21.8403 124.297C22.2004 124.577 22.447 124.987 22.5804 125.527L25.3604 123.847L25.3604 125.737ZM21.5204 127.657L21.5204 126.597C21.5204 126.257 21.447 126.007 21.3004 125.847C21.147 125.687 20.9237 125.607 20.6304 125.607C20.3503 125.607 20.1303 125.69 19.9703 125.857C19.8104 126.017 19.7304 126.263 19.7304 126.597L19.7304 127.657L21.5204 127.657ZM18.1803 116.649C18.1803 115.982 18.337 115.379 18.6503 114.839C18.957 114.292 19.387 113.862 19.9403 113.549C20.487 113.236 21.107 113.079 21.8003 113.079C22.4937 113.079 23.117 113.239 23.6703 113.559C24.2237 113.872 24.657 114.302 24.9703 114.849C25.277 115.389 25.4303 115.989 25.4303 116.649C25.4303 117.309 25.277 117.912 24.9703 118.459C24.657 118.999 24.2237 119.429 23.6703 119.749C23.117 120.062 22.4937 120.219 21.8003 120.219C21.107 120.219 20.487 120.062 19.9403 119.749C19.387 119.429 18.957 118.999 18.6503 118.459C18.337 117.912 18.1803 117.309 18.1803 116.649ZM19.7703 116.649C19.7703 117.209 19.9537 117.656 20.3203 117.989C20.6803 118.316 21.1737 118.479 21.8003 118.479C22.4203 118.479 22.9137 118.316 23.2803 117.989C23.647 117.656 23.8303 117.209 23.8303 116.649C23.8303 116.096 23.647 115.652 23.2803 115.319C22.9137 114.986 22.4203 114.819 21.8003 114.819C21.1803 114.819 20.687 114.986 20.3203 115.319C19.9537 115.646 19.7703 116.089 19.7703 116.649Z" fill="#212631"/>
<path d="M27.9971 266.438L27.0226 265.464L22.6861 269.8L22.6861 230.562L21.308 230.562L21.308 269.8L16.9716 265.464L15.9971 266.438L21.9971 272.439L27.9971 266.438Z" fill="#1F242E"/>
<rect x="21" width="2" height="100" fill="#1F242E"/>
</svg>
