<svg width="42" height="283" viewBox="0 0 42 283" fill="none" xmlns="http://www.w3.org/2000/svg">
<path d="M31 179H41V219H1V179H11" stroke="#1F242E" stroke-width="2"/>
<path d="M21.7504 205.689C22.857 205.689 23.7337 205.466 24.3804 205.019C25.027 204.572 25.3504 203.859 25.3504 202.879C25.3504 201.906 25.027 201.196 24.3804 200.749C23.7337 200.296 22.857 200.069 21.7504 200.069C20.6504 200.069 19.7804 200.296 19.1404 200.749C18.4937 201.196 18.1704 201.906 18.1704 202.879C18.1704 203.859 18.4937 204.572 19.1404 205.019C19.7804 205.466 20.6504 205.689 21.7504 205.689ZM21.7504 201.769C22.3837 201.769 22.8737 201.846 23.2204 201.999C23.5604 202.146 23.7304 202.439 23.7304 202.879C23.7304 203.326 23.5604 203.626 23.2204 203.779C22.8737 203.932 22.3837 204.009 21.7504 204.009C21.1237 204.009 20.6404 203.932 20.3004 203.779C19.9604 203.626 19.7904 203.326 19.7904 202.879C19.7904 202.439 19.9604 202.146 20.3004 201.999C20.6337 201.846 21.117 201.769 21.7504 201.769ZM24.0604 196.233L22.6304 196.233L18.2004 193.003L18.2004 191.163L22.5704 191.163L22.5704 190.313L24.0604 190.313L24.0604 191.163L25.3604 191.163L25.3604 192.893L24.0604 192.893L24.0604 196.233ZM20.1804 192.753L22.5704 194.493L22.5704 192.753L20.1804 192.753Z" fill="#1F242E"/>
<path d="M18.2904 159.439L19.6504 159.439L19.6504 161.359L25.3604 161.359L25.3604 163.079L19.6504 163.079L19.6504 164.979L18.2904 164.979L18.2904 159.439ZM25.3604 152.088L22.6904 153.618L22.6904 154.008L25.3604 154.008L25.3604 155.718L18.2904 155.718L18.2904 152.798C18.2904 152.238 18.387 151.765 18.5804 151.378C18.7737 150.991 19.0404 150.701 19.3804 150.508C19.7137 150.315 20.097 150.218 20.5304 150.218C21.0437 150.218 21.4804 150.361 21.8404 150.648C22.2004 150.928 22.447 151.338 22.5804 151.878L25.3604 150.198L25.3604 152.088ZM21.5204 154.008L21.5204 152.948C21.5204 152.608 21.447 152.358 21.3004 152.198C21.147 152.038 20.9237 151.958 20.6304 151.958C20.3504 151.958 20.1304 152.041 19.9704 152.208C19.8104 152.368 19.7304 152.615 19.7304 152.948L19.7304 154.008L21.5204 154.008ZM19.6504 144.651L21.1304 144.651L21.1304 142.261L22.4204 142.261L22.4204 144.651L23.9904 144.651L23.9904 141.961L25.3604 141.961L25.3604 146.361L18.2904 146.361L18.2904 141.961L19.6504 141.961L19.6504 144.651ZM25.3604 131.71L25.3604 133.42L21.0204 136.28L25.3604 136.28L25.3604 137.99L18.2904 137.99L18.2904 136.28L22.6703 133.42L18.2904 133.42L18.2903 131.71L25.3604 131.71ZM21.8103 121.169C22.5037 121.169 23.1203 121.319 23.6603 121.619C24.1937 121.912 24.6103 122.339 24.9103 122.899C25.2103 123.452 25.3603 124.105 25.3603 124.859L25.3603 127.529L18.2903 127.529L18.2903 124.859C18.2903 124.099 18.437 123.442 18.7303 122.889C19.0237 122.335 19.437 121.912 19.9703 121.619C20.5037 121.319 21.117 121.169 21.8103 121.169ZM23.8303 125.009C23.8303 124.342 23.6537 123.825 23.3003 123.459C22.947 123.085 22.4503 122.899 21.8103 122.899C21.1703 122.899 20.6737 123.085 20.3203 123.459C19.967 123.825 19.7903 124.342 19.7903 125.009L19.7903 125.819L23.8303 125.819L23.8303 125.009ZM18.2903 115.485L25.3603 115.485L25.3603 117.195L18.2903 117.195L18.2903 115.485ZM25.3603 105.024L25.3603 106.734L21.0203 109.594L25.3603 109.594L25.3603 111.304L18.2903 111.304L18.2903 109.594L22.6703 106.734L18.2903 106.734L18.2903 105.024L25.3603 105.024ZM18.2203 97.5331C18.2203 96.6464 18.437 95.9164 18.8703 95.3431C19.3037 94.7698 19.8903 94.4131 20.6303 94.2731L20.6303 96.0831C20.377 96.2031 20.177 96.3864 20.0303 96.6331C19.877 96.8798 19.8003 97.1764 19.8003 97.5231C19.8003 98.0631 19.9837 98.4964 20.3503 98.8231C20.7103 99.1498 21.2003 99.3131 21.8203 99.3131C22.4937 99.3131 23.0103 99.1431 23.3703 98.8031C23.7303 98.4564 23.9103 97.9664 23.9103 97.3331C23.9103 96.9264 23.8003 96.5698 23.5803 96.2631C23.3537 95.9564 23.0337 95.7398 22.6203 95.6131L22.6203 97.7731L21.3903 97.7731L21.3903 94.1831L23.0803 94.1831C23.4937 94.3164 23.877 94.5298 24.2303 94.8231C24.5837 95.1164 24.8703 95.4931 25.0903 95.9531C25.3103 96.4064 25.4203 96.9264 25.4203 97.5131C25.4203 98.2264 25.2703 98.8498 24.9703 99.3831C24.6637 99.9164 24.237 100.33 23.6903 100.623C23.1437 100.91 22.5203 101.053 21.8203 101.053C21.1203 101.053 20.497 100.91 19.9503 100.623C19.4037 100.33 18.9803 99.9198 18.6803 99.3931C18.3737 98.8598 18.2203 98.2398 18.2203 97.5331Z" fill="#212631"/>
<path d="M27.9971 276.438L27.0226 275.464L22.6861 279.8L22.6861 240.562L21.308 240.562L21.308 279.8L16.9716 275.464L15.9971 276.438L21.9971 282.439L27.9971 276.438Z" fill="#1F242E"/>
<rect x="21" width="2" height="79" fill="#1F242E"/>
</svg>
