<svg width="48" height="48" viewBox="0 0 48 48" fill="none" xmlns="http://www.w3.org/2000/svg">
<path d="M36.1221 30.0207C35.7338 30.0207 35.419 30.3355 35.419 30.7238V41.9933C35.419 42.441 35.0548 42.8052 34.6071 42.8052H13.3934C12.9457 42.8052 12.5815 42.441 12.5815 41.9933L12.5814 17.9388C12.5814 17.5505 12.2666 17.2357 11.8783 17.2357C11.49 17.2357 11.1751 17.5505 11.1751 17.9388V20.5926L6.94233 23.4148C6.74677 23.5452 6.6293 23.7647 6.6293 23.9998V36.9335H1.97461V31.098C1.97461 30.7097 1.6598 30.3948 1.27148 30.3948C0.883172 30.3948 0.568359 30.7097 0.568359 31.098L0.568453 39.7204C0.568453 40.6304 1.3087 41.3706 2.21864 41.3706H6.38555C7.29548 41.3706 8.03573 40.6304 8.03573 39.7204L8.03555 24.3762L11.1752 22.2828V41.9933C11.1752 42.9707 11.811 43.8018 12.6904 44.0966V46.3498C12.6904 47.2597 13.4307 48 14.3406 48H33.66C34.5699 48 35.3101 47.2597 35.3101 46.3498V44.0966C36.1896 43.8018 36.8253 42.9707 36.8253 41.9933V30.7238C36.8252 30.3355 36.5104 30.0207 36.1221 30.0207ZM6.38555 39.9645H2.21864C2.08411 39.9645 1.9747 39.8551 1.9747 39.7205V38.3399H6.62939V39.7205C6.62939 39.8551 6.51998 39.9645 6.38555 39.9645ZM33.66 46.5936H14.3405C14.206 46.5936 14.0966 46.4842 14.0966 46.3497V44.2114H33.9037V46.3498C33.9038 46.4842 33.7944 46.5936 33.66 46.5936Z" fill="#F4AA3E"/>
<path d="M46.7289 33.9403C46.3406 33.9403 46.0258 34.2551 46.0258 34.6434V36.9337H41.3711V23.9999C41.3711 23.7649 41.2537 23.5453 41.0581 23.4149L36.8253 20.5927V17.939C36.8253 17.5507 36.5105 17.2358 36.1222 17.2358C35.7339 17.2358 35.419 17.5507 35.419 17.939L35.4189 27.4318C35.4189 27.8201 35.7338 28.1349 36.1221 28.1349C36.5104 28.1349 36.8252 27.8201 36.8252 27.4318V22.2829L39.9649 24.3762L39.9648 39.7206C39.9648 40.6305 40.705 41.3707 41.615 41.3707H45.7819C46.6918 41.3707 47.4321 40.6305 47.4321 39.7206L47.4322 34.6434C47.4321 34.2551 47.1173 33.9403 46.7289 33.9403ZM45.7818 39.9645H41.6149C41.4804 39.9645 41.3709 39.8551 41.3709 39.7206V38.3399H46.0256V39.7206C46.0257 39.8551 45.9163 39.9645 45.7818 39.9645Z" fill="#F4AA3E"/>
<path d="M46.6197 19.588L37.8295 7.02891C37.0565 5.92631 35.8308 5.23397 34.5004 5.12944L31.7477 1.68666C30.8909 0.614812 29.6122 0 28.2399 0H19.7607C18.3883 0 17.1096 0.614812 16.2527 1.68666L13.5 5.12953C12.1696 5.23397 10.9439 5.92641 10.1707 7.02938L1.38108 19.5877C0.849422 20.346 0.568359 21.2367 0.568359 22.1635V27.8087C0.568359 28.197 0.883172 28.5118 1.27148 28.5118C1.6598 28.5118 1.97461 28.197 1.97461 27.8087V22.1634C1.97461 21.5271 2.16755 20.9154 2.53289 20.3945L11.3226 7.83609C11.8508 7.08244 12.6869 6.60797 13.5952 6.53222L20.668 12.8676L18.9442 21.6147L18.592 21.5351C18.2133 21.4492 17.8367 21.6871 17.7511 22.0659C17.6655 22.4447 17.9032 22.8212 18.282 22.9068L18.6723 22.995L18.501 23.8641C18.426 24.2451 18.6739 24.6148 19.0549 24.6899C19.1009 24.699 19.1466 24.7033 19.1916 24.7033C19.5207 24.7033 19.8147 24.4711 19.8807 24.136L20.0444 23.3053L20.436 23.3938C20.4883 23.4056 20.5404 23.4113 20.5918 23.4113C20.913 23.4113 21.2031 23.1896 21.277 22.863C21.3627 22.4842 21.1249 22.1077 20.7462 22.0222L20.3164 21.925L21.8864 13.9589L23.5313 15.4324C23.6648 15.552 23.8326 15.6118 24.0004 15.6118C24.1682 15.6118 24.336 15.552 24.4695 15.4324L26.1145 13.9589L27.6844 21.925L27.2547 22.0222C26.8759 22.1078 26.6383 22.4842 26.7239 22.863C26.7977 23.1896 27.0877 23.4113 27.4091 23.4113C27.4604 23.4113 27.5126 23.4056 27.5648 23.3938L27.9565 23.3053L28.1202 24.136C28.1863 24.4712 28.4802 24.7033 28.8092 24.7033C28.8543 24.7033 28.9001 24.699 28.9459 24.6899C29.3269 24.6148 29.5749 24.2451 29.4998 23.8641L29.3285 22.995L29.7189 22.9068C30.0976 22.8211 30.3353 22.4447 30.2497 22.0659C30.1641 21.6872 29.7877 21.4492 29.4089 21.5351L29.0566 21.6147L27.3329 12.8676L34.4056 6.53222C35.314 6.60797 36.15 7.08244 36.678 7.83563L45.4682 20.3948C45.8333 20.9154 46.0261 21.527 46.0261 22.1633V31.3564C46.0261 31.7447 46.341 32.0595 46.7293 32.0595C47.1176 32.0595 47.4324 31.7447 47.4324 31.3564V22.1634C47.4321 21.2366 47.151 20.346 46.6197 19.588ZM19.3255 6.23634C19.0528 5.80697 19.083 5.2515 19.4007 4.85419C19.6128 4.58887 19.9292 4.43672 20.2689 4.43672H27.7316C28.0712 4.43672 28.3876 4.58887 28.5998 4.85419C28.9174 5.2515 28.9476 5.80697 28.675 6.23634L24.0002 13.597L19.3255 6.23634ZM27.3228 10.9884L29.862 6.99028C30.4568 6.05381 30.3909 4.84247 29.6981 3.97603C29.2177 3.37509 28.5009 3.03047 27.7316 3.03047H20.2689C19.4995 3.03047 18.7827 3.37509 18.3023 3.97603C17.6096 4.84247 17.5437 6.05381 18.1384 6.99028L20.6776 10.9884L14.8149 5.73694L17.3511 2.56481C17.9397 1.8285 18.8179 1.40625 19.7606 1.40625H28.2398C29.1824 1.40625 30.0607 1.8285 30.6494 2.56472L33.1856 5.73684L27.3228 10.9884Z" fill="#F4AA3E"/>
<path d="M30.2268 28.032H17.7734C17.3851 28.032 17.0703 28.3468 17.0703 28.7351V29.627C17.0703 31.1642 16.3423 32.6406 15.123 33.5765L14.4923 34.0608C14.3189 34.1938 14.2173 34.4 14.2173 34.6185V39.1523C14.2173 40.0623 14.9575 40.8025 15.8675 40.8025H32.1326C33.0426 40.8025 33.7828 40.0623 33.7828 39.1523V34.6185C33.7828 34.4 33.6812 34.1938 33.5079 34.0608L32.8771 33.5765C31.6578 32.6405 30.9298 31.1641 30.9298 29.627V28.7351C30.9299 28.3468 30.6151 28.032 30.2268 28.032ZM32.0209 34.6921L32.3766 34.9652V39.1524C32.3766 39.287 32.2672 39.3964 32.1326 39.3964H15.8675C15.7329 39.3964 15.6235 39.287 15.6235 39.1524V34.9652L15.9792 34.6921C17.5429 33.4917 18.4764 31.5983 18.4764 29.627V29.4382H29.5236V29.627C29.5237 31.5983 30.4571 33.4918 32.0209 34.6921Z" fill="#F4AA3E"/>
</svg>
