<svg width="45" height="45" viewBox="0 0 45 45" fill="none" xmlns="http://www.w3.org/2000/svg">
<path d="M42.0894 10.1618H35.9219C36.9288 9.07026 37.5453 7.61327 37.5453 6.01466C37.5453 6.01466 37.5441 5.77064 37.5417 5.70099C37.4751 3.72819 36.3993 1.96883 34.664 0.994329C32.8936 0.000371248 30.7845 0.000631794 29.0223 0.995284L26.2174 2.57827C24.4608 3.56971 23.086 5.06403 22.2307 6.82113C21.3755 5.06403 20.0007 3.56971 18.2441 2.57836L15.4393 0.995197C13.677 0.000631794 11.568 0.000284463 9.79759 0.994242C8.06229 1.96866 6.98645 3.7281 6.91984 5.70091C6.9175 5.77055 6.91628 6.01457 6.91628 6.01457C6.91628 7.61319 7.53275 9.07017 8.53965 10.1618H2.37209C1.06412 10.1618 0 11.226 0 12.534V18.1641C0 19.4721 1.06412 20.5362 2.37209 20.5362H3.4581V41.8769C3.4581 43.1849 4.52222 44.249 5.83019 44.249H38.6312C39.9392 44.249 41.0033 43.1849 41.0033 41.8769V20.5361H42.0893C43.3973 20.5361 44.4614 19.472 44.4614 18.164V12.5339C44.4615 11.226 43.3974 10.1618 42.0894 10.1618ZM27.1886 4.29916L29.9935 2.71617C31.1493 2.06384 32.5336 2.06436 33.6965 2.71739C34.8246 3.3507 35.5237 4.49098 35.5668 5.76777C35.5683 5.81519 35.5691 6.01466 35.5691 6.01466C35.5691 8.30147 33.7087 10.1619 31.4219 10.1619H23.2752C23.5715 7.71757 25.0144 5.52619 27.1886 4.29916ZM8.89464 5.76769C8.9378 4.49098 9.63694 3.3507 10.7649 2.7173C11.3469 2.39052 11.9839 2.22727 12.6203 2.22727C13.2557 2.22727 13.8904 2.39018 14.4678 2.71617L17.2727 4.29916C19.447 5.52619 20.8899 7.71757 21.186 10.1617H13.0394C10.7526 10.1617 8.89221 8.3013 8.89221 6.01457C8.8923 6.01466 8.89308 5.8151 8.89464 5.76769ZM17.7847 23.5419H13.717C13.1713 23.5419 12.7289 23.9843 12.7289 24.5299C12.7289 25.0755 13.1713 25.518 13.717 25.518H17.7847V42.2729H5.83019C5.61179 42.2729 5.4342 42.0953 5.4342 41.877V20.5361H17.7847V23.5419ZM17.7847 18.5602H2.37209C2.15369 18.5601 1.97611 18.3825 1.97611 18.1642V12.5341C1.97611 12.3156 2.15378 12.138 2.37209 12.138H17.7847V18.5602ZM24.7006 42.2728H19.7608V12.1378H24.7006V42.2728ZM39.0273 41.8769C39.0273 42.0953 38.8496 42.2729 38.6313 42.2729H26.6767V25.5179H30.4416C30.9873 25.5179 31.4297 25.0754 31.4297 24.5298C31.4297 23.9842 30.9873 23.5418 30.4416 23.5418H26.6767V20.5361H39.0274V41.8769H39.0273ZM42.4854 18.1642C42.4854 18.3825 42.3077 18.5602 42.0894 18.5602H26.6767V12.1379H42.0895C42.3078 12.1379 42.4855 12.3156 42.4855 12.534V18.1642H42.4854Z" fill="#F4AA3E"/>
<path d="M35.135 25.5177H35.2338C35.7795 25.5177 36.2219 25.0753 36.2219 24.5297C36.2219 23.9841 35.7795 23.5416 35.2338 23.5416H35.135C34.5893 23.5416 34.147 23.9841 34.147 24.5297C34.1471 25.0753 34.5893 25.5177 35.135 25.5177Z" fill="#F4AA3E"/>
<path d="M8.92506 25.5177H9.02389C9.56958 25.5177 10.0119 25.0753 10.0119 24.5297C10.0119 23.9841 9.5695 23.5416 9.02389 23.5416H8.92506C8.37937 23.5416 7.93701 23.9841 7.93701 24.5297C7.93701 25.0753 8.37937 25.5177 8.92506 25.5177Z" fill="#F4AA3E"/>
</svg>
