<svg width="53" height="46" viewBox="0 0 53 46" fill="none" xmlns="http://www.w3.org/2000/svg">
<path d="M52.6538 16.4549V12.7969C52.6538 11.8087 51.8496 11.0044 50.8614 11.0044C50.2282 11.0044 49.6333 10.7582 49.1858 10.3115C48.7383 9.86315 48.4916 9.2678 48.4916 8.6351V2.19397C48.4916 1.19089 47.6757 0.375 46.6727 0.375H44.4789C43.4758 0.375 42.6599 1.19129 42.6599 2.19397V5.96408C42.6599 8.30288 40.7947 10.2367 38.5025 10.2753C37.3629 10.293 36.2798 9.86355 35.4652 9.06212C34.6501 8.2603 34.2014 7.18932 34.2014 6.04644V2.19397C34.2014 1.19089 33.3851 0.375 32.382 0.375H30.1886C29.1855 0.375 28.3692 1.19129 28.3692 2.19397V4.51831C28.3692 4.94453 28.7147 5.2896 29.1405 5.2896C29.5668 5.2896 29.9118 4.94453 29.9118 4.51831V2.19397C29.9118 2.04172 30.036 1.91759 30.1886 1.91759H32.382C32.5346 1.91759 32.6588 2.04172 32.6588 2.19397V6.04644C32.6588 7.6063 33.2714 9.06775 34.3833 10.1616C35.4953 11.2555 36.9672 11.8404 38.5282 11.8179C41.6572 11.7649 44.2025 9.13885 44.2025 5.96408V2.19397C44.2025 2.04172 44.3266 1.91759 44.4789 1.91759H46.6727C46.8249 1.91759 46.949 2.04172 46.949 2.19397V8.6351C46.949 9.67916 47.3556 10.6618 48.0951 11.4021C48.8347 12.1405 49.8169 12.547 50.8614 12.547C50.9991 12.547 51.1112 12.6591 51.1112 12.7969V15.9837L38.4302 22.0677L25.75 15.9841V12.7969C25.75 12.7117 25.7898 12.6539 25.8248 12.6189C25.8517 12.592 25.9099 12.547 25.9999 12.547C28.1571 12.547 29.9118 10.7923 29.9118 8.6351V7.60349C29.9118 7.17767 29.5668 6.83219 29.1405 6.83219C28.7147 6.83219 28.3692 7.17767 28.3692 7.60349V8.6351C28.3692 9.94148 27.3063 11.0044 25.9999 11.0044C25.5195 11.0044 25.0687 11.1912 24.7325 11.5295C24.3938 11.8681 24.2074 12.3184 24.2074 12.7969V16.4429C24.207 16.4601 24.207 16.4774 24.2074 16.4947V29.3107L20.2409 31.688C19.6821 31.3674 19.0426 31.1947 18.3938 31.1947H13.7917V17.8706H18.3938C20.4381 17.8706 22.1012 16.2075 22.1012 14.1631C22.1012 12.1188 20.4381 10.4557 18.3938 10.4557H17.586V9.61328C17.586 7.94415 16.2277 6.58634 14.5586 6.58634H13.7917V5.07468C13.7917 4.19573 13.0767 3.48067 12.1977 3.48067H9.90352C9.02457 3.48067 8.30951 4.19573 8.30951 5.07468V6.58634H7.54263C5.8735 6.58634 4.5153 7.94415 4.5153 9.61328V10.4557H3.70744C3.3688 10.4557 3.03336 10.5015 2.70998 10.5915C2.29983 10.7059 2.0596 11.1314 2.17409 11.5419C2.28858 11.9521 2.7136 12.1915 3.12455 12.0774C3.31296 12.0248 3.509 11.9983 3.70744 11.9983H18.3938C19.5877 11.9983 20.5587 12.9692 20.5587 14.1631C20.5587 15.3566 19.5877 16.3276 18.3938 16.3276H3.70744C2.51354 16.3276 1.54259 15.3566 1.54259 14.1631C1.54259 14.0406 1.55304 13.9173 1.57312 13.7976C1.64423 13.3774 1.36142 12.9793 0.941624 12.9082C0.52183 12.8367 0.123327 13.1199 0.0522231 13.5401C0.0176755 13.7449 0 13.9546 0 14.1631C0 16.2075 1.66311 17.8706 3.70744 17.8706H8.30951V31.1947H3.70744C1.66311 31.1947 0 32.8578 0 34.9021C0 35.8912 0.385246 36.8224 1.08624 37.5246C1.78724 38.2243 2.71842 38.6096 3.70744 38.6096H4.5157V39.4516C4.5157 41.1211 5.8735 42.4793 7.54223 42.4793H8.30951V43.991C8.30951 44.8699 9.02457 45.585 9.90352 45.585H12.1977C13.0767 45.585 13.7917 44.8699 13.7917 43.991V42.4793H13.8223C13.9818 42.6886 14.1573 42.8875 14.3489 43.0743C15.3849 44.0862 16.7287 44.6012 18.0981 44.6012H45.9054C47.5291 44.6012 48.8504 43.2799 48.8504 41.6558V37.0875H49.2621C51.1325 37.0875 52.6538 35.5658 52.6538 33.6958V16.4814C52.6538 16.4726 52.6538 16.4638 52.6538 16.4549ZM9.8521 5.07468C9.8521 5.04656 9.875 5.02326 9.90352 5.02326H12.1977C12.2262 5.02326 12.2491 5.04656 12.2491 5.07468V6.58634H9.8521V5.07468ZM6.05789 10.4557V9.61328C6.05789 8.79458 6.72393 8.12894 7.54263 8.12894H9.06474H9.08081H9.09647H13.0044H13.0204H13.0365H14.5586C15.3773 8.12894 16.0434 8.79458 16.0434 9.61328V10.4557H6.05789ZM32.3454 27.5688C32.6901 27.5688 33.0002 27.7865 33.1179 28.1103C34.0134 30.5809 36.3807 32.2408 39.0079 32.2408C41.6914 32.2408 44.0752 30.5339 44.9392 27.9934C45.0256 27.7395 45.2642 27.5688 45.5326 27.5688H46.0118C46.7265 27.5688 47.3078 28.1501 47.3078 28.8647V38.5815H36.6293L34.0993 34.9564C33.8559 34.6073 33.3746 34.5217 33.0255 34.7656C32.6764 35.009 32.5909 35.4899 32.8343 35.8394L34.7481 38.5815H32.8974L28.133 31.7535L29.4382 30.9709L31.0696 33.3093C31.2198 33.5243 31.4592 33.6396 31.7031 33.6396C31.8553 33.6396 32.0092 33.5946 32.1434 33.5006C32.4929 33.2567 32.5784 32.7759 32.335 32.4268L30.6932 30.0735C31.1294 29.5818 31.3829 28.9383 31.3829 28.2666V27.5688H32.3454ZM29.2189 38.5815L25.5391 33.3081L26.8066 32.5485L31.0161 38.5815H29.2189ZM25.4865 38.5815L22.9075 34.8857L24.2127 34.1035L27.3376 38.5819H25.4865V38.5815ZM18.3432 34.6238C18.3826 34.6953 18.4275 34.7644 18.4778 34.8298C18.9916 35.4983 19.7701 35.8562 20.5627 35.8562C20.9005 35.8562 21.2412 35.7911 21.565 35.657L23.6057 38.5815H14.328C14.5176 37.4972 15.1724 36.5243 16.1309 35.9502L18.3432 34.6238ZM29.8403 27.7335V28.267C29.8403 28.6723 29.6266 29.0536 29.2819 29.2661C29.2683 29.2741 29.2546 29.2821 29.2414 29.291L26.6519 30.8428C26.6386 30.8504 26.6254 30.8585 26.6121 30.8669L24.0456 32.4051C24.0407 32.4079 24.0355 32.4111 24.0307 32.4143L21.1191 34.1594C20.6462 34.443 20.0368 34.3269 19.7006 33.8898C19.6966 33.8846 19.6841 33.8681 19.6893 33.8412C19.6938 33.8175 19.7078 33.8067 19.7151 33.8018L20.5984 33.2724C20.6085 33.2668 20.6189 33.2603 20.629 33.2539L29.8058 27.7532C29.8174 27.7464 29.8287 27.7399 29.8403 27.7335ZM9.8521 17.8706H12.2491V31.1947H9.8521V17.8706ZM6.05829 39.452V38.6096H10.4157C10.8415 38.6096 11.187 38.2645 11.187 37.8383C11.187 37.4125 10.8415 37.067 10.4157 37.067H3.70744C3.12977 37.067 2.58585 36.842 2.1769 36.4339C1.76796 36.0237 1.54259 35.4798 1.54259 34.9021C1.54259 33.7086 2.51354 32.7373 3.70744 32.7373H18.3938C18.4251 32.7373 18.4561 32.7381 18.487 32.7393L15.3379 34.627C13.7287 35.5915 12.7292 37.3558 12.7292 39.2323C12.7292 39.7448 12.8015 40.241 12.9361 40.7106C12.9377 40.7166 12.9397 40.7226 12.9413 40.7286C12.9425 40.7327 12.9437 40.7367 12.9449 40.7407C12.9638 40.8066 12.9843 40.8717 13.006 40.9367H7.54223C6.72393 40.9367 6.05829 40.2707 6.05829 39.452ZM12.2491 43.991C12.2491 44.0191 12.2258 44.0424 12.1977 44.0424H9.90352C9.8754 44.0424 9.8521 44.0191 9.8521 43.991V42.4793H12.2491V43.991ZM47.3078 41.6558C47.3078 42.4295 46.6787 43.0586 45.905 43.0586C28.1137 43.0586 18.0781 43.0594 17.9961 43.0574C16.2382 43.0112 14.7719 41.7735 14.3766 40.1241H25.0651C25.0719 40.1245 25.0784 40.1245 25.0852 40.1245C25.092 40.1245 25.0989 40.1245 25.1057 40.1241H28.7971C28.8039 40.1245 28.8103 40.1245 28.8171 40.1245C28.824 40.1245 28.8308 40.1245 28.8376 40.1241H32.4756C32.4824 40.1245 32.4892 40.1245 32.4957 40.1245C32.5025 40.1245 32.5093 40.1245 32.5162 40.1241H36.2075C36.2144 40.1245 36.2208 40.1245 36.2276 40.1245C36.2344 40.1245 36.2413 40.1245 36.2481 40.1241H47.3078V41.6558ZM49.2621 35.5449H48.8504V28.8647C48.8504 27.2997 47.5769 26.0262 46.0118 26.0262H45.5326C44.6034 26.0262 43.7783 26.6171 43.4786 27.4965C42.8274 29.4115 41.0305 30.6978 39.0079 30.6978C37.027 30.6978 35.243 29.4468 34.5677 27.5849C34.2299 26.6525 33.3369 26.0262 32.345 26.0262C30.6257 26.0704 29.9705 25.8575 29.0128 26.4303L25.7496 28.3859V17.695L38.0964 23.6187C38.2021 23.6693 38.3161 23.6947 38.4302 23.6947C38.5443 23.6947 38.6584 23.6693 38.7637 23.6187L51.1108 17.6946V33.6958C51.1112 34.7153 50.2817 35.5449 49.2621 35.5449Z" fill="#F4AA3E"/>
<path d="M37.6259 13.9646H37.1077C36.6815 13.9646 36.3364 14.3097 36.3364 14.7359C36.3364 15.1617 36.6815 15.5072 37.1077 15.5072H37.2708V18.175H37.1768C36.7506 18.175 36.4055 18.5201 36.4055 18.9463C36.4055 19.3725 36.7506 19.7176 37.1768 19.7176H38.9074C39.3336 19.7176 39.6787 19.3725 39.6787 18.9463C39.6787 18.5201 39.3336 18.175 38.9074 18.175H38.8134V15.1521C38.8134 14.4973 38.2807 13.9646 37.6259 13.9646Z" fill="#F4AA3E"/>
</svg>
