<svg width="27" height="25" viewBox="0 0 27 25" fill="none" xmlns="http://www.w3.org/2000/svg">
<path d="M6.83486 4.6972H22.264C22.6278 4.6972 22.9976 4.6972 23.3614 4.6972C25.747 4.82245 27.1426 6.6415 26.3434 8.91382C25.5442 11.1861 24.5542 13.369 23.6119 15.5817C23.4301 15.9895 23.1465 16.3436 22.7882 16.61C22.4299 16.8763 22.009 17.046 21.5662 17.1025C18.6915 17.6393 15.8168 18.182 12.9302 18.6651C11.0157 18.9932 9.81691 18.2297 9.06543 16.2795C7.65194 12.5698 6.26827 8.84822 4.89056 5.13855C4.1033 3.11672 4.09137 3.12268 1.92044 3.0869C1.50449 3.12209 1.08558 3.08986 0.679907 2.99147C0.520231 2.9257 0.376739 2.82604 0.259349 2.69939C0.14196 2.57273 0.0534713 2.42209 0 2.25789C0.00843466 2.08378 0.0563004 1.91387 0.139986 1.76096C0.223671 1.60805 0.34099 1.47615 0.483092 1.3752C2.0934 0.391124 5.39751 1.4587 6.20266 3.16443C6.39948 3.61174 6.56051 4.05308 6.83486 4.6972ZM7.57441 6.7906C8.79705 10.0053 9.91233 12.9754 11.0634 15.9097C11.3497 16.6493 11.9461 16.8282 12.7274 16.6791C15.3933 16.1781 18.0951 15.7546 20.7312 15.2298C20.9788 15.189 21.2157 15.0987 21.4278 14.9645C21.6399 14.8303 21.8229 14.6548 21.9658 14.4485C22.8902 12.4088 23.755 10.3273 24.5363 8.23392C24.8584 7.38105 24.429 6.83832 23.5105 6.71307C23.1472 6.68619 22.7824 6.68619 22.4191 6.71307H9.41135C8.89844 6.70711 8.38552 6.75482 7.57441 6.7906Z" fill="#1F242E"/>
<path d="M9.05945 21.003C9.32963 20.9981 9.59801 21.048 9.84835 21.1497C10.0987 21.2515 10.3258 21.403 10.5159 21.595C10.706 21.7871 10.8552 22.0157 10.9544 22.267C11.0536 22.5184 11.1008 22.7873 11.0932 23.0574C11.0855 23.3275 11.0231 23.5933 10.9098 23.8386C10.7965 24.0839 10.6345 24.3037 10.4338 24.4846C10.2331 24.6656 9.9978 24.8039 9.74209 24.8913C9.48638 24.9787 9.2156 25.0133 8.94613 24.993C8.43245 24.9534 7.9539 24.717 7.61041 24.333C7.26692 23.949 7.08504 23.4472 7.10274 22.9323C7.12045 22.4174 7.33636 21.9292 7.70541 21.5697C8.07446 21.2102 8.56812 21.0072 9.0833 21.003H9.05945Z" fill="#1F242E"/>
<path d="M23.7128 23.0188C23.7235 23.2789 23.6806 23.5385 23.5867 23.7812C23.4929 24.024 23.35 24.2449 23.167 24.4301C22.9841 24.6153 22.765 24.7608 22.5233 24.8576C22.2817 24.9545 22.0227 25.0005 21.7625 24.993C21.4914 25.0051 21.2205 24.962 20.9666 24.866C20.7127 24.7701 20.481 24.6234 20.2856 24.435C20.0903 24.2465 19.9354 24.0202 19.8304 23.7699C19.7253 23.5196 19.6725 23.2505 19.6749 22.9791C19.6773 22.7076 19.735 22.4396 19.8445 22.1912C19.954 21.9428 20.1129 21.7193 20.3116 21.5344C20.5104 21.3495 20.7447 21.207 21.0003 21.1156C21.2559 21.0242 21.5274 20.9859 21.7983 21.003C22.0587 21.0017 22.3167 21.0538 22.5562 21.156C22.7957 21.2582 23.0118 21.4084 23.1912 21.5972C23.3705 21.786 23.5093 22.0096 23.599 22.2541C23.6887 22.4986 23.7274 22.7588 23.7128 23.0188Z" fill="#1F242E"/>
</svg>
