<svg width="21" height="24" viewBox="0 0 21 24" fill="none" xmlns="http://www.w3.org/2000/svg">
<path d="M9.85971 11.5609C11.448 11.5609 12.8231 10.9912 13.947 9.86733C15.0705 8.74361 15.6403 7.36868 15.6403 5.78025C15.6403 4.19236 15.0707 2.81725 13.9468 1.69317C12.8229 0.569639 11.4478 0 9.85971 0C8.27128 0 6.89635 0.569639 5.77264 1.69335C4.64892 2.81706 4.0791 4.19218 4.0791 5.78025C4.0791 7.36868 4.64892 8.7438 5.77264 9.86751C6.89672 10.991 8.27183 11.5609 9.85971 11.5609ZM6.76726 2.68779C7.6295 1.82555 8.64097 1.40643 9.85971 1.40643C11.0783 1.40643 12.0899 1.82555 12.9524 2.68779C13.8146 3.55022 14.2339 4.56187 14.2339 5.78025C14.2339 6.99899 13.8146 8.01046 12.9524 8.87288C12.0899 9.73531 11.0783 10.1544 9.85971 10.1544C8.64134 10.1544 7.62987 9.73512 6.76726 8.87288C5.90484 8.01064 5.48553 6.99899 5.48553 5.78025C5.48553 4.56187 5.90484 3.55022 6.76726 2.68779Z" fill="#1F242E"/>
<path d="M19.9747 18.4549C19.9423 17.9872 19.8767 17.4771 19.7802 16.9384C19.6828 16.3957 19.5574 15.8826 19.4073 15.4137C19.252 14.929 19.0412 14.4504 18.7803 13.9917C18.5099 13.5156 18.192 13.1011 17.8353 12.7599C17.4623 12.4031 17.0057 12.1161 16.4776 11.9069C15.9513 11.6987 15.3682 11.5932 14.7443 11.5932C14.4993 11.5932 14.2624 11.6937 13.8048 11.9916C13.5232 12.1753 13.1938 12.3877 12.8261 12.6226C12.5117 12.8229 12.0858 13.0106 11.5598 13.1805C11.0465 13.3466 10.5254 13.4308 10.0109 13.4308C9.49672 13.4308 8.97561 13.3466 8.462 13.1805C7.93649 13.0108 7.5104 12.8231 7.19656 12.6228C6.83237 12.3901 6.50278 12.1777 6.21695 11.9915C5.75974 11.6935 5.5228 11.593 5.27781 11.593C4.65379 11.593 4.07078 11.6987 3.54472 11.907C3.01701 12.116 2.56017 12.4029 2.18682 12.7601C1.83013 13.1014 1.51226 13.5158 1.242 13.9917C0.981441 14.4504 0.770504 14.9288 0.615232 15.4139C0.465269 15.8828 0.339842 16.3957 0.242431 16.9384C0.145751 17.4764 0.0803829 17.9867 0.0479734 18.4554C0.0161132 18.9137 0 19.3907 0 19.8726C0 21.1254 0.398253 22.1397 1.18359 22.8876C1.95922 23.6257 2.98534 24 4.23356 24H15.7897C17.0375 24 18.0636 23.6257 18.8395 22.8876C19.625 22.1402 20.0232 21.1256 20.0232 19.8725C20.023 19.3889 20.0067 18.9119 19.9747 18.4549ZM17.8697 21.8687C17.3572 22.3565 16.6768 22.5936 15.7895 22.5936H4.23356C3.34605 22.5936 2.66564 22.3565 2.15331 21.8688C1.65069 21.3904 1.40643 20.7373 1.40643 19.8726C1.40643 19.4229 1.42126 18.9789 1.45092 18.5526C1.47985 18.1344 1.53899 17.675 1.6267 17.1869C1.71331 16.7047 1.82354 16.2523 1.95464 15.8427C2.08043 15.4499 2.252 15.061 2.46477 14.6864C2.66783 14.3293 2.90148 14.023 3.15929 13.7762C3.40044 13.5453 3.70439 13.3563 4.06254 13.2146C4.39378 13.0835 4.76603 13.0117 5.17014 13.0009C5.2194 13.0271 5.3071 13.0771 5.44919 13.1697C5.73832 13.3581 6.07157 13.5731 6.43997 13.8084C6.85525 14.0732 7.39029 14.3123 8.0295 14.5187C8.683 14.73 9.34951 14.8373 10.0111 14.8373C10.6726 14.8373 11.3393 14.73 11.9924 14.5188C12.6322 14.3121 13.1671 14.0732 13.5829 13.808C13.9599 13.5671 14.2838 13.3583 14.5729 13.1697C14.715 13.0773 14.8027 13.0271 14.852 13.0009C15.2563 13.0117 15.6285 13.0835 15.9599 13.2146C16.3179 13.3563 16.6219 13.5455 16.863 13.7762C17.1208 14.0228 17.3545 14.3292 17.5575 14.6866C17.7705 15.061 17.9422 15.4501 18.0678 15.8425C18.1991 16.2527 18.3095 16.7049 18.396 17.1867C18.4835 17.6758 18.5428 18.1353 18.5718 18.5528V18.5532C18.6016 18.9778 18.6166 19.4217 18.6168 19.8726C18.6166 20.7374 18.3724 21.3904 17.8697 21.8687Z" fill="#1F242E"/>
</svg>
