<svg width="88" height="69" viewBox="0 0 88 69" fill="none" xmlns="http://www.w3.org/2000/svg">
<path d="M16.6685 67.9408V63.4499C16.6946 63.0722 16.64 62.6932 16.5083 62.3383C16.3765 61.9834 16.1706 61.6606 15.9043 61.3915C15.638 61.1223 15.3174 60.9131 14.9639 60.7775C14.6104 60.642 14.2321 60.5834 13.8541 60.6056C13.3594 60.5732 12.865 60.6741 12.4227 60.8979C11.9803 61.1218 11.6061 61.4602 11.3392 61.878C11.0959 61.4728 10.7477 61.1407 10.3314 60.9167C9.91517 60.6928 9.44619 60.5853 8.97394 60.6056C8.56228 60.5848 8.15233 60.6719 7.78472 60.8583C7.4171 61.0448 7.10459 61.324 6.87816 61.6684V60.7852H5.32129V67.9408H6.89313V64.0037C6.85969 63.7591 6.88073 63.51 6.95473 63.2744C7.02873 63.0388 7.15387 62.8224 7.32121 62.6408C7.48854 62.4591 7.69394 62.3167 7.92271 62.2237C8.15149 62.1306 8.39799 62.0893 8.6446 62.1026C9.67752 62.1026 10.2015 62.7762 10.2015 63.9888V67.9708H11.7733V64.0037C11.7412 63.7593 11.7632 63.5108 11.8377 63.2758C11.9122 63.0407 12.0374 62.8249 12.2045 62.6436C12.3715 62.4623 12.5764 62.3199 12.8045 62.2264C13.0326 62.1329 13.2785 62.0906 13.5248 62.1026C14.5876 62.1026 15.0966 62.7762 15.0966 63.9888V67.9708L16.6685 67.9408ZM39.9241 60.7852H37.3643V58.6146H35.7925V60.7852H34.3703V62.2074H35.8224V65.5007C35.8224 67.1624 36.4661 68.1504 38.3074 68.1504C38.9953 68.1527 39.6699 67.9607 40.2535 67.5965L39.8044 66.2642C39.3869 66.5132 38.913 66.6523 38.4272 66.6684C37.6787 66.6684 37.3942 66.1894 37.3942 65.4708V62.2074H39.9391L39.9241 60.7852ZM53.2024 60.6056C52.8228 60.5944 52.4473 60.6859 52.1153 60.8703C51.7833 61.0547 51.5073 61.3253 51.3162 61.6535V60.7852H49.7743V67.9408H51.3312V63.9289C51.3312 62.7463 51.8402 62.0876 52.8282 62.0876C53.1612 62.0831 53.4918 62.1441 53.8012 62.2672L54.2803 60.7703C53.9247 60.6431 53.5501 60.5773 53.1725 60.5756L53.2024 60.6056ZM33.1278 61.3541C32.2466 60.8301 31.2334 60.5703 30.2087 60.6056C28.3974 60.6056 27.2147 61.4738 27.2147 62.896C27.2147 64.0636 28.083 64.7822 29.6848 65.0067L30.4333 65.1115C31.2865 65.2313 31.6907 65.4558 31.6907 65.86C31.6907 66.4139 31.1219 66.7283 30.059 66.7283C29.2041 66.753 28.3657 66.4894 27.6788 65.9798L26.9303 67.1923C27.8372 67.8256 28.9234 68.1509 30.0291 68.1205C32.0949 68.1205 33.2925 67.1474 33.2925 65.7852C33.2925 64.4229 32.3494 63.869 30.7925 63.6445L30.044 63.5397C29.3704 63.4499 28.8315 63.3151 28.8315 62.8361C28.8315 62.3571 29.3404 61.9978 30.1937 61.9978C30.9824 62.0069 31.7555 62.2183 32.4392 62.6116L33.1278 61.3541ZM74.8264 60.6056C74.4468 60.5944 74.0713 60.6859 73.7393 60.8703C73.4073 61.0547 73.1313 61.3253 72.9402 61.6535V60.7852H71.3983V67.9408H72.9552V63.9289C72.9552 62.7463 73.4642 62.0876 74.4522 62.0876C74.7852 62.0831 75.1158 62.1441 75.4252 62.2672L75.9042 60.7703C75.5487 60.6431 75.1741 60.5773 74.7965 60.5756L74.8264 60.6056ZM54.7668 64.3481C54.7483 64.8509 54.8349 65.3521 55.0212 65.8195C55.2075 66.287 55.4893 66.7104 55.8486 67.0626C56.208 67.4149 56.6369 67.6883 57.1079 67.8653C57.5789 68.0423 58.0817 68.119 58.5841 68.0905C59.5189 68.1381 60.4375 67.8336 61.1589 67.2372L60.4104 65.9798C59.8722 66.3902 59.216 66.6159 58.5392 66.6235C57.9637 66.5769 57.4269 66.3154 57.0354 65.891C56.644 65.4666 56.4266 64.9104 56.4266 64.3331C56.4266 63.7557 56.644 63.1995 57.0354 62.7751C57.4269 62.3507 57.9637 62.0893 58.5392 62.0427C59.216 62.0502 59.8722 62.276 60.4104 62.6864L61.1589 61.4289C60.4375 60.8325 59.5189 60.5281 58.5841 60.5756C58.0817 60.5472 57.5789 60.6239 57.1079 60.8009C56.6369 60.9779 56.208 61.2513 55.8486 61.6035C55.4893 61.9558 55.2075 62.3792 55.0212 62.8467C54.8349 63.3141 54.7483 63.8153 54.7668 64.3181V64.3481ZM69.3474 64.3481V60.7852H67.7906V61.6535C67.5262 61.3133 67.1847 61.0408 66.7942 60.8586C66.4038 60.6764 65.9757 60.5897 65.5451 60.6056C64.5525 60.6056 63.6006 60.9999 62.8988 61.7017C62.1969 62.4036 61.8026 63.3555 61.8026 64.3481C61.8026 65.3406 62.1969 66.2925 62.8988 66.9944C63.6006 67.6962 64.5525 68.0905 65.5451 68.0905C65.9757 68.1064 66.4038 68.0197 66.7942 67.8375C67.1847 67.6553 67.5262 67.3828 67.7906 67.0426V67.9109H69.3474V64.3481ZM63.5541 64.3481C63.5789 63.9269 63.7264 63.5221 63.9783 63.1837C64.2303 62.8452 64.5757 62.5878 64.9721 62.4432C65.3685 62.2986 65.7985 62.2731 66.2092 62.3697C66.6199 62.4664 66.9933 62.6811 67.2836 62.9874C67.5738 63.2936 67.7681 63.678 67.8426 64.0933C67.9172 64.5086 67.8686 64.9367 67.7029 65.3247C67.5372 65.7128 67.2617 66.0439 66.9102 66.2773C66.5587 66.5107 66.1467 66.6363 65.7247 66.6384C65.4284 66.6422 65.1344 66.5846 64.8614 66.4692C64.5884 66.3539 64.3422 66.1832 64.1383 65.9681C63.9345 65.753 63.7773 65.498 63.6768 65.2192C63.5762 64.9404 63.5345 64.6438 63.5541 64.3481ZM44.7669 60.6056C43.7743 60.6195 42.8279 61.0271 42.1359 61.7388C41.4439 62.4505 41.0629 63.4079 41.0768 64.4004C41.0907 65.393 41.4983 66.3394 42.21 67.0314C42.9217 67.7235 43.8791 68.1044 44.8717 68.0905C45.9486 68.1458 47.0076 67.799 47.8432 67.1175L47.0947 65.9648C46.5037 66.4388 45.7715 66.7022 45.0139 66.7133C44.4993 66.7576 43.9877 66.5993 43.5879 66.2722C43.1881 65.9451 42.9317 65.475 42.8732 64.9618H48.1875C48.1875 64.7672 48.1875 64.5726 48.1875 64.363C48.1875 62.1175 46.7953 60.6206 44.7894 60.6206L44.7669 60.6056ZM44.7669 61.9978C44.9999 61.9928 45.2315 62.0338 45.4487 62.1184C45.6658 62.203 45.8641 62.3295 46.0323 62.4908C46.2006 62.652 46.3353 62.8449 46.429 63.0582C46.5227 63.2716 46.5734 63.5013 46.5783 63.7343H42.8358C42.8629 63.2538 43.077 62.803 43.4324 62.4785C43.7877 62.1539 44.256 61.9814 44.737 61.9978H44.7669ZM83.7709 64.363V57.911H82.2739V61.6535C82.0095 61.3133 81.668 61.0408 81.2776 60.8586C80.8872 60.6764 80.459 60.5897 80.0284 60.6056C79.0359 60.6056 78.084 60.9999 77.3821 61.7017C76.6803 62.4036 76.286 63.3555 76.286 64.3481C76.286 65.3406 76.6803 66.2925 77.3821 66.9944C78.084 67.6962 79.0359 68.0905 80.0284 68.0905C80.459 68.1064 80.8872 68.0197 81.2776 67.8375C81.668 67.6553 82.0095 67.3828 82.2739 67.0426V67.9109H83.7709V64.363ZM78.015 64.363C78.0398 63.9418 78.1873 63.5371 78.4392 63.1986C78.6912 62.8602 79.0366 62.6028 79.433 62.4582C79.8293 62.3136 80.2594 62.288 80.6701 62.3847C81.0808 62.4814 81.4542 62.6961 81.7445 63.0023C82.0347 63.3086 82.229 63.693 82.3035 64.1083C82.3781 64.5236 82.3295 64.9516 82.1638 65.3397C81.9981 65.7277 81.7226 66.0588 81.3711 66.2923C81.0196 66.5257 80.6076 66.6512 80.1856 66.6534C79.8893 66.6572 79.5953 66.5995 79.3223 66.4842C79.0493 66.3688 78.8031 66.1982 78.5992 65.9831C78.3954 65.768 78.2382 65.513 78.1377 65.2342C78.0371 64.9554 77.9953 64.6588 78.015 64.363ZM25.4483 64.363V60.7852H23.8914V61.6535C23.627 61.3133 23.2855 61.0408 22.8951 60.8586C22.5047 60.6764 22.0765 60.5897 21.6459 60.6056C20.6534 60.6056 19.7015 60.9999 18.9996 61.7017C18.2978 62.4036 17.9035 63.3555 17.9035 64.3481C17.9035 65.3406 18.2978 66.2925 18.9996 66.9944C19.7015 67.6962 20.6534 68.0905 21.6459 68.0905C22.0765 68.1064 22.5047 68.0197 22.8951 67.8375C23.2855 67.6553 23.627 67.3828 23.8914 67.0426V67.9109H25.4483V64.363ZM19.6549 64.363C19.6798 63.9418 19.8272 63.5371 20.0792 63.1986C20.3311 62.8602 20.6765 62.6028 21.0729 62.4582C21.4693 62.3136 21.8993 62.288 22.31 62.3847C22.7207 62.4814 23.0942 62.6961 23.3844 63.0023C23.6746 63.3086 23.869 63.693 23.9435 64.1083C24.018 64.5236 23.9694 64.9516 23.8038 65.3397C23.6381 65.7277 23.3625 66.0588 23.0111 66.2923C22.6596 66.5257 22.2475 66.6512 21.8256 66.6534C21.528 66.6593 21.2324 66.6032 20.9576 66.4888C20.6828 66.3743 20.4348 66.204 20.2293 65.9887C20.0238 65.7733 19.8653 65.5176 19.7638 65.2378C19.6624 64.9579 19.6202 64.66 19.64 64.363H19.6549Z" fill="white"/>
<path d="M56.1889 6.25761H32.6113V48.6298H56.1889V6.25761Z" fill="#FF5F00"/>
<path d="M34.1087 27.4481C34.1043 23.3668 35.0287 19.3379 36.8118 15.6667C38.5949 11.9955 41.19 8.77813 44.4005 6.25824C40.4253 3.13419 35.6514 1.19153 30.6244 0.652284C25.5974 0.11304 20.5201 0.998968 15.9728 3.20882C11.4255 5.41867 7.5916 8.86328 4.90935 13.149C2.2271 17.4347 0.804688 22.3885 0.804688 27.4444C0.804687 32.5002 2.2271 37.4541 4.90935 41.7397C7.5916 46.0254 11.4255 49.47 15.9728 51.6799C20.5201 53.8897 25.5974 54.7757 30.6244 54.2364C35.6514 53.6972 40.4253 51.7545 44.4005 48.6305C41.191 46.1114 38.5965 42.8952 36.8134 39.2254C35.0304 35.5555 34.1055 31.5282 34.1087 27.4481Z" fill="#EB001B"/>
<path d="M88.0001 27.4473C88 32.5035 86.5773 37.4577 83.8946 41.7435C81.2118 46.0293 77.3774 49.4739 72.8295 51.6834C68.2816 53.893 63.2038 54.7783 58.1765 54.2383C53.1492 53.6983 48.3753 51.7547 44.4004 48.6296C47.6087 46.1083 50.2024 42.8912 51.9859 39.2212C53.7694 35.5512 54.6961 31.524 54.6961 27.4435C54.6961 23.3631 53.7694 19.3359 51.9859 15.6659C50.2024 11.9958 47.6087 8.77877 44.4004 6.25742C48.3753 3.13239 53.1492 1.18879 58.1765 0.648767C63.2038 0.108749 68.2816 0.994107 72.8295 3.20364C77.3774 5.41318 81.2118 8.85773 83.8946 13.1436C86.5773 17.4294 88 22.3836 88.0001 27.4398V27.4473Z" fill="#F79E1B"/>
</svg>
