<svg width="120" height="39" viewBox="0 0 120 39" fill="none" xmlns="http://www.w3.org/2000/svg">
<path d="M51.7105 38.05H41.9805L48.0605 0.670013H57.7905L51.7105 38.05Z" fill="#0077DB"/>
<path d="M33.79 0.670013L24.51 26.38L23.41 20.84L20.14 4.00001C20.14 4.00001 19.74 0.670013 15.52 0.670013H0.18L0 1.30001C3.59091 2.20168 7.02359 3.64489 10.18 5.58001L18.64 38.05H28.78L44.26 0.670013H33.79Z" fill="#0077DB"/>
<path d="M110.34 38.05H119.28L111.49 0.669998H103.66C102.713 0.597178 101.766 0.828424 100.959 1.33015C100.151 1.83187 99.5249 2.57795 99.1704 3.46L84.6504 38.05H94.8004L96.8004 32.5H109.2L110.34 38.05ZM99.6304 24.83L104.75 10.83L107.62 24.83H99.6304Z" fill="#0077DB"/>
<path d="M85.4102 9.66L86.8002 1.66C83.9908 0.643382 81.0367 0.0829609 78.0502 0C73.2202 0 61.7502 2.11 61.7502 12.38C61.7502 22.04 75.2102 22.16 75.2102 27.23C75.2102 32.3 63.1402 31.39 59.1502 28.23L57.7002 36.58C61.1801 38.042 64.9262 38.7639 68.7002 38.7C75.3402 38.7 85.3602 35.26 85.3602 25.9C85.3602 16.18 71.7802 15.27 71.7802 11.05C71.7802 6.83 81.2502 7.36 85.4102 9.66Z" fill="#0077DB"/>
<path d="M23.41 20.85L20.14 4.00001C20.14 4.00001 19.74 0.670013 15.52 0.670013H0.18L0 1.30001C5.28292 2.64692 10.2122 5.12008 14.45 8.55001C18.4727 11.7847 21.5647 16.0292 23.41 20.85Z" fill="#F4AA3E"/>
</svg>
