<svg width="42" height="283" viewBox="0 0 42 283" fill="none" xmlns="http://www.w3.org/2000/svg">
<path d="M31 179H41V219H1V179H11" stroke="#1F242E" stroke-width="2"/>
<path d="M21.7504 205.689C22.857 205.689 23.7337 205.466 24.3804 205.019C25.027 204.572 25.3504 203.859 25.3504 202.879C25.3504 201.906 25.027 201.196 24.3804 200.749C23.7337 200.296 22.857 200.069 21.7504 200.069C20.6504 200.069 19.7804 200.296 19.1404 200.749C18.4937 201.196 18.1704 201.906 18.1704 202.879C18.1704 203.859 18.4937 204.572 19.1404 205.019C19.7804 205.466 20.6504 205.689 21.7504 205.689ZM21.7504 201.769C22.3837 201.769 22.8737 201.846 23.2204 201.999C23.5604 202.146 23.7304 202.439 23.7304 202.879C23.7304 203.326 23.5604 203.626 23.2204 203.779C22.8737 203.932 22.3837 204.009 21.7504 204.009C21.1237 204.009 20.6404 203.932 20.3004 203.779C19.9604 203.626 19.7904 203.326 19.7904 202.879C19.7904 202.439 19.9604 202.146 20.3004 201.999C20.6337 201.846 21.117 201.769 21.7504 201.769ZM24.0604 196.233L22.6304 196.233L18.2004 193.003L18.2004 191.163L22.5704 191.163L22.5704 190.313L24.0604 190.313L24.0604 191.163L25.3604 191.163L25.3604 192.893L24.0604 192.893L24.0604 196.233ZM20.1804 192.753L22.5704 194.493L22.5704 192.753L20.1804 192.753Z" fill="#1F242E"/>
<path d="M20.6004 159.139C21.007 159.139 21.3804 159.232 21.7204 159.419C22.0537 159.606 22.3237 159.892 22.5304 160.279C22.737 160.666 22.8404 161.146 22.8404 161.719L22.8404 162.779L25.3604 162.779L25.3604 164.489L18.3404 164.489L18.3404 161.719C18.3404 161.159 18.437 160.686 18.6304 160.299C18.8237 159.912 19.0904 159.622 19.4304 159.429C19.7704 159.236 20.1604 159.139 20.6004 159.139ZM21.4804 161.849C21.4804 161.522 21.4037 161.279 21.2504 161.119C21.097 160.959 20.8804 160.879 20.6004 160.879C20.3204 160.879 20.1037 160.959 19.9504 161.119C19.797 161.279 19.7204 161.522 19.7204 161.849L19.7204 162.779L21.4804 162.779L21.4804 161.849ZM25.4304 151.929C25.4304 152.589 25.277 153.195 24.9704 153.749C24.6637 154.295 24.237 154.732 23.6904 155.059C23.137 155.379 22.517 155.539 21.8304 155.539C21.1437 155.539 20.527 155.379 19.9804 155.059C19.4337 154.732 19.007 154.295 18.7004 153.749C18.3937 153.195 18.2404 152.589 18.2404 151.929C18.2404 151.269 18.3937 150.665 18.7004 150.119C19.007 149.565 19.4337 149.132 19.9804 148.819C20.527 148.499 21.1437 148.339 21.8304 148.339C22.517 148.339 23.137 148.499 23.6904 148.819C24.237 149.139 24.6637 149.572 24.9704 150.119C25.277 150.665 25.4304 151.269 25.4304 151.929ZM23.8704 151.929C23.8704 151.369 23.6837 150.922 23.3104 150.589C22.937 150.249 22.4437 150.079 21.8304 150.079C21.2104 150.079 20.717 150.249 20.3504 150.589C19.977 150.922 19.7904 151.369 19.7904 151.929C19.7904 152.495 19.9737 152.949 20.3404 153.289C20.707 153.622 21.2037 153.789 21.8304 153.789C22.4504 153.789 22.947 153.622 23.3204 153.289C23.687 152.949 23.8704 152.495 23.8704 151.929ZM20.6004 139.037C21.007 139.037 21.3804 139.131 21.7204 139.317C22.0537 139.504 22.3237 139.791 22.5304 140.177C22.737 140.564 22.8404 141.044 22.8404 141.617L22.8404 142.677L25.3604 142.677L25.3604 144.387L18.3404 144.387L18.3404 141.617C18.3404 141.057 18.437 140.584 18.6304 140.197C18.8237 139.811 19.0903 139.521 19.4303 139.327C19.7703 139.134 20.1604 139.037 20.6004 139.037ZM21.4804 141.747C21.4804 141.421 21.4037 141.177 21.2504 141.017C21.097 140.857 20.8804 140.777 20.6004 140.777C20.3204 140.777 20.1037 140.857 19.9504 141.017C19.797 141.177 19.7204 141.421 19.7204 141.747L19.7204 142.677L21.4804 142.677L21.4804 141.747ZM18.3403 133.467L22.5404 133.467C22.9604 133.467 23.2837 133.364 23.5104 133.157C23.737 132.95 23.8504 132.647 23.8504 132.247C23.8504 131.847 23.737 131.54 23.5104 131.327C23.2837 131.114 22.9603 131.007 22.5404 131.007L18.3403 131.007L18.3403 129.297L22.5303 129.297C23.157 129.297 23.687 129.43 24.1203 129.697C24.5537 129.964 24.8804 130.324 25.1004 130.777C25.3204 131.224 25.4304 131.724 25.4304 132.277C25.4304 132.83 25.3237 133.327 25.1104 133.767C24.8904 134.2 24.5637 134.544 24.1304 134.797C23.6904 135.05 23.157 135.177 22.5304 135.177L18.3404 135.177L18.3403 133.467ZM24.0403 123.386L24.0403 121.146L25.3603 121.146L25.3603 125.096L18.3403 125.096L18.3403 123.386L24.0403 123.386ZM24.1203 112.961L24.1203 115.581L25.3603 116.001L25.3603 117.791L18.3403 115.251L18.3403 113.271L25.3603 110.731L25.3603 112.541L24.1203 112.961ZM22.8003 113.401L20.2303 114.271L22.8003 115.131L22.8003 113.401ZM25.3603 103.378L22.7103 104.838L22.7103 105.248L25.3603 105.248L25.3603 106.958L18.3403 106.958L18.3403 104.088C18.3403 103.534 18.437 103.064 18.6303 102.678C18.8237 102.284 19.0903 101.991 19.4303 101.798C19.7637 101.604 20.137 101.508 20.5503 101.508C21.017 101.508 21.4337 101.641 21.8003 101.908C22.167 102.168 22.427 102.554 22.5803 103.068L25.3603 101.448L25.3603 103.378ZM21.5003 105.248L21.5003 104.188C21.5003 103.874 21.4237 103.641 21.2703 103.488C21.117 103.328 20.9003 103.248 20.6203 103.248C20.3537 103.248 20.1437 103.328 19.9903 103.488C19.837 103.641 19.7603 103.874 19.7603 104.188L19.7603 105.248L21.5003 105.248Z" fill="#212631"/>
<path d="M27.9971 276.438L27.0226 275.464L22.6861 279.8L22.6861 240.562L21.308 240.562L21.308 279.8L16.9716 275.464L15.9971 276.438L21.9971 282.439L27.9971 276.438Z" fill="#1F242E"/>
<rect x="21" width="2" height="79" fill="#1F242E"/>
</svg>
