<svg width="42" height="304" viewBox="0 0 42 304" fill="none" xmlns="http://www.w3.org/2000/svg">
<path d="M31 200H41V240H1V200H11" stroke="#1F242E" stroke-width="2"/>
<path d="M21.7504 226.689C22.857 226.689 23.7337 226.466 24.3804 226.019C25.027 225.572 25.3504 224.859 25.3504 223.879C25.3504 222.906 25.027 222.196 24.3804 221.749C23.7337 221.296 22.857 221.069 21.7504 221.069C20.6504 221.069 19.7804 221.296 19.1404 221.749C18.4937 222.196 18.1704 222.906 18.1704 223.879C18.1704 224.859 18.4937 225.572 19.1404 226.019C19.7804 226.466 20.6504 226.689 21.7504 226.689ZM21.7504 222.769C22.3837 222.769 22.8737 222.846 23.2204 222.999C23.5604 223.146 23.7304 223.439 23.7304 223.879C23.7304 224.326 23.5604 224.626 23.2204 224.779C22.8737 224.932 22.3837 225.009 21.7504 225.009C21.1237 225.009 20.6404 224.932 20.3004 224.779C19.9604 224.626 19.7904 224.326 19.7904 223.879C19.7904 223.439 19.9604 223.146 20.3004 222.999C20.6337 222.846 21.117 222.769 21.7504 222.769ZM17.9804 214.653C17.9804 214.16 18.067 213.737 18.2404 213.383C18.407 213.03 18.6404 212.763 18.9404 212.583C19.2337 212.397 19.567 212.303 19.9404 212.303C20.4004 212.303 20.7704 212.423 21.0504 212.663C21.3304 212.897 21.507 213.19 21.5804 213.543L21.6304 213.543C21.9237 212.63 22.4937 212.173 23.3404 212.173C23.747 212.173 24.1104 212.267 24.4304 212.453C24.7437 212.64 24.9904 212.913 25.1704 213.273C25.3437 213.627 25.4304 214.053 25.4304 214.553C25.4304 215.367 25.2304 216.013 24.8304 216.493C24.4304 216.967 23.8204 217.223 23.0004 217.263L23.0004 215.593C23.3137 215.58 23.5604 215.493 23.7404 215.333C23.9204 215.173 24.0104 214.94 24.0104 214.633C24.0104 214.387 23.937 214.193 23.7904 214.053C23.6437 213.907 23.4537 213.833 23.2204 213.833C22.6404 213.833 22.3504 214.253 22.3504 215.093L22.3504 215.413L20.9604 215.413L20.9604 215.103C20.9737 214.35 20.7037 213.973 20.1504 213.973C19.9104 213.973 19.727 214.04 19.6004 214.173C19.467 214.3 19.4004 214.473 19.4004 214.693C19.4004 214.933 19.4837 215.123 19.6504 215.263C19.8104 215.403 20.027 215.483 20.3004 215.503L20.3004 217.173C19.5537 217.14 18.9804 216.907 18.5804 216.473C18.1804 216.04 17.9804 215.433 17.9804 214.653Z" fill="#1F242E"/>
<path d="M18.2904 180.439L19.6504 180.439L19.6504 182.359L25.3604 182.359L25.3604 184.079L19.6504 184.079L19.6504 185.979L18.2904 185.979L18.2904 180.439ZM25.3604 173.088L22.6904 174.618L22.6904 175.008L25.3604 175.008L25.3604 176.718L18.2904 176.718L18.2904 173.798C18.2904 173.238 18.387 172.765 18.5804 172.378C18.7737 171.991 19.0404 171.701 19.3804 171.508C19.7137 171.315 20.097 171.218 20.5304 171.218C21.0437 171.218 21.4804 171.361 21.8404 171.648C22.2004 171.928 22.447 172.338 22.5804 172.878L25.3604 171.198L25.3604 173.088ZM21.5204 175.008L21.5204 173.948C21.5204 173.608 21.447 173.358 21.3004 173.198C21.147 173.038 20.9237 172.958 20.6304 172.958C20.3504 172.958 20.1304 173.041 19.9704 173.208C19.8104 173.368 19.7304 173.615 19.7304 173.948L19.7304 175.008L21.5204 175.008ZM19.6504 165.651L21.1304 165.651L21.1304 163.261L22.4204 163.261L22.4204 165.651L23.9904 165.651L23.9904 162.961L25.3604 162.961L25.3604 167.361L18.2904 167.361L18.2904 162.961L19.6504 162.961L19.6504 165.651ZM25.3604 152.71L25.3604 154.42L21.0204 157.28L25.3604 157.28L25.3604 158.99L18.2904 158.99L18.2904 157.28L22.6703 154.42L18.2904 154.42L18.2903 152.71L25.3604 152.71ZM21.8103 142.169C22.5037 142.169 23.1203 142.319 23.6603 142.619C24.1937 142.912 24.6103 143.339 24.9103 143.899C25.2103 144.452 25.3603 145.105 25.3603 145.859L25.3603 148.529L18.2903 148.529L18.2903 145.859C18.2903 145.099 18.437 144.442 18.7303 143.889C19.0237 143.335 19.437 142.912 19.9703 142.619C20.5037 142.319 21.117 142.169 21.8103 142.169ZM23.8303 146.009C23.8303 145.342 23.6537 144.825 23.3003 144.459C22.947 144.085 22.4503 143.899 21.8103 143.899C21.1703 143.899 20.6737 144.085 20.3203 144.459C19.967 144.825 19.7903 145.342 19.7903 146.009L19.7903 146.819L23.8303 146.819L23.8303 146.009ZM18.2903 136.485L25.3603 136.485L25.3603 138.195L18.2903 138.195L18.2903 136.485ZM25.3603 126.024L25.3603 127.734L21.0203 130.594L25.3603 130.594L25.3603 132.304L18.2903 132.304L18.2903 130.594L22.6703 127.734L18.2903 127.734L18.2903 126.024L25.3603 126.024ZM18.2203 118.533C18.2203 117.646 18.437 116.916 18.8703 116.343C19.3037 115.77 19.8903 115.413 20.6303 115.273L20.6303 117.083C20.377 117.203 20.177 117.386 20.0303 117.633C19.877 117.88 19.8003 118.176 19.8003 118.523C19.8003 119.063 19.9837 119.496 20.3503 119.823C20.7103 120.15 21.2003 120.313 21.8203 120.313C22.4937 120.313 23.0103 120.143 23.3703 119.803C23.7303 119.456 23.9103 118.966 23.9103 118.333C23.9103 117.926 23.8003 117.57 23.5803 117.263C23.3537 116.956 23.0337 116.74 22.6203 116.613L22.6203 118.773L21.3903 118.773L21.3903 115.183L23.0803 115.183C23.4937 115.316 23.877 115.53 24.2303 115.823C24.5837 116.116 24.8703 116.493 25.0903 116.953C25.3103 117.406 25.4203 117.926 25.4203 118.513C25.4203 119.226 25.2703 119.85 24.9703 120.383C24.6637 120.916 24.237 121.33 23.6903 121.623C23.1437 121.91 22.5203 122.053 21.8203 122.053C21.1203 122.053 20.497 121.91 19.9503 121.623C19.4037 121.33 18.9803 120.92 18.6803 120.393C18.3737 119.86 18.2203 119.24 18.2203 118.533Z" fill="#212631"/>
<path d="M27.9971 297.438L27.0226 296.464L22.6861 300.8L22.6861 261.562L21.308 261.562L21.308 300.8L16.9716 296.464L15.9971 297.438L21.9971 303.439L27.9971 297.438Z" fill="#1F242E"/>
<rect x="21" width="2" height="100" fill="#1F242E"/>
</svg>
