<svg width="87" height="199" viewBox="0 0 87 199" fill="none" xmlns="http://www.w3.org/2000/svg">
<path d="M0.61001 197.739C0.690119 197.737 0.769704 197.752 0.84422 197.781C0.918736 197.811 0.986723 197.854 1.0443 197.91C1.10187 197.966 1.14791 198.032 1.17977 198.106C1.21164 198.179 1.22871 198.258 1.23001 198.339C1.23133 198.419 1.21686 198.498 1.18743 198.573C1.15799 198.647 1.11416 198.715 1.05844 198.773C1.00272 198.83 0.93621 198.876 0.862699 198.908C0.789188 198.94 0.710119 198.957 0.63001 198.959C0.54955 198.961 0.469373 198.948 0.394253 198.919C0.319133 198.89 0.250608 198.846 0.192757 198.79C0.134906 198.734 0.0889132 198.667 0.0575175 198.593C0.0261217 198.519 0.00996512 198.439 0.0100099 198.359C0.0100099 198.199 0.073224 198.047 0.185746 197.934C0.298268 197.822 0.45088 197.759 0.61001 197.759" fill="#002447"/>
<path d="M0.61001 183.689C0.728679 183.689 0.844682 183.724 0.943352 183.79C1.04202 183.856 1.11892 183.949 1.16434 184.059C1.20975 184.169 1.22163 184.289 1.19848 184.406C1.17533 184.522 1.11819 184.629 1.03427 184.713C0.950362 184.797 0.843453 184.854 0.727064 184.877C0.610675 184.9 0.490035 184.888 0.3804 184.843C0.270764 184.797 0.177057 184.721 0.111128 184.622C0.0451992 184.523 0.0100098 184.407 0.0100098 184.289C0.0100098 184.129 0.0732239 183.977 0.185746 183.864C0.298268 183.752 0.45088 183.689 0.61001 183.689Z" fill="#002447"/>
<path d="M0.61001 169.629C0.728679 169.629 0.844682 169.664 0.943352 169.73C1.04202 169.796 1.11892 169.889 1.16434 169.999C1.20975 170.109 1.22163 170.229 1.19848 170.346C1.17533 170.462 1.11819 170.569 1.03427 170.653C0.950362 170.737 0.843453 170.794 0.727064 170.817C0.610675 170.84 0.490035 170.828 0.3804 170.783C0.270764 170.737 0.177057 170.661 0.111128 170.562C0.0451992 170.463 0.0100098 170.347 0.0100098 170.229C0.0100098 170.069 0.0732239 169.917 0.185746 169.804C0.298268 169.692 0.45088 169.629 0.61001 169.629Z" fill="#002447"/>
<path d="M0.61001 155.579C0.728679 155.579 0.844682 155.614 0.943352 155.68C1.04202 155.746 1.11892 155.839 1.16434 155.949C1.20975 156.059 1.22163 156.179 1.19848 156.296C1.17533 156.412 1.11819 156.519 1.03427 156.603C0.950362 156.687 0.843453 156.744 0.727064 156.767C0.610675 156.79 0.490035 156.778 0.3804 156.733C0.270764 156.687 0.177057 156.611 0.111128 156.512C0.0451992 156.413 0.0100098 156.297 0.0100098 156.179C0.0100098 156.019 0.0732239 155.867 0.185746 155.754C0.298268 155.642 0.45088 155.579 0.61001 155.579Z" fill="#002447"/>
<path d="M0.61 141.519C0.771782 141.519 0.926938 141.583 1.04134 141.697C1.15573 141.812 1.22 141.967 1.22 142.129C1.22 142.29 1.15573 142.445 1.04134 142.56C0.926938 142.674 0.771782 142.739 0.61 142.739C0.448218 142.739 0.293062 142.674 0.178665 142.56C0.0642677 142.445 0 142.29 0 142.129C0 141.967 0.0642677 141.812 0.178665 141.697C0.293062 141.583 0.448218 141.519 0.61 141.519Z" fill="#002447"/>
<path d="M0.61 127.469C0.690107 127.469 0.769428 127.484 0.843437 127.515C0.917446 127.546 0.984692 127.591 1.04134 127.647C1.09798 127.704 1.14291 127.771 1.17357 127.845C1.20422 127.919 1.22 127.998 1.22 128.079C1.22 128.159 1.20422 128.238 1.17357 128.312C1.14291 128.386 1.09798 128.453 1.04134 128.51C0.984692 128.567 0.917446 128.611 0.843437 128.642C0.769428 128.673 0.690107 128.689 0.61 128.689C0.529894 128.689 0.450572 128.673 0.376563 128.642C0.302555 128.611 0.235309 128.567 0.178665 128.51C0.122021 128.453 0.0770889 128.386 0.0464335 128.312C0.0157781 128.238 0 128.159 0 128.079C0 127.998 0.0157781 127.919 0.0464335 127.845C0.0770889 127.771 0.122021 127.704 0.178665 127.647C0.235309 127.591 0.302555 127.546 0.376563 127.515C0.450572 127.484 0.529894 127.469 0.61 127.469Z" fill="#002447"/>
<path d="M0.61 113.419C0.771782 113.419 0.926938 113.483 1.04134 113.597C1.15573 113.712 1.22 113.867 1.22 114.029C1.22 114.19 1.15573 114.345 1.04134 114.46C0.926938 114.574 0.771782 114.639 0.61 114.639C0.448218 114.639 0.293062 114.574 0.178665 114.46C0.0642677 114.345 0 114.19 0 114.029C0 113.867 0.0642677 113.712 0.178665 113.597C0.293062 113.483 0.448218 113.419 0.61 113.419Z" fill="#002447"/>
<path d="M0.61 99.3685C0.690109 99.3672 0.769695 99.3817 0.84421 99.4111C0.918726 99.4406 0.986713 99.4844 1.04429 99.5401C1.10186 99.5958 1.1479 99.6623 1.17976 99.7358C1.21163 99.8094 1.2287 99.8884 1.23 99.9685C1.23132 100.049 1.21685 100.128 1.18742 100.203C1.15798 100.277 1.11415 100.345 1.05843 100.403C1.00271 100.46 0.9362 100.506 0.862689 100.538C0.789178 100.57 0.71011 100.587 0.63 100.589C0.549554 100.593 0.46912 100.58 0.39349 100.553C0.317861 100.525 0.248586 100.482 0.189795 100.427C0.131004 100.372 0.083901 100.306 0.0512933 100.232C0.0186856 100.159 0.00124122 100.079 0 99.9985H0C0.00248724 99.8392 0.0661955 99.687 0.17791 99.5734C0.289625 99.4599 0.440772 99.3937 0.6 99.3885" fill="#002447"/>
<path d="M0.61001 85.3185C0.728679 85.3185 0.844682 85.3537 0.943352 85.4197C1.04202 85.4856 1.11892 85.5793 1.16434 85.6889C1.20975 85.7986 1.22163 85.9192 1.19848 86.0356C1.17533 86.152 1.11819 86.2589 1.03427 86.3428C0.950362 86.4267 0.843453 86.4839 0.727064 86.507C0.610675 86.5302 0.490035 86.5183 0.3804 86.4729C0.270764 86.4274 0.177057 86.3505 0.111128 86.2519C0.0451992 86.1532 0.0100098 86.0372 0.0100098 85.9185C0.0100098 85.7594 0.0732239 85.6068 0.185746 85.4943C0.298268 85.3817 0.45088 85.3185 0.61001 85.3185Z" fill="#002447"/>
<path d="M0.61001 71.2685C0.690119 71.2672 0.769704 71.2817 0.84422 71.3111C0.918736 71.3406 0.986723 71.3844 1.0443 71.4401C1.10187 71.4958 1.14791 71.5623 1.17977 71.6358C1.21164 71.7094 1.22871 71.7884 1.23001 71.8685C1.23133 71.9486 1.21686 72.0282 1.18743 72.1027C1.15799 72.1773 1.11416 72.2453 1.05844 72.3028C1.00272 72.3604 0.93621 72.4064 0.862699 72.4383C0.789188 72.4702 0.710119 72.4872 0.63001 72.4885C0.54955 72.4912 0.469373 72.4777 0.394253 72.4487C0.319133 72.4198 0.250608 72.376 0.192757 72.32C0.134906 72.264 0.0889132 72.197 0.0575175 72.1229C0.0261217 72.0487 0.00996512 71.969 0.0100099 71.8885C0.0100099 71.7294 0.073224 71.5768 0.185746 71.4643C0.298268 71.3517 0.45088 71.2885 0.61001 71.2885" fill="#002447"/>
<path d="M0.61001 57.2185C0.728679 57.2185 0.844682 57.2537 0.943352 57.3197C1.04202 57.3856 1.11892 57.4793 1.16434 57.5889C1.20975 57.6986 1.22163 57.8192 1.19848 57.9356C1.17533 58.052 1.11819 58.1589 1.03427 58.2428C0.950362 58.3267 0.843453 58.3839 0.727064 58.407C0.610675 58.4302 0.490035 58.4183 0.3804 58.3729C0.270764 58.3275 0.177057 58.2505 0.111128 58.1519C0.0451992 58.0532 0.0100098 57.9372 0.0100098 57.8185C0.0100098 57.6594 0.0732239 57.5068 0.185746 57.3943C0.298268 57.2818 0.45088 57.2185 0.61001 57.2185Z" fill="#002447"/>
<path d="M0.61001 43.1585C0.728679 43.1585 0.844682 43.1937 0.943352 43.2597C1.04202 43.3256 1.11892 43.4193 1.16434 43.5289C1.20975 43.6386 1.22163 43.7592 1.19848 43.8756C1.17533 43.992 1.11819 44.0989 1.03427 44.1828C0.950362 44.2667 0.843453 44.3239 0.727064 44.347C0.610675 44.3702 0.490035 44.3583 0.3804 44.3129C0.270764 44.2675 0.177057 44.1906 0.111128 44.0919C0.0451992 43.9932 0.0100098 43.8772 0.0100098 43.7585C0.0100098 43.5994 0.0732239 43.4468 0.185746 43.3343C0.298268 43.2218 0.45088 43.1585 0.61001 43.1585Z" fill="#002447"/>
<path d="M0.61001 29.1085C0.728679 29.1085 0.844682 29.1437 0.943352 29.2097C1.04202 29.2756 1.11892 29.3693 1.16434 29.4789C1.20975 29.5886 1.22163 29.7092 1.19848 29.8256C1.17533 29.942 1.11819 30.0489 1.03427 30.1328C0.950362 30.2167 0.843453 30.2739 0.727064 30.297C0.610675 30.3202 0.490035 30.3083 0.3804 30.2629C0.270764 30.2175 0.177057 30.1405 0.111128 30.0419C0.0451992 29.9432 0.0100098 29.8272 0.0100098 29.7085C0.0100098 29.5494 0.0732239 29.3968 0.185746 29.2843C0.298268 29.1717 0.45088 29.1085 0.61001 29.1085Z" fill="#002447"/>
<path d="M0.61 15.0485C0.771782 15.0485 0.926938 15.1128 1.04134 15.2272C1.15573 15.3416 1.22 15.4968 1.22 15.6585C1.22 15.8203 1.15573 15.9755 1.04134 16.0899C0.926938 16.2043 0.771782 16.2685 0.61 16.2685C0.448218 16.2685 0.293062 16.2043 0.178665 16.0899C0.0642677 15.9755 0 15.8203 0 15.6585C0 15.4968 0.0642677 15.3416 0.178665 15.2272C0.293062 15.1128 0.448218 15.0485 0.61 15.0485Z" fill="#002447"/>
<path d="M0.61 0.998535C0.771782 0.998535 0.926938 1.0628 1.04134 1.1772C1.15573 1.2916 1.22 1.44675 1.22 1.60854C1.22 1.77032 1.15573 1.92547 1.04134 2.03987C0.926938 2.15427 0.771782 2.21854 0.61 2.21854C0.448218 2.21854 0.293062 2.15427 0.178665 2.03987C0.0642677 1.92547 0 1.77032 0 1.60854C0 1.44675 0.0642677 1.2916 0.178665 1.1772C0.293062 1.0628 0.448218 0.998535 0.61 0.998535Z" fill="#002447"/>
<path d="M13.2699 197.739C13.35 197.737 13.4296 197.752 13.5041 197.781C13.5786 197.811 13.6466 197.854 13.7042 197.91C13.7618 197.966 13.8078 198.032 13.8397 198.106C13.8715 198.179 13.8886 198.258 13.8899 198.339C13.8912 198.419 13.8768 198.498 13.8473 198.573C13.8179 198.647 13.7741 198.715 13.7184 198.773C13.6626 198.83 13.5961 198.876 13.5226 198.908C13.4491 198.94 13.37 198.957 13.2899 198.959C13.2098 198.96 13.1302 198.945 13.0557 198.916C12.9812 198.887 12.9132 198.843 12.8556 198.787C12.7981 198.731 12.752 198.665 12.7202 198.591C12.6883 198.518 12.6712 198.439 12.6699 198.359C12.6699 198.199 12.7331 198.047 12.8457 197.934C12.9582 197.822 13.1108 197.759 13.2699 197.759" fill="#002447"/>
<path d="M13.2699 183.679C13.3906 183.679 13.5085 183.714 13.6088 183.781C13.7091 183.848 13.7873 183.944 13.8335 184.055C13.8796 184.167 13.8917 184.289 13.8682 184.408C13.8447 184.526 13.7866 184.635 13.7012 184.72C13.6159 184.805 13.5072 184.863 13.3889 184.887C13.2706 184.91 13.1479 184.898 13.0365 184.852C12.925 184.806 12.8297 184.728 12.7627 184.627C12.6957 184.527 12.6599 184.409 12.6599 184.289C12.6599 184.127 12.7242 183.972 12.8386 183.857C12.953 183.743 13.1081 183.679 13.2699 183.679Z" fill="#002447"/>
<path d="M13.2699 169.619C13.3906 169.619 13.5085 169.654 13.6088 169.721C13.7091 169.788 13.7873 169.884 13.8335 169.995C13.8796 170.107 13.8917 170.229 13.8682 170.348C13.8447 170.466 13.7866 170.575 13.7012 170.66C13.6159 170.745 13.5072 170.803 13.3889 170.827C13.2706 170.85 13.1479 170.838 13.0365 170.792C12.925 170.746 12.8297 170.668 12.7627 170.567C12.6957 170.467 12.6599 170.349 12.6599 170.229C12.6599 170.067 12.7242 169.912 12.8386 169.797C12.953 169.683 13.1081 169.619 13.2699 169.619Z" fill="#002447"/>
<path d="M13.2699 155.569C13.3906 155.569 13.5085 155.604 13.6088 155.671C13.7091 155.738 13.7873 155.834 13.8335 155.945C13.8796 156.057 13.8917 156.179 13.8682 156.298C13.8447 156.416 13.7866 156.525 13.7012 156.61C13.6159 156.695 13.5072 156.753 13.3889 156.777C13.2706 156.8 13.1479 156.788 13.0365 156.742C12.925 156.696 12.8297 156.618 12.7627 156.517C12.6957 156.417 12.6599 156.299 12.6599 156.179C12.6599 156.017 12.7242 155.862 12.8386 155.747C12.953 155.633 13.1081 155.569 13.2699 155.569Z" fill="#002447"/>
<path d="M13.2699 141.519C13.3906 141.519 13.5085 141.554 13.6088 141.621C13.7091 141.688 13.7873 141.784 13.8335 141.895C13.8796 142.007 13.8917 142.129 13.8682 142.248C13.8447 142.366 13.7866 142.475 13.7012 142.56C13.6159 142.645 13.5072 142.703 13.3889 142.727C13.2706 142.75 13.1479 142.738 13.0365 142.692C12.925 142.646 12.8297 142.568 12.7627 142.467C12.6957 142.367 12.6599 142.249 12.6599 142.129C12.6599 141.967 12.7242 141.812 12.8386 141.697C12.953 141.583 13.1081 141.519 13.2699 141.519Z" fill="#002447"/>
<path d="M13.2699 127.469C13.3906 127.469 13.5085 127.504 13.6088 127.571C13.7091 127.638 13.7873 127.734 13.8335 127.845C13.8796 127.957 13.8917 128.079 13.8682 128.198C13.8447 128.316 13.7866 128.425 13.7012 128.51C13.6159 128.595 13.5072 128.653 13.3889 128.677C13.2706 128.7 13.1479 128.688 13.0365 128.642C12.925 128.596 12.8297 128.518 12.7627 128.417C12.6957 128.317 12.6599 128.199 12.6599 128.079C12.6599 127.917 12.7242 127.762 12.8386 127.647C12.953 127.533 13.1081 127.469 13.2699 127.469Z" fill="#002447"/>
<path d="M13.2699 113.419C13.3906 113.419 13.5085 113.454 13.6088 113.521C13.7091 113.588 13.7873 113.684 13.8335 113.795C13.8796 113.907 13.8917 114.029 13.8682 114.148C13.8447 114.266 13.7866 114.375 13.7012 114.46C13.6159 114.545 13.5072 114.603 13.3889 114.627C13.2706 114.65 13.1479 114.638 13.0365 114.592C12.925 114.546 12.8297 114.468 12.7627 114.367C12.6957 114.267 12.6599 114.149 12.6599 114.029C12.6599 113.867 12.7242 113.712 12.8386 113.597C12.953 113.483 13.1081 113.419 13.2699 113.419Z" fill="#002447"/>
<path d="M13.2699 99.3685C13.35 99.3672 13.4296 99.3817 13.5041 99.4111C13.5786 99.4406 13.6466 99.4844 13.7042 99.5401C13.7618 99.5958 13.8078 99.6623 13.8397 99.7358C13.8715 99.8094 13.8886 99.8884 13.8899 99.9685C13.8912 100.049 13.8768 100.128 13.8473 100.203C13.8179 100.277 13.7741 100.345 13.7184 100.403C13.6626 100.46 13.5961 100.506 13.5226 100.538C13.4491 100.57 13.37 100.587 13.2899 100.589C13.2098 100.59 13.1302 100.575 13.0557 100.546C12.9812 100.517 12.9132 100.473 12.8556 100.417C12.7981 100.361 12.752 100.295 12.7202 100.221C12.6883 100.148 12.6712 100.069 12.6699 99.9885C12.6724 99.8292 12.7361 99.677 12.8478 99.5634C12.9595 99.4499 13.1107 99.3837 13.2699 99.3785" fill="#002447"/>
<path d="M13.2699 85.3185C13.3886 85.3185 13.5046 85.3537 13.6033 85.4197C13.7019 85.4856 13.7788 85.5793 13.8242 85.6889C13.8697 85.7986 13.8815 85.9192 13.8584 86.0356C13.8352 86.152 13.7781 86.2589 13.6942 86.3428C13.6103 86.4267 13.5034 86.4839 13.387 86.507C13.2706 86.5302 13.1499 86.5183 13.0403 86.4729C12.9307 86.4274 12.837 86.3505 12.771 86.2519C12.7051 86.1532 12.6699 86.0372 12.6699 85.9185C12.6699 85.7594 12.7331 85.6068 12.8457 85.4943C12.9582 85.3817 13.1108 85.3185 13.2699 85.3185Z" fill="#002447"/>
<path d="M13.2699 71.2685C13.35 71.2672 13.4296 71.2817 13.5041 71.3111C13.5786 71.3406 13.6466 71.3844 13.7042 71.4401C13.7618 71.4958 13.8078 71.5623 13.8397 71.6358C13.8715 71.7094 13.8886 71.7884 13.8899 71.8685C13.8912 71.9486 13.8768 72.0282 13.8473 72.1027C13.8179 72.1773 13.7741 72.2453 13.7184 72.3028C13.6626 72.3604 13.5961 72.4064 13.5226 72.4383C13.4491 72.4702 13.37 72.4872 13.2899 72.4885C13.2098 72.4899 13.1302 72.4754 13.0557 72.446C12.9812 72.4165 12.9132 72.3727 12.8556 72.317C12.7981 72.2612 12.752 72.1947 12.7202 72.1212C12.6883 72.0477 12.6712 71.9686 12.6699 71.8885C12.6699 71.7294 12.7331 71.5768 12.8457 71.4643C12.9582 71.3517 13.1108 71.2885 13.2699 71.2885" fill="#002447"/>
<path d="M13.2699 57.2085C13.3906 57.2085 13.5085 57.2443 13.6088 57.3113C13.7091 57.3784 13.7873 57.4736 13.8335 57.5851C13.8796 57.6966 13.8917 57.8192 13.8682 57.9375C13.8447 58.0559 13.7866 58.1646 13.7012 58.2499C13.6159 58.3352 13.5072 58.3933 13.3889 58.4168C13.2706 58.4403 13.1479 58.4283 13.0365 58.3821C12.925 58.3359 12.8297 58.2577 12.7627 58.1574C12.6957 58.0571 12.6599 57.9392 12.6599 57.8185C12.6599 57.6568 12.7242 57.5016 12.8386 57.3872C12.953 57.2728 13.1081 57.2085 13.2699 57.2085Z" fill="#002447"/>
<path d="M13.2699 43.1485C13.3906 43.1485 13.5085 43.1843 13.6088 43.2513C13.7091 43.3184 13.7873 43.4136 13.8335 43.5251C13.8796 43.6366 13.8917 43.7592 13.8682 43.8775C13.8447 43.9959 13.7866 44.1046 13.7012 44.1899C13.6159 44.2752 13.5072 44.3333 13.3889 44.3568C13.2706 44.3803 13.1479 44.3683 13.0365 44.3221C12.925 44.2759 12.8297 44.1977 12.7627 44.0974C12.6957 43.9971 12.6599 43.8792 12.6599 43.7585C12.6599 43.5967 12.7242 43.4416 12.8386 43.3272C12.953 43.2128 13.1081 43.1485 13.2699 43.1485Z" fill="#002447"/>
<path d="M13.2699 29.0985C13.3906 29.0985 13.5085 29.1343 13.6088 29.2013C13.7091 29.2684 13.7873 29.3636 13.8335 29.4751C13.8796 29.5866 13.8917 29.7092 13.8682 29.8275C13.8447 29.9459 13.7866 30.0546 13.7012 30.1399C13.6159 30.2252 13.5072 30.2833 13.3889 30.3068C13.2706 30.3304 13.1479 30.3183 13.0365 30.2721C12.925 30.2259 12.8297 30.1478 12.7627 30.0474C12.6957 29.9471 12.6599 29.8292 12.6599 29.7085C12.6599 29.5468 12.7242 29.3916 12.8386 29.2772C12.953 29.1628 13.1081 29.0985 13.2699 29.0985Z" fill="#002447"/>
<path d="M13.2699 15.0485C13.3906 15.0485 13.5085 15.0843 13.6088 15.1513C13.7091 15.2184 13.7873 15.3136 13.8335 15.4251C13.8796 15.5366 13.8917 15.6592 13.8682 15.7775C13.8447 15.8959 13.7866 16.0046 13.7012 16.0899C13.6159 16.1752 13.5072 16.2333 13.3889 16.2568C13.2706 16.2804 13.1479 16.2683 13.0365 16.2221C12.925 16.1759 12.8297 16.0977 12.7627 15.9974C12.6957 15.8971 12.6599 15.7792 12.6599 15.6585C12.6599 15.4968 12.7242 15.3416 12.8386 15.2272C12.953 15.1128 13.1081 15.0485 13.2699 15.0485Z" fill="#002447"/>
<path d="M13.2699 0.998535C13.4317 0.998535 13.5869 1.0628 13.7012 1.1772C13.8156 1.2916 13.8799 1.44675 13.8799 1.60854C13.8799 1.77032 13.8156 1.92547 13.7012 2.03987C13.5869 2.15427 13.4317 2.21854 13.2699 2.21854C13.1081 2.21854 12.953 2.15427 12.8386 2.03987C12.7242 1.92547 12.6599 1.77032 12.6599 1.60854C12.6599 1.44675 12.7242 1.2916 12.8386 1.1772C12.953 1.0628 13.1081 0.998535 13.2699 0.998535Z" fill="#002447"/>
<path d="M24.2101 197.739C24.3307 197.739 24.4487 197.774 24.549 197.841C24.6493 197.908 24.7275 198.004 24.7737 198.115C24.8198 198.227 24.8319 198.349 24.8084 198.468C24.7848 198.586 24.7267 198.695 24.6414 198.78C24.5561 198.865 24.4474 198.923 24.3291 198.947C24.2108 198.97 24.0881 198.958 23.9767 198.912C23.8652 198.866 23.7699 198.788 23.7029 198.687C23.6359 198.587 23.6001 198.469 23.6001 198.349C23.6001 198.189 23.6633 198.037 23.7758 197.924C23.8884 197.812 24.041 197.749 24.2001 197.749L24.2101 197.739Z" fill="#002447"/>
<path d="M24.2001 183.689C24.3188 183.689 24.4348 183.724 24.5334 183.79C24.6321 183.856 24.709 183.949 24.7544 184.059C24.7998 184.169 24.8117 184.289 24.7886 184.406C24.7654 184.522 24.7083 184.629 24.6244 184.713C24.5404 184.797 24.4335 184.854 24.3172 184.877C24.2008 184.9 24.0801 184.888 23.9705 184.843C23.8609 184.797 23.7671 184.721 23.7012 184.622C23.6353 184.523 23.6001 184.407 23.6001 184.289C23.6001 184.21 23.6156 184.132 23.6458 184.059C23.6759 183.986 23.7201 183.92 23.7758 183.864C23.8315 183.809 23.8977 183.764 23.9705 183.734C24.0433 183.704 24.1213 183.689 24.2001 183.689Z" fill="#002447"/>
<path d="M24.2001 169.629C24.3188 169.629 24.4348 169.664 24.5334 169.73C24.6321 169.796 24.709 169.889 24.7544 169.999C24.7998 170.109 24.8117 170.229 24.7886 170.346C24.7654 170.462 24.7083 170.569 24.6244 170.653C24.5404 170.737 24.4335 170.794 24.3172 170.817C24.2008 170.84 24.0801 170.828 23.9705 170.783C23.8609 170.737 23.7671 170.661 23.7012 170.562C23.6353 170.463 23.6001 170.347 23.6001 170.229C23.6001 170.15 23.6156 170.072 23.6458 169.999C23.6759 169.926 23.7201 169.86 23.7758 169.804C23.8315 169.749 23.8977 169.704 23.9705 169.674C24.0433 169.644 24.1213 169.629 24.2001 169.629Z" fill="#002447"/>
<path d="M24.2001 155.579C24.3188 155.579 24.4348 155.614 24.5334 155.68C24.6321 155.746 24.709 155.839 24.7544 155.949C24.7998 156.059 24.8117 156.179 24.7886 156.296C24.7654 156.412 24.7083 156.519 24.6244 156.603C24.5404 156.687 24.4335 156.744 24.3172 156.767C24.2008 156.79 24.0801 156.778 23.9705 156.733C23.8609 156.687 23.7671 156.611 23.7012 156.512C23.6353 156.413 23.6001 156.297 23.6001 156.179C23.6001 156.1 23.6156 156.022 23.6458 155.949C23.6759 155.876 23.7201 155.81 23.7758 155.754C23.8315 155.699 23.8977 155.654 23.9705 155.624C24.0433 155.594 24.1213 155.579 24.2001 155.579Z" fill="#002447"/>
<path d="M24.2001 141.519C24.3207 141.519 24.4387 141.554 24.539 141.621C24.6393 141.688 24.7175 141.784 24.7637 141.895C24.8098 142.007 24.8219 142.129 24.7984 142.248C24.7748 142.366 24.7167 142.475 24.6314 142.56C24.5461 142.645 24.4374 142.703 24.3191 142.727C24.2008 142.75 24.0781 142.738 23.9667 142.692C23.8552 142.646 23.7599 142.568 23.6929 142.467C23.6259 142.367 23.5901 142.249 23.5901 142.129C23.5901 141.967 23.6544 141.812 23.7688 141.697C23.8832 141.583 24.0383 141.519 24.2001 141.519Z" fill="#002447"/>
<path d="M24.2001 127.469C24.3207 127.469 24.4387 127.504 24.539 127.571C24.6393 127.638 24.7175 127.734 24.7637 127.845C24.8098 127.957 24.8219 128.079 24.7984 128.198C24.7748 128.316 24.7167 128.425 24.6314 128.51C24.5461 128.595 24.4374 128.653 24.3191 128.677C24.2008 128.7 24.0781 128.688 23.9667 128.642C23.8552 128.596 23.7599 128.518 23.6929 128.417C23.6259 128.317 23.5901 128.199 23.5901 128.079C23.5901 127.917 23.6544 127.762 23.7688 127.647C23.8832 127.533 24.0383 127.469 24.2001 127.469Z" fill="#002447"/>
<path d="M24.2001 113.419C24.3207 113.419 24.4387 113.454 24.539 113.521C24.6393 113.588 24.7175 113.684 24.7637 113.795C24.8098 113.907 24.8219 114.029 24.7984 114.148C24.7748 114.266 24.7167 114.375 24.6314 114.46C24.5461 114.545 24.4374 114.603 24.3191 114.627C24.2008 114.65 24.0781 114.638 23.9667 114.592C23.8552 114.546 23.7599 114.468 23.6929 114.367C23.6259 114.267 23.5901 114.149 23.5901 114.029C23.5901 113.867 23.6544 113.712 23.7688 113.597C23.8832 113.483 24.0383 113.419 24.2001 113.419Z" fill="#002447"/>
<path d="M24.2101 99.3685C24.3307 99.3685 24.4487 99.4043 24.549 99.4713C24.6493 99.5384 24.7275 99.6336 24.7737 99.7451C24.8198 99.8566 24.8319 99.9792 24.8084 100.098C24.7848 100.216 24.7267 100.325 24.6414 100.41C24.5561 100.495 24.4474 100.553 24.3291 100.577C24.2108 100.6 24.0881 100.588 23.9767 100.542C23.8652 100.496 23.7699 100.418 23.7029 100.317C23.6359 100.217 23.6001 100.099 23.6001 99.9785C23.6001 99.8168 23.6644 99.6616 23.7788 99.5472C23.8932 99.4328 24.0483 99.3685 24.2101 99.3685Z" fill="#002447"/>
<path d="M24.2001 85.3185C24.3188 85.3185 24.4348 85.3537 24.5334 85.4197C24.6321 85.4856 24.709 85.5793 24.7544 85.6889C24.7998 85.7986 24.8117 85.9192 24.7886 86.0356C24.7654 86.152 24.7083 86.2589 24.6244 86.3428C24.5404 86.4267 24.4335 86.4839 24.3172 86.507C24.2008 86.5302 24.0801 86.5183 23.9705 86.4729C23.8609 86.4274 23.7671 86.3505 23.7012 86.2519C23.6353 86.1532 23.6001 86.0372 23.6001 85.9185C23.6001 85.8397 23.6156 85.7617 23.6458 85.6889C23.6759 85.6161 23.7201 85.55 23.7758 85.4943C23.8315 85.4386 23.8977 85.3944 23.9705 85.3642C24.0433 85.3341 24.1213 85.3185 24.2001 85.3185Z" fill="#002447"/>
<path d="M24.2101 71.2685C24.3307 71.2685 24.4487 71.3043 24.549 71.3713C24.6493 71.4384 24.7275 71.5336 24.7737 71.6451C24.8198 71.7566 24.8319 71.8792 24.8084 71.9975C24.7848 72.1159 24.7267 72.2246 24.6414 72.3099C24.5561 72.3952 24.4474 72.4533 24.3291 72.4768C24.2108 72.5004 24.0881 72.4883 23.9767 72.4421C23.8652 72.3959 23.7699 72.3177 23.7029 72.2174C23.6359 72.1171 23.6001 71.9992 23.6001 71.8785C23.6001 71.7194 23.6633 71.5668 23.7758 71.4543C23.8884 71.3417 24.041 71.2785 24.2001 71.2785L24.2101 71.2685Z" fill="#002447"/>
<path d="M24.2001 57.2185C24.3188 57.2185 24.4348 57.2537 24.5334 57.3197C24.6321 57.3856 24.709 57.4793 24.7544 57.5889C24.7998 57.6986 24.8117 57.8192 24.7886 57.9356C24.7654 58.052 24.7083 58.1589 24.6244 58.2428C24.5404 58.3267 24.4335 58.3839 24.3172 58.407C24.2008 58.4302 24.0801 58.4183 23.9705 58.3729C23.8609 58.3275 23.7671 58.2505 23.7012 58.1519C23.6353 58.0532 23.6001 57.9372 23.6001 57.8185C23.6001 57.7397 23.6156 57.6617 23.6458 57.5889C23.6759 57.5161 23.7201 57.45 23.7758 57.3943C23.8315 57.3386 23.8977 57.2944 23.9705 57.2642C24.0433 57.2341 24.1213 57.2185 24.2001 57.2185Z" fill="#002447"/>
<path d="M24.2001 43.1585C24.3188 43.1585 24.4348 43.1937 24.5334 43.2597C24.6321 43.3256 24.709 43.4193 24.7544 43.5289C24.7998 43.6386 24.8117 43.7592 24.7886 43.8756C24.7654 43.992 24.7083 44.0989 24.6244 44.1828C24.5404 44.2667 24.4335 44.3239 24.3172 44.347C24.2008 44.3702 24.0801 44.3583 23.9705 44.3129C23.8609 44.2675 23.7671 44.1906 23.7012 44.0919C23.6353 43.9932 23.6001 43.8772 23.6001 43.7585C23.6001 43.6797 23.6156 43.6017 23.6458 43.5289C23.6759 43.4561 23.7201 43.39 23.7758 43.3343C23.8315 43.2786 23.8977 43.2344 23.9705 43.2042C24.0433 43.1741 24.1213 43.1585 24.2001 43.1585Z" fill="#002447"/>
<path d="M24.2001 29.1085C24.3188 29.1085 24.4348 29.1437 24.5334 29.2097C24.6321 29.2756 24.709 29.3693 24.7544 29.4789C24.7998 29.5886 24.8117 29.7092 24.7886 29.8256C24.7654 29.942 24.7083 30.0489 24.6244 30.1328C24.5404 30.2167 24.4335 30.2739 24.3172 30.297C24.2008 30.3202 24.0801 30.3083 23.9705 30.2629C23.8609 30.2175 23.7671 30.1405 23.7012 30.0419C23.6353 29.9432 23.6001 29.8272 23.6001 29.7085C23.6001 29.6297 23.6156 29.5517 23.6458 29.4789C23.6759 29.4061 23.7201 29.34 23.7758 29.2843C23.8315 29.2286 23.8977 29.1844 23.9705 29.1542C24.0433 29.1241 24.1213 29.1085 24.2001 29.1085Z" fill="#002447"/>
<path d="M24.2001 15.0485C24.3207 15.0485 24.4387 15.0843 24.539 15.1513C24.6393 15.2184 24.7175 15.3136 24.7637 15.4251C24.8098 15.5366 24.8219 15.6592 24.7984 15.7775C24.7748 15.8959 24.7167 16.0046 24.6314 16.0899C24.5461 16.1752 24.4374 16.2333 24.3191 16.2568C24.2008 16.2804 24.0781 16.2683 23.9667 16.2221C23.8552 16.1759 23.7599 16.0977 23.6929 15.9974C23.6259 15.8971 23.5901 15.7792 23.5901 15.6585C23.5901 15.4968 23.6544 15.3416 23.7688 15.2272C23.8832 15.1128 24.0383 15.0485 24.2001 15.0485Z" fill="#002447"/>
<path d="M24.2001 0.998535C24.3619 0.998535 24.517 1.0628 24.6314 1.1772C24.7458 1.2916 24.8101 1.44675 24.8101 1.60854C24.8101 1.77032 24.7458 1.92547 24.6314 2.03987C24.517 2.15427 24.3619 2.21854 24.2001 2.21854C24.0383 2.21854 23.8832 2.15427 23.7688 2.03987C23.6544 1.92547 23.5901 1.77032 23.5901 1.60854C23.5901 1.44675 23.6544 1.2916 23.7688 1.1772C23.8832 1.0628 24.0383 0.998535 24.2001 0.998535Z" fill="#002447"/>
<path d="M36.8598 197.739C36.9399 197.737 37.0195 197.752 37.094 197.781C37.1685 197.811 37.2365 197.854 37.2941 197.91C37.3516 197.966 37.3977 198.032 37.4295 198.106C37.4614 198.179 37.4785 198.258 37.4798 198.339C37.4811 198.419 37.4666 198.498 37.4372 198.573C37.4077 198.647 37.3639 198.715 37.3082 198.773C37.2525 198.83 37.186 198.876 37.1125 198.908C37.0389 198.94 36.9599 198.957 36.8798 198.959C36.7993 198.961 36.7191 198.948 36.644 198.919C36.5689 198.89 36.5004 198.846 36.4425 198.79C36.3847 198.734 36.3387 198.667 36.3073 198.593C36.2759 198.519 36.2597 198.439 36.2598 198.359C36.2598 198.199 36.323 198.047 36.4355 197.934C36.548 197.822 36.7006 197.759 36.8598 197.759" fill="#002447"/>
<path d="M36.86 183.679C36.9806 183.679 37.0986 183.714 37.1989 183.781C37.2992 183.848 37.3774 183.944 37.4236 184.055C37.4697 184.167 37.4818 184.289 37.4583 184.408C37.4347 184.526 37.3766 184.635 37.2913 184.72C37.206 184.805 37.0973 184.863 36.979 184.887C36.8607 184.91 36.738 184.898 36.6266 184.852C36.5151 184.806 36.4198 184.728 36.3528 184.627C36.2858 184.527 36.25 184.409 36.25 184.289C36.25 184.127 36.3143 183.972 36.4287 183.857C36.5431 183.743 36.6982 183.679 36.86 183.679Z" fill="#002447"/>
<path d="M36.86 169.619C36.9806 169.619 37.0986 169.654 37.1989 169.721C37.2992 169.788 37.3774 169.884 37.4236 169.995C37.4697 170.107 37.4818 170.229 37.4583 170.348C37.4347 170.466 37.3766 170.575 37.2913 170.66C37.206 170.745 37.0973 170.803 36.979 170.827C36.8607 170.85 36.738 170.838 36.6266 170.792C36.5151 170.746 36.4198 170.668 36.3528 170.567C36.2858 170.467 36.25 170.349 36.25 170.229C36.25 170.067 36.3143 169.912 36.4287 169.797C36.5431 169.683 36.6982 169.619 36.86 169.619Z" fill="#002447"/>
<path d="M36.86 155.569C36.9806 155.569 37.0986 155.604 37.1989 155.671C37.2992 155.738 37.3774 155.834 37.4236 155.945C37.4697 156.057 37.4818 156.179 37.4583 156.298C37.4347 156.416 37.3766 156.525 37.2913 156.61C37.206 156.695 37.0973 156.753 36.979 156.777C36.8607 156.8 36.738 156.788 36.6266 156.742C36.5151 156.696 36.4198 156.618 36.3528 156.517C36.2858 156.417 36.25 156.299 36.25 156.179C36.25 156.017 36.3143 155.862 36.4287 155.747C36.5431 155.633 36.6982 155.569 36.86 155.569Z" fill="#002447"/>
<path d="M36.86 141.519C36.9806 141.519 37.0986 141.554 37.1989 141.621C37.2992 141.688 37.3774 141.784 37.4236 141.895C37.4697 142.007 37.4818 142.129 37.4583 142.248C37.4347 142.366 37.3766 142.475 37.2913 142.56C37.206 142.645 37.0973 142.703 36.979 142.727C36.8607 142.75 36.738 142.738 36.6266 142.692C36.5151 142.646 36.4198 142.568 36.3528 142.467C36.2858 142.367 36.25 142.249 36.25 142.129C36.25 141.967 36.3143 141.812 36.4287 141.697C36.5431 141.583 36.6982 141.519 36.86 141.519Z" fill="#002447"/>
<path d="M36.86 127.469C36.9806 127.469 37.0986 127.504 37.1989 127.571C37.2992 127.638 37.3774 127.734 37.4236 127.845C37.4697 127.957 37.4818 128.079 37.4583 128.198C37.4347 128.316 37.3766 128.425 37.2913 128.51C37.206 128.595 37.0973 128.653 36.979 128.677C36.8607 128.7 36.738 128.688 36.6266 128.642C36.5151 128.596 36.4198 128.518 36.3528 128.417C36.2858 128.317 36.25 128.199 36.25 128.079C36.25 127.917 36.3143 127.762 36.4287 127.647C36.5431 127.533 36.6982 127.469 36.86 127.469Z" fill="#002447"/>
<path d="M36.86 113.419C36.9806 113.419 37.0986 113.454 37.1989 113.521C37.2992 113.588 37.3774 113.684 37.4236 113.795C37.4697 113.907 37.4818 114.029 37.4583 114.148C37.4347 114.266 37.3766 114.375 37.2913 114.46C37.206 114.545 37.0973 114.603 36.979 114.627C36.8607 114.65 36.738 114.638 36.6266 114.592C36.5151 114.546 36.4198 114.468 36.3528 114.367C36.2858 114.267 36.25 114.149 36.25 114.029C36.25 113.867 36.3143 113.712 36.4287 113.597C36.5431 113.483 36.6982 113.419 36.86 113.419Z" fill="#002447"/>
<path d="M36.8598 99.3685C36.9399 99.3672 37.0195 99.3817 37.094 99.4111C37.1685 99.4406 37.2365 99.4844 37.2941 99.5401C37.3516 99.5958 37.3977 99.6623 37.4295 99.7358C37.4614 99.8094 37.4785 99.8884 37.4798 99.9685C37.4811 100.049 37.4666 100.128 37.4372 100.203C37.4077 100.277 37.3639 100.345 37.3082 100.403C37.2525 100.46 37.186 100.506 37.1125 100.538C37.0389 100.57 36.9599 100.587 36.8798 100.589C36.7993 100.591 36.7191 100.578 36.644 100.549C36.5689 100.52 36.5004 100.476 36.4425 100.42C36.3847 100.364 36.3387 100.297 36.3073 100.223C36.2759 100.149 36.2597 100.069 36.2598 99.9885C36.2623 99.8292 36.326 99.677 36.4377 99.5634C36.5494 99.4499 36.7005 99.3837 36.8598 99.3785" fill="#002447"/>
<path d="M36.8598 85.3185C36.9784 85.3185 37.0944 85.3537 37.1931 85.4197C37.2918 85.4856 37.3687 85.5793 37.4141 85.6889C37.4595 85.7986 37.4714 85.9192 37.4482 86.0356C37.4251 86.152 37.3679 86.2589 37.284 86.3428C37.2001 86.4267 37.0932 86.4839 36.9768 86.507C36.8604 86.5302 36.7398 86.5183 36.6302 86.4729C36.5205 86.4274 36.4268 86.3505 36.3609 86.2519C36.295 86.1532 36.2598 86.0372 36.2598 85.9185C36.2598 85.7594 36.323 85.6068 36.4355 85.4943C36.548 85.3817 36.7006 85.3185 36.8598 85.3185Z" fill="#002447"/>
<path d="M36.8598 71.2685C36.9399 71.2672 37.0195 71.2817 37.094 71.3111C37.1685 71.3406 37.2365 71.3844 37.2941 71.4401C37.3516 71.4958 37.3977 71.5623 37.4295 71.6358C37.4614 71.7094 37.4785 71.7884 37.4798 71.8685C37.4811 71.9486 37.4666 72.0282 37.4372 72.1027C37.4077 72.1773 37.3639 72.2453 37.3082 72.3028C37.2525 72.3604 37.186 72.4064 37.1125 72.4383C37.0389 72.4702 36.9599 72.4872 36.8798 72.4885C36.7993 72.4912 36.7191 72.4777 36.644 72.4487C36.5689 72.4198 36.5004 72.376 36.4425 72.32C36.3847 72.264 36.3387 72.197 36.3073 72.1229C36.2759 72.0487 36.2597 71.969 36.2598 71.8885C36.2598 71.7294 36.323 71.5768 36.4355 71.4643C36.548 71.3517 36.7006 71.2885 36.8598 71.2885" fill="#002447"/>
<path d="M36.86 57.2085C36.9806 57.2085 37.0986 57.2443 37.1989 57.3113C37.2992 57.3784 37.3774 57.4736 37.4236 57.5851C37.4697 57.6966 37.4818 57.8192 37.4583 57.9375C37.4347 58.0559 37.3766 58.1646 37.2913 58.2499C37.206 58.3352 37.0973 58.3933 36.979 58.4168C36.8607 58.4403 36.738 58.4283 36.6266 58.3821C36.5151 58.3359 36.4198 58.2577 36.3528 58.1574C36.2858 58.0571 36.25 57.9392 36.25 57.8185C36.25 57.6568 36.3143 57.5016 36.4287 57.3872C36.5431 57.2728 36.6982 57.2085 36.86 57.2085Z" fill="#002447"/>
<path d="M36.86 43.1485C36.9806 43.1485 37.0986 43.1843 37.1989 43.2513C37.2992 43.3184 37.3774 43.4136 37.4236 43.5251C37.4697 43.6366 37.4818 43.7592 37.4583 43.8775C37.4347 43.9959 37.3766 44.1046 37.2913 44.1899C37.206 44.2752 37.0973 44.3333 36.979 44.3568C36.8607 44.3803 36.738 44.3683 36.6266 44.3221C36.5151 44.2759 36.4198 44.1977 36.3528 44.0974C36.2858 43.9971 36.25 43.8792 36.25 43.7585C36.25 43.5967 36.3143 43.4416 36.4287 43.3272C36.5431 43.2128 36.6982 43.1485 36.86 43.1485Z" fill="#002447"/>
<path d="M36.86 29.0985C36.9806 29.0985 37.0986 29.1343 37.1989 29.2013C37.2992 29.2684 37.3774 29.3636 37.4236 29.4751C37.4697 29.5866 37.4818 29.7092 37.4583 29.8275C37.4347 29.9459 37.3766 30.0546 37.2913 30.1399C37.206 30.2252 37.0973 30.2833 36.979 30.3068C36.8607 30.3304 36.738 30.3183 36.6266 30.2721C36.5151 30.2259 36.4198 30.1478 36.3528 30.0474C36.2858 29.9471 36.25 29.8292 36.25 29.7085C36.25 29.5468 36.3143 29.3916 36.4287 29.2772C36.5431 29.1628 36.6982 29.0985 36.86 29.0985Z" fill="#002447"/>
<path d="M36.86 15.0485C36.9806 15.0485 37.0986 15.0843 37.1989 15.1513C37.2992 15.2184 37.3774 15.3136 37.4236 15.4251C37.4697 15.5366 37.4818 15.6592 37.4583 15.7775C37.4347 15.8959 37.3766 16.0046 37.2913 16.0899C37.206 16.1752 37.0973 16.2333 36.979 16.2568C36.8607 16.2804 36.738 16.2683 36.6266 16.2221C36.5151 16.1759 36.4198 16.0977 36.3528 15.9974C36.2858 15.8971 36.25 15.7792 36.25 15.6585C36.25 15.4968 36.3143 15.3416 36.4287 15.2272C36.5431 15.1128 36.6982 15.0485 36.86 15.0485Z" fill="#002447"/>
<path d="M36.86 0.998535C37.0218 0.998535 37.1769 1.0628 37.2913 1.1772C37.4057 1.2916 37.47 1.44675 37.47 1.60854C37.47 1.77032 37.4057 1.92547 37.2913 2.03987C37.1769 2.15427 37.0218 2.21854 36.86 2.21854C36.6982 2.21854 36.5431 2.15427 36.4287 2.03987C36.3143 1.92547 36.25 1.77032 36.25 1.60854C36.25 1.44675 36.3143 1.2916 36.4287 1.1772C36.5431 1.0628 36.6982 0.998535 36.86 0.998535Z" fill="#002447"/>
<path d="M49.5199 197.739C49.6 197.737 49.6796 197.752 49.7541 197.781C49.8287 197.811 49.8966 197.854 49.9542 197.91C50.0118 197.966 50.0578 198.032 50.0897 198.106C50.1215 198.179 50.1386 198.258 50.1399 198.339C50.1412 198.419 50.1268 198.498 50.0973 198.573C50.0679 198.647 50.0241 198.715 49.9684 198.773C49.9126 198.83 49.8461 198.876 49.7726 198.908C49.6991 198.94 49.62 198.957 49.5399 198.959C49.4598 198.96 49.3802 198.945 49.3057 198.916C49.2312 198.887 49.1632 198.843 49.1056 198.787C49.0481 198.731 49.002 198.665 48.9702 198.591C48.9383 198.518 48.9212 198.439 48.9199 198.359C48.9199 198.199 48.9831 198.047 49.0957 197.934C49.2082 197.822 49.3608 197.759 49.5199 197.759" fill="#002447"/>
<path d="M49.5199 183.689C49.6 183.687 49.6796 183.702 49.7541 183.731C49.8287 183.761 49.8966 183.804 49.9542 183.86C50.0118 183.916 50.0578 183.982 50.0897 184.056C50.1215 184.129 50.1386 184.208 50.1399 184.289C50.1412 184.369 50.1268 184.448 50.0973 184.523C50.0679 184.597 50.0241 184.665 49.9684 184.723C49.9126 184.78 49.8461 184.826 49.7726 184.858C49.6991 184.89 49.62 184.907 49.5399 184.909C49.4598 184.91 49.3802 184.895 49.3057 184.866C49.2312 184.837 49.1632 184.793 49.1056 184.737C49.0481 184.681 49.002 184.615 48.9702 184.541C48.9383 184.468 48.9212 184.389 48.9199 184.309C48.9199 184.149 48.9831 183.997 49.0957 183.884C49.2082 183.772 49.3608 183.709 49.5199 183.709" fill="#002447"/>
<path d="M49.5202 169.629C49.6819 169.629 49.8371 169.693 49.9515 169.807C50.0659 169.922 50.1302 170.077 50.1302 170.239C50.1302 170.359 50.0944 170.477 50.0274 170.577C49.9603 170.678 49.8651 170.756 49.7536 170.802C49.6421 170.848 49.5195 170.86 49.4011 170.837C49.2828 170.813 49.1741 170.755 49.0888 170.67C49.0035 170.585 48.9454 170.476 48.9219 170.358C48.8983 170.239 48.9104 170.117 48.9566 170.005C49.0028 169.894 49.0809 169.798 49.1813 169.731C49.2816 169.664 49.3995 169.629 49.5202 169.629Z" fill="#002447"/>
<path d="M49.5199 155.579C49.6 155.577 49.6796 155.592 49.7541 155.621C49.8287 155.651 49.8966 155.694 49.9542 155.75C50.0118 155.806 50.0578 155.872 50.0897 155.946C50.1215 156.019 50.1386 156.098 50.1399 156.179C50.1412 156.259 50.1268 156.338 50.0973 156.413C50.0679 156.487 50.0241 156.555 49.9684 156.613C49.9126 156.67 49.8461 156.716 49.7726 156.748C49.6991 156.78 49.62 156.797 49.5399 156.799C49.4598 156.8 49.3802 156.785 49.3057 156.756C49.2312 156.727 49.1632 156.683 49.1056 156.627C49.0481 156.571 49.002 156.505 48.9702 156.431C48.9383 156.358 48.9212 156.279 48.9199 156.199C48.9224 156.039 48.9861 155.887 49.0978 155.773C49.2096 155.66 49.3607 155.594 49.5199 155.589" fill="#002447"/>
<path d="M49.5199 141.529C49.6 141.527 49.6796 141.542 49.7541 141.571C49.8287 141.601 49.8966 141.644 49.9542 141.7C50.0118 141.756 50.0578 141.822 50.0897 141.896C50.1215 141.969 50.1386 142.048 50.1399 142.129C50.1412 142.209 50.1268 142.288 50.0973 142.363C50.0679 142.437 50.0241 142.505 49.9684 142.563C49.9126 142.62 49.8461 142.666 49.7726 142.698C49.6991 142.73 49.62 142.747 49.5399 142.749C49.4598 142.75 49.3802 142.735 49.3057 142.706C49.2312 142.677 49.1632 142.633 49.1056 142.577C49.0481 142.521 49.002 142.455 48.9702 142.381C48.9383 142.308 48.9212 142.229 48.9199 142.149C48.9199 141.989 48.9831 141.837 49.0957 141.724C49.2082 141.612 49.3608 141.549 49.5199 141.549" fill="#002447"/>
<path d="M49.5199 127.479C49.6 127.477 49.6796 127.492 49.7541 127.521C49.8287 127.551 49.8966 127.594 49.9542 127.65C50.0118 127.706 50.0578 127.772 50.0897 127.846C50.1215 127.919 50.1386 127.998 50.1399 128.079C50.1412 128.159 50.1268 128.238 50.0973 128.313C50.0679 128.387 50.0241 128.455 49.9684 128.513C49.9126 128.57 49.8461 128.616 49.7726 128.648C49.6991 128.68 49.62 128.697 49.5399 128.699C49.4598 128.7 49.3802 128.685 49.3057 128.656C49.2312 128.627 49.1632 128.583 49.1056 128.527C49.0481 128.471 49.002 128.405 48.9702 128.331C48.9383 128.258 48.9212 128.179 48.9199 128.099C48.9199 127.939 48.9831 127.787 49.0957 127.674C49.2082 127.562 49.3608 127.499 49.5199 127.499" fill="#002447"/>
<path d="M49.5201 113.429C49.5989 113.427 49.6772 113.441 49.7505 113.47C49.8238 113.499 49.8907 113.542 49.9473 113.597C50.004 113.652 50.0493 113.717 50.0806 113.79C50.112 113.862 50.1288 113.94 50.1301 114.019C50.1499 114.179 50.1052 114.341 50.0058 114.468C49.9064 114.596 49.7605 114.679 49.6001 114.699C49.5212 114.71 49.4409 114.705 49.3638 114.685C49.2867 114.665 49.2144 114.63 49.1511 114.581C49.0878 114.533 49.0347 114.472 48.9951 114.403C48.9554 114.334 48.9299 114.258 48.9201 114.179C48.9101 114.126 48.9101 114.071 48.9201 114.019C48.9201 113.859 48.9833 113.707 49.0958 113.594C49.2084 113.482 49.361 113.419 49.5201 113.419" fill="#002447"/>
<path d="M49.5199 99.3685C49.6 99.3672 49.6796 99.3817 49.7541 99.4111C49.8287 99.4406 49.8966 99.4844 49.9542 99.5401C50.0118 99.5958 50.0578 99.6623 50.0897 99.7358C50.1215 99.8094 50.1386 99.8884 50.1399 99.9685C50.1412 100.049 50.1268 100.128 50.0973 100.203C50.0679 100.277 50.0241 100.345 49.9684 100.403C49.9126 100.46 49.8461 100.506 49.7726 100.538C49.6991 100.57 49.62 100.587 49.5399 100.589C49.4598 100.59 49.3802 100.575 49.3057 100.546C49.2312 100.517 49.1632 100.473 49.1056 100.417C49.0481 100.361 49.002 100.295 48.9702 100.221C48.9383 100.148 48.9212 100.069 48.9199 99.9885C48.9224 99.8292 48.9861 99.677 49.0978 99.5634C49.2096 99.4499 49.3607 99.3837 49.5199 99.3785" fill="#002447"/>
<path d="M49.5199 85.3185C49.6 85.3172 49.6796 85.3317 49.7541 85.3611C49.8287 85.3906 49.8966 85.4344 49.9542 85.4901C50.0118 85.5458 50.0578 85.6123 50.0897 85.6858C50.1215 85.7594 50.1386 85.8384 50.1399 85.9185C50.1412 85.9986 50.1268 86.0782 50.0973 86.1527C50.0679 86.2273 50.0241 86.2952 49.9684 86.3528C49.9126 86.4104 49.8461 86.4564 49.7726 86.4883C49.6991 86.5202 49.62 86.5372 49.5399 86.5385C49.4598 86.5399 49.3802 86.5254 49.3057 86.4959C49.2312 86.4665 49.1632 86.4227 49.1056 86.367C49.0481 86.3112 49.002 86.2447 48.9702 86.1712C48.9383 86.0977 48.9212 86.0186 48.9199 85.9385C48.9224 85.7792 48.9861 85.627 49.0978 85.5134C49.2096 85.3999 49.3607 85.3337 49.5199 85.3285" fill="#002447"/>
<path d="M49.5199 71.2685C49.6 71.2672 49.6796 71.2817 49.7541 71.3111C49.8287 71.3406 49.8966 71.3844 49.9542 71.4401C50.0118 71.4958 50.0578 71.5623 50.0897 71.6358C50.1215 71.7094 50.1386 71.7884 50.1399 71.8685C50.1412 71.9486 50.1268 72.0282 50.0973 72.1027C50.0679 72.1773 50.0241 72.2453 49.9684 72.3028C49.9126 72.3604 49.8461 72.4064 49.7726 72.4383C49.6991 72.4702 49.62 72.4872 49.5399 72.4885C49.4598 72.4899 49.3802 72.4754 49.3057 72.446C49.2312 72.4165 49.1632 72.3727 49.1056 72.317C49.0481 72.2612 49.002 72.1947 48.9702 72.1212C48.9383 72.0477 48.9212 71.9686 48.9199 71.8885C48.9199 71.7294 48.9831 71.5768 49.0957 71.4643C49.2082 71.3517 49.3608 71.2885 49.5199 71.2885" fill="#002447"/>
<path d="M49.5199 57.2185C49.6 57.2172 49.6796 57.2317 49.7541 57.2611C49.8287 57.2906 49.8966 57.3344 49.9542 57.3901C50.0118 57.4458 50.0578 57.5123 50.0897 57.5858C50.1215 57.6594 50.1386 57.7384 50.1399 57.8185C50.1412 57.8986 50.1268 57.9782 50.0973 58.0527C50.0679 58.1273 50.0241 58.1952 49.9684 58.2528C49.9126 58.3104 49.8461 58.3564 49.7726 58.3883C49.6991 58.4202 49.62 58.4372 49.5399 58.4385C49.4598 58.4399 49.3802 58.4254 49.3057 58.3959C49.2312 58.3665 49.1632 58.3227 49.1056 58.267C49.0481 58.2112 49.002 58.1447 48.9702 58.0712C48.9383 57.9977 48.9212 57.9186 48.9199 57.8385C48.9199 57.6794 48.9831 57.5268 49.0957 57.4143C49.2082 57.3017 49.3608 57.2385 49.5199 57.2385" fill="#002447"/>
<path d="M49.5199 43.1585C49.6 43.1572 49.6796 43.1717 49.7541 43.2011C49.8287 43.2306 49.8966 43.2744 49.9542 43.3301C50.0118 43.3858 50.0578 43.4523 50.0897 43.5258C50.1215 43.5994 50.1386 43.6784 50.1399 43.7585C50.1412 43.8386 50.1268 43.9182 50.0973 43.9927C50.0679 44.0673 50.0241 44.1352 49.9684 44.1928C49.9126 44.2504 49.8461 44.2964 49.7726 44.3283C49.6991 44.3602 49.62 44.3772 49.5399 44.3785C49.4598 44.3799 49.3802 44.3654 49.3057 44.3359C49.2312 44.3065 49.1632 44.2627 49.1056 44.207C49.0481 44.1512 49.002 44.0847 48.9702 44.0112C48.9383 43.9377 48.9212 43.8586 48.9199 43.7785C48.9224 43.6192 48.9861 43.467 49.0978 43.3534C49.2096 43.2399 49.3607 43.1736 49.5199 43.1685" fill="#002447"/>
<path d="M49.5199 29.1085C49.6 29.1072 49.6796 29.1217 49.7541 29.1511C49.8287 29.1806 49.8966 29.2244 49.9542 29.2801C50.0118 29.3358 50.0578 29.4023 50.0897 29.4759C50.1215 29.5494 50.1386 29.6284 50.1399 29.7085C50.1412 29.7887 50.1268 29.8682 50.0973 29.9428C50.0679 30.0173 50.0241 30.0853 49.9684 30.1428C49.9126 30.2004 49.8461 30.2464 49.7726 30.2783C49.6991 30.3102 49.62 30.3272 49.5399 30.3285C49.4598 30.3299 49.3802 30.3154 49.3057 30.286C49.2312 30.2565 49.1632 30.2127 49.1056 30.157C49.0481 30.1013 49.002 30.0347 48.9702 29.9612C48.9383 29.8877 48.9212 29.8087 48.9199 29.7285C48.9224 29.5693 48.9861 29.417 49.0978 29.3035C49.2096 29.1899 49.3607 29.1237 49.5199 29.1185" fill="#002447"/>
<path d="M49.5199 15.0585C49.6 15.0572 49.6796 15.0717 49.7541 15.1011C49.8287 15.1306 49.8966 15.1744 49.9542 15.2301C50.0118 15.2858 50.0578 15.3523 50.0897 15.4259C50.1215 15.4994 50.1386 15.5784 50.1399 15.6585C50.1412 15.7386 50.1268 15.8182 50.0973 15.8928C50.0679 15.9673 50.0241 16.0353 49.9684 16.0928C49.9126 16.1504 49.8461 16.1964 49.7726 16.2283C49.6991 16.2602 49.62 16.2772 49.5399 16.2785C49.4598 16.2799 49.3802 16.2654 49.3057 16.236C49.2312 16.2065 49.1632 16.1627 49.1056 16.107C49.0481 16.0513 49.002 15.9847 48.9702 15.9112C48.9383 15.8377 48.9212 15.7586 48.9199 15.6785C48.9199 15.5194 48.9831 15.3668 49.0957 15.2543C49.2082 15.1418 49.3608 15.0785 49.5199 15.0785" fill="#002447"/>
<path d="M49.5199 1.05854C49.6 1.05722 49.6796 1.07169 49.7541 1.10112C49.8287 1.13056 49.8966 1.17439 49.9542 1.23011C50.0118 1.28583 50.0578 1.35234 50.0897 1.42585C50.1215 1.49936 50.1386 1.57843 50.1399 1.65854C50.1412 1.73865 50.1268 1.81823 50.0973 1.89275C50.0679 1.96727 50.0241 2.03525 49.9684 2.09283C49.9126 2.1504 49.8461 2.19644 49.7726 2.2283C49.6991 2.26017 49.62 2.27724 49.5399 2.27854C49.4598 2.27986 49.3802 2.26539 49.3057 2.23596C49.2312 2.20652 49.1632 2.16269 49.1056 2.10697C49.0481 2.05125 49.002 1.98474 48.9702 1.91123C48.9383 1.83772 48.9212 1.75865 48.9199 1.67854C48.9199 1.51941 48.9831 1.3668 49.0957 1.25428C49.2082 1.14175 49.3608 1.07854 49.5199 1.07854" fill="#002447"/>
<path d="M62.1801 197.739C62.2602 197.737 62.3398 197.752 62.4143 197.781C62.4888 197.811 62.5568 197.854 62.6144 197.91C62.6719 197.966 62.718 198.032 62.7498 198.106C62.7817 198.179 62.7988 198.258 62.8001 198.339C62.8014 198.419 62.7869 198.498 62.7575 198.573C62.7281 198.647 62.6842 198.715 62.6285 198.773C62.5728 198.83 62.5063 198.876 62.4328 198.908C62.3593 198.94 62.2802 198.957 62.2001 198.959C62.1196 198.961 62.0394 198.948 61.9643 198.919C61.8892 198.89 61.8207 198.846 61.7628 198.79C61.705 198.734 61.659 198.667 61.6276 198.593C61.5962 198.519 61.58 198.439 61.5801 198.359C61.5801 198.199 61.6433 198.047 61.7558 197.934C61.8683 197.822 62.0209 197.759 62.1801 197.759" fill="#002447"/>
<path d="M62.1801 183.689C62.2602 183.687 62.3398 183.702 62.4143 183.731C62.4888 183.761 62.5568 183.804 62.6144 183.86C62.6719 183.916 62.718 183.982 62.7498 184.056C62.7817 184.129 62.7988 184.208 62.8001 184.289C62.8014 184.369 62.7869 184.448 62.7575 184.523C62.7281 184.597 62.6842 184.665 62.6285 184.723C62.5728 184.78 62.5063 184.826 62.4328 184.858C62.3593 184.89 62.2802 184.907 62.2001 184.909C62.1196 184.911 62.0394 184.898 61.9643 184.869C61.8892 184.84 61.8207 184.796 61.7628 184.74C61.705 184.684 61.659 184.617 61.6276 184.543C61.5962 184.469 61.58 184.389 61.5801 184.309C61.5801 184.149 61.6433 183.997 61.7558 183.884C61.8683 183.772 62.0209 183.709 62.1801 183.709" fill="#002447"/>
<path d="M62.1798 169.629C62.3416 169.629 62.4968 169.693 62.6112 169.807C62.7256 169.922 62.7898 170.077 62.7898 170.239C62.7898 170.359 62.754 170.477 62.687 170.577C62.62 170.678 62.5247 170.756 62.4133 170.802C62.3018 170.848 62.1791 170.86 62.0608 170.837C61.9425 170.813 61.8338 170.755 61.7485 170.67C61.6632 170.585 61.6051 170.476 61.5815 170.358C61.558 170.239 61.5701 170.117 61.6163 170.005C61.6624 169.894 61.7406 169.798 61.8409 169.731C61.9412 169.664 62.0592 169.629 62.1798 169.629Z" fill="#002447"/>
<path d="M62.1801 155.579C62.2602 155.577 62.3398 155.592 62.4143 155.621C62.4888 155.651 62.5568 155.694 62.6144 155.75C62.6719 155.806 62.718 155.872 62.7498 155.946C62.7817 156.019 62.7988 156.098 62.8001 156.179C62.8014 156.259 62.7869 156.338 62.7575 156.413C62.7281 156.487 62.6842 156.555 62.6285 156.613C62.5728 156.67 62.5063 156.716 62.4328 156.748C62.3593 156.78 62.2802 156.797 62.2001 156.799C62.12 156.8 62.0404 156.785 61.9659 156.756C61.8914 156.727 61.8234 156.683 61.7658 156.627C61.7082 156.571 61.6622 156.505 61.6303 156.431C61.5984 156.358 61.5814 156.279 61.5801 156.199C61.5826 156.039 61.6463 155.887 61.758 155.773C61.8697 155.66 62.0208 155.594 62.1801 155.589" fill="#002447"/>
<path d="M62.1801 141.529C62.2602 141.527 62.3398 141.542 62.4143 141.571C62.4888 141.601 62.5568 141.644 62.6144 141.7C62.6719 141.756 62.718 141.822 62.7498 141.896C62.7817 141.969 62.7988 142.048 62.8001 142.129C62.8014 142.209 62.7869 142.288 62.7575 142.363C62.7281 142.437 62.6842 142.505 62.6285 142.563C62.5728 142.62 62.5063 142.666 62.4328 142.698C62.3593 142.73 62.2802 142.747 62.2001 142.749C62.1196 142.751 62.0394 142.738 61.9643 142.709C61.8892 142.68 61.8207 142.636 61.7628 142.58C61.705 142.524 61.659 142.457 61.6276 142.383C61.5962 142.309 61.58 142.229 61.5801 142.149C61.5801 141.989 61.6433 141.837 61.7558 141.724C61.8683 141.612 62.0209 141.549 62.1801 141.549" fill="#002447"/>
<path d="M62.1801 127.479C62.2602 127.477 62.3398 127.492 62.4143 127.521C62.4888 127.551 62.5568 127.594 62.6144 127.65C62.6719 127.706 62.718 127.772 62.7498 127.846C62.7817 127.919 62.7988 127.998 62.8001 128.079C62.8014 128.159 62.7869 128.238 62.7575 128.313C62.7281 128.387 62.6842 128.455 62.6285 128.513C62.5728 128.57 62.5063 128.616 62.4328 128.648C62.3593 128.68 62.2802 128.697 62.2001 128.699C62.1196 128.701 62.0394 128.688 61.9643 128.659C61.8892 128.63 61.8207 128.586 61.7628 128.53C61.705 128.474 61.659 128.407 61.6276 128.333C61.5962 128.259 61.58 128.179 61.5801 128.099C61.5801 127.939 61.6433 127.787 61.7558 127.674C61.8683 127.562 62.0209 127.499 62.1801 127.499" fill="#002447"/>
<path d="M62.1798 113.429C62.2586 113.427 62.3369 113.441 62.4102 113.47C62.4835 113.499 62.5503 113.542 62.607 113.597C62.6636 113.652 62.7089 113.717 62.7403 113.79C62.7717 113.862 62.7885 113.94 62.7898 114.019C62.8096 114.179 62.7649 114.341 62.6655 114.468C62.5661 114.596 62.4202 114.679 62.2598 114.699C62.1809 114.71 62.1005 114.705 62.0234 114.685C61.9463 114.665 61.874 114.63 61.8107 114.581C61.7474 114.533 61.6944 114.472 61.6547 114.403C61.6151 114.334 61.5896 114.258 61.5798 114.179C61.5698 114.126 61.5698 114.071 61.5798 114.019C61.5798 113.859 61.643 113.707 61.7555 113.594C61.868 113.482 62.0206 113.419 62.1798 113.419" fill="#002447"/>
<path d="M62.1801 99.3685C62.2602 99.3672 62.3398 99.3817 62.4143 99.4111C62.4888 99.4406 62.5568 99.4844 62.6144 99.5401C62.6719 99.5958 62.718 99.6623 62.7498 99.7358C62.7817 99.8094 62.7988 99.8884 62.8001 99.9685C62.8014 100.049 62.7869 100.128 62.7575 100.203C62.7281 100.277 62.6842 100.345 62.6285 100.403C62.5728 100.46 62.5063 100.506 62.4328 100.538C62.3593 100.57 62.2802 100.587 62.2001 100.589C62.12 100.59 62.0404 100.575 61.9659 100.546C61.8914 100.517 61.8234 100.473 61.7658 100.417C61.7082 100.361 61.6622 100.295 61.6303 100.221C61.5984 100.148 61.5814 100.069 61.5801 99.9885C61.5826 99.8292 61.6463 99.677 61.758 99.5634C61.8697 99.4499 62.0208 99.3837 62.1801 99.3785" fill="#002447"/>
<path d="M62.1801 85.3185C62.2602 85.3172 62.3398 85.3317 62.4143 85.3611C62.4888 85.3906 62.5568 85.4344 62.6144 85.4901C62.6719 85.5458 62.718 85.6123 62.7498 85.6858C62.7817 85.7594 62.7988 85.8384 62.8001 85.9185C62.8014 85.9986 62.7869 86.0782 62.7575 86.1527C62.7281 86.2273 62.6842 86.2952 62.6285 86.3528C62.5728 86.4104 62.5063 86.4564 62.4328 86.4883C62.3593 86.5202 62.2802 86.5372 62.2001 86.5385C62.12 86.5399 62.0404 86.5254 61.9659 86.4959C61.8914 86.4665 61.8234 86.4227 61.7658 86.367C61.7082 86.3112 61.6622 86.2447 61.6303 86.1712C61.5984 86.0977 61.5814 86.0186 61.5801 85.9385C61.5826 85.7792 61.6463 85.627 61.758 85.5134C61.8697 85.3999 62.0208 85.3337 62.1801 85.3285" fill="#002447"/>
<path d="M62.1801 71.2685C62.2602 71.2672 62.3398 71.2817 62.4143 71.3111C62.4888 71.3406 62.5568 71.3844 62.6144 71.4401C62.6719 71.4958 62.718 71.5623 62.7498 71.6358C62.7817 71.7094 62.7988 71.7884 62.8001 71.8685C62.8014 71.9486 62.7869 72.0282 62.7575 72.1027C62.7281 72.1773 62.6842 72.2453 62.6285 72.3028C62.5728 72.3604 62.5063 72.4064 62.4328 72.4383C62.3593 72.4702 62.2802 72.4872 62.2001 72.4885C62.1196 72.4912 62.0394 72.4777 61.9643 72.4487C61.8892 72.4198 61.8207 72.376 61.7628 72.32C61.705 72.264 61.659 72.197 61.6276 72.1229C61.5962 72.0487 61.58 71.969 61.5801 71.8885C61.5801 71.7294 61.6433 71.5768 61.7558 71.4643C61.8683 71.3517 62.0209 71.2885 62.1801 71.2885" fill="#002447"/>
<path d="M62.1801 57.2185C62.2602 57.2172 62.3398 57.2317 62.4143 57.2611C62.4888 57.2906 62.5568 57.3344 62.6144 57.3901C62.6719 57.4458 62.718 57.5123 62.7498 57.5858C62.7817 57.6594 62.7988 57.7384 62.8001 57.8185C62.8014 57.8986 62.7869 57.9782 62.7575 58.0527C62.7281 58.1273 62.6842 58.1952 62.6285 58.2528C62.5728 58.3104 62.5063 58.3564 62.4328 58.3883C62.3593 58.4202 62.2802 58.4372 62.2001 58.4385C62.1196 58.4412 62.0394 58.4277 61.9643 58.3987C61.8892 58.3698 61.8207 58.326 61.7628 58.27C61.705 58.214 61.659 58.147 61.6276 58.0729C61.5962 57.9987 61.58 57.919 61.5801 57.8385C61.5801 57.6794 61.6433 57.5268 61.7558 57.4143C61.8683 57.3017 62.0209 57.2385 62.1801 57.2385" fill="#002447"/>
<path d="M62.1801 43.1585C62.2602 43.1572 62.3398 43.1717 62.4143 43.2011C62.4888 43.2306 62.5568 43.2744 62.6144 43.3301C62.6719 43.3858 62.718 43.4523 62.7498 43.5258C62.7817 43.5994 62.7988 43.6784 62.8001 43.7585C62.8014 43.8386 62.7869 43.9182 62.7575 43.9927C62.7281 44.0673 62.6842 44.1352 62.6285 44.1928C62.5728 44.2504 62.5063 44.2964 62.4328 44.3283C62.3593 44.3602 62.2802 44.3772 62.2001 44.3785C62.12 44.3799 62.0404 44.3654 61.9659 44.3359C61.8914 44.3065 61.8234 44.2627 61.7658 44.207C61.7082 44.1512 61.6622 44.0847 61.6303 44.0112C61.5984 43.9377 61.5814 43.8586 61.5801 43.7785C61.5826 43.6192 61.6463 43.467 61.758 43.3534C61.8697 43.2399 62.0208 43.1736 62.1801 43.1685" fill="#002447"/>
<path d="M62.1801 29.1085C62.2602 29.1072 62.3398 29.1217 62.4143 29.1511C62.4888 29.1806 62.5568 29.2244 62.6144 29.2801C62.6719 29.3358 62.718 29.4023 62.7498 29.4759C62.7817 29.5494 62.7988 29.6284 62.8001 29.7085C62.8014 29.7887 62.7869 29.8682 62.7575 29.9428C62.7281 30.0173 62.6842 30.0853 62.6285 30.1428C62.5728 30.2004 62.5063 30.2464 62.4328 30.2783C62.3593 30.3102 62.2802 30.3272 62.2001 30.3285C62.12 30.3299 62.0404 30.3154 61.9659 30.286C61.8914 30.2565 61.8234 30.2127 61.7658 30.157C61.7082 30.1013 61.6622 30.0347 61.6303 29.9612C61.5984 29.8877 61.5814 29.8087 61.5801 29.7285C61.5826 29.5693 61.6463 29.417 61.758 29.3035C61.8697 29.1899 62.0208 29.1237 62.1801 29.1185" fill="#002447"/>
<path d="M62.1801 15.0585C62.2602 15.0572 62.3398 15.0717 62.4143 15.1011C62.4888 15.1306 62.5568 15.1744 62.6144 15.2301C62.6719 15.2858 62.718 15.3523 62.7498 15.4259C62.7817 15.4994 62.7988 15.5784 62.8001 15.6585C62.8014 15.7386 62.7869 15.8182 62.7575 15.8928C62.7281 15.9673 62.6842 16.0353 62.6285 16.0928C62.5728 16.1504 62.5063 16.1964 62.4328 16.2283C62.3593 16.2602 62.2802 16.2772 62.2001 16.2785C62.1196 16.2812 62.0394 16.2677 61.9643 16.2387C61.8892 16.2098 61.8207 16.166 61.7628 16.11C61.705 16.054 61.659 15.987 61.6276 15.9129C61.5962 15.8387 61.58 15.759 61.5801 15.6785C61.5801 15.5194 61.6433 15.3668 61.7558 15.2543C61.8683 15.1418 62.0209 15.0785 62.1801 15.0785" fill="#002447"/>
<path d="M62.1801 1.05854C62.2602 1.05722 62.3398 1.07169 62.4143 1.10112C62.4888 1.13056 62.5568 1.17439 62.6144 1.23011C62.6719 1.28583 62.718 1.35234 62.7498 1.42585C62.7817 1.49936 62.7988 1.57843 62.8001 1.65854C62.8014 1.73865 62.7869 1.81823 62.7575 1.89275C62.7281 1.96727 62.6842 2.03525 62.6285 2.09283C62.5728 2.1504 62.5063 2.19644 62.4328 2.2283C62.3593 2.26017 62.2802 2.27724 62.2001 2.27854C62.1196 2.28122 62.0394 2.26769 61.9643 2.23874C61.8892 2.20979 61.8207 2.16602 61.7628 2.11003C61.705 2.05405 61.659 1.987 61.6276 1.91287C61.5962 1.83873 61.58 1.75904 61.5801 1.67854C61.5801 1.51941 61.6433 1.3668 61.7558 1.25428C61.8683 1.14175 62.0209 1.07854 62.1801 1.07854" fill="#002447"/>
<path d="M73.1198 197.739C73.2404 197.739 73.3583 197.774 73.4587 197.841C73.559 197.908 73.6372 198.004 73.6833 198.115C73.7295 198.227 73.7416 198.349 73.718 198.468C73.6945 198.586 73.6364 198.695 73.5511 198.78C73.4658 198.865 73.3571 198.923 73.2388 198.947C73.1204 198.97 72.9978 198.958 72.8863 198.912C72.7749 198.866 72.6796 198.788 72.6126 198.687C72.5455 198.587 72.5098 198.469 72.5098 198.349C72.5098 198.189 72.573 198.037 72.6855 197.924C72.798 197.812 72.9506 197.749 73.1098 197.749L73.1198 197.739Z" fill="#002447"/>
<path d="M73.1198 183.689C73.2404 183.689 73.3583 183.724 73.4587 183.791C73.559 183.858 73.6372 183.954 73.6833 184.065C73.7295 184.177 73.7416 184.299 73.718 184.418C73.6945 184.536 73.6364 184.645 73.5511 184.73C73.4658 184.815 73.3571 184.873 73.2388 184.897C73.1204 184.92 72.9978 184.908 72.8863 184.862C72.7749 184.816 72.6796 184.738 72.6126 184.637C72.5455 184.537 72.5098 184.419 72.5098 184.299C72.5098 184.139 72.573 183.987 72.6855 183.874C72.798 183.762 72.9506 183.699 73.1098 183.699L73.1198 183.689Z" fill="#002447"/>
<path d="M73.1202 169.629C73.2043 169.62 73.2894 169.63 73.3693 169.657C73.4492 169.685 73.5221 169.73 73.5829 169.789C73.6437 169.848 73.6908 169.919 73.7211 169.998C73.7513 170.077 73.7639 170.162 73.758 170.246C73.7521 170.33 73.7278 170.413 73.6868 170.487C73.6458 170.561 73.5891 170.625 73.5207 170.674C73.4523 170.724 73.3739 170.758 73.2909 170.775C73.2079 170.791 73.1223 170.789 73.0402 170.769C72.889 170.758 72.7483 170.688 72.6489 170.573C72.5495 170.459 72.4996 170.31 72.5102 170.159C72.5208 170.007 72.591 169.867 72.7054 169.767C72.8198 169.668 72.969 169.618 73.1202 169.629Z" fill="#002447"/>
<path d="M73.1198 155.579C73.2404 155.579 73.3583 155.614 73.4587 155.681C73.559 155.748 73.6372 155.844 73.6833 155.955C73.7295 156.067 73.7416 156.189 73.718 156.308C73.6945 156.426 73.6364 156.535 73.5511 156.62C73.4658 156.705 73.3571 156.763 73.2388 156.787C73.1204 156.81 72.9978 156.798 72.8863 156.752C72.7749 156.706 72.6796 156.628 72.6126 156.527C72.5455 156.427 72.5098 156.309 72.5098 156.189C72.5098 156.027 72.574 155.872 72.6884 155.757C72.8028 155.643 72.958 155.579 73.1198 155.579Z" fill="#002447"/>
<path d="M73.1198 141.529C73.2404 141.529 73.3583 141.564 73.4587 141.631C73.559 141.698 73.6372 141.794 73.6833 141.905C73.7295 142.017 73.7416 142.139 73.718 142.258C73.6945 142.376 73.6364 142.485 73.5511 142.57C73.4658 142.655 73.3571 142.713 73.2388 142.737C73.1204 142.76 72.9978 142.748 72.8863 142.702C72.7749 142.656 72.6796 142.578 72.6126 142.477C72.5455 142.377 72.5098 142.259 72.5098 142.139C72.5098 141.979 72.573 141.827 72.6855 141.714C72.798 141.602 72.9506 141.539 73.1098 141.539L73.1198 141.529Z" fill="#002447"/>
<path d="M73.1198 127.479C73.2404 127.479 73.3583 127.514 73.4587 127.581C73.559 127.648 73.6372 127.744 73.6833 127.855C73.7295 127.967 73.7416 128.089 73.718 128.208C73.6945 128.326 73.6364 128.435 73.5511 128.52C73.4658 128.605 73.3571 128.663 73.2388 128.687C73.1204 128.71 72.9978 128.698 72.8863 128.652C72.7749 128.606 72.6796 128.528 72.6126 128.427C72.5455 128.327 72.5098 128.209 72.5098 128.089C72.5098 127.929 72.573 127.777 72.6855 127.664C72.798 127.552 72.9506 127.489 73.1098 127.489L73.1198 127.479Z" fill="#002447"/>
<path d="M73.1199 113.429C73.2791 113.429 73.4317 113.492 73.5442 113.604C73.6567 113.717 73.7199 113.869 73.7199 114.029C73.7397 114.189 73.695 114.351 73.5957 114.478C73.4963 114.606 73.3504 114.689 73.1899 114.709C73.1111 114.72 73.0307 114.715 72.9536 114.695C72.8765 114.675 72.8042 114.64 72.7409 114.591C72.6776 114.543 72.6246 114.482 72.5849 114.413C72.5453 114.344 72.5198 114.268 72.5099 114.189C72.4999 114.136 72.4999 114.081 72.5099 114.029C72.5099 113.869 72.5732 113.717 72.6857 113.604C72.7982 113.492 72.9508 113.429 73.1099 113.429H73.1199Z" fill="#002447"/>
<path d="M73.1198 99.3685C73.2404 99.3685 73.3583 99.4043 73.4587 99.4713C73.559 99.5384 73.6372 99.6336 73.6833 99.7451C73.7295 99.8566 73.7416 99.9792 73.718 100.098C73.6945 100.216 73.6364 100.325 73.5511 100.41C73.4658 100.495 73.3571 100.553 73.2388 100.577C73.1204 100.6 72.9978 100.588 72.8863 100.542C72.7749 100.496 72.6796 100.418 72.6126 100.317C72.5455 100.217 72.5098 100.099 72.5098 99.9785C72.5098 99.8168 72.574 99.6616 72.6884 99.5472C72.8028 99.4328 72.958 99.3685 73.1198 99.3685Z" fill="#002447"/>
<path d="M73.1198 85.3185C73.2404 85.3185 73.3583 85.3543 73.4587 85.4213C73.559 85.4884 73.6372 85.5836 73.6833 85.6951C73.7295 85.8066 73.7416 85.9292 73.718 86.0475C73.6945 86.1659 73.6364 86.2746 73.5511 86.3599C73.4658 86.4452 73.3571 86.5033 73.2388 86.5268C73.1204 86.5504 72.9978 86.5383 72.8863 86.4921C72.7749 86.4459 72.6796 86.3677 72.6126 86.2674C72.5455 86.1671 72.5098 86.0492 72.5098 85.9285C72.5098 85.7668 72.574 85.6116 72.6884 85.4972C72.8028 85.3828 72.958 85.3185 73.1198 85.3185Z" fill="#002447"/>
<path d="M73.1198 71.2685C73.2404 71.2685 73.3583 71.3043 73.4587 71.3713C73.559 71.4384 73.6372 71.5336 73.6833 71.6451C73.7295 71.7566 73.7416 71.8792 73.718 71.9975C73.6945 72.1159 73.6364 72.2246 73.5511 72.3099C73.4658 72.3952 73.3571 72.4533 73.2388 72.4768C73.1204 72.5004 72.9978 72.4883 72.8863 72.4421C72.7749 72.3959 72.6796 72.3177 72.6126 72.2174C72.5455 72.1171 72.5098 71.9992 72.5098 71.8785C72.5098 71.7194 72.573 71.5668 72.6855 71.4543C72.798 71.3417 72.9506 71.2785 73.1098 71.2785L73.1198 71.2685Z" fill="#002447"/>
<path d="M73.1198 57.2185C73.2404 57.2185 73.3583 57.2543 73.4587 57.3213C73.559 57.3884 73.6372 57.4836 73.6833 57.5951C73.7295 57.7066 73.7416 57.8292 73.718 57.9475C73.6945 58.0659 73.6364 58.1746 73.5511 58.2599C73.4658 58.3452 73.3571 58.4033 73.2388 58.4268C73.1204 58.4504 72.9978 58.4383 72.8863 58.3921C72.7749 58.3459 72.6796 58.2677 72.6126 58.1674C72.5455 58.0671 72.5098 57.9492 72.5098 57.8285C72.5098 57.6694 72.573 57.5168 72.6855 57.4043C72.798 57.2917 72.9506 57.2285 73.1098 57.2285L73.1198 57.2185Z" fill="#002447"/>
<path d="M73.1198 43.1585C73.2404 43.1585 73.3583 43.1943 73.4587 43.2613C73.559 43.3284 73.6372 43.4236 73.6833 43.5351C73.7295 43.6466 73.7416 43.7692 73.718 43.8875C73.6945 44.0059 73.6364 44.1146 73.5511 44.1999C73.4658 44.2852 73.3571 44.3433 73.2388 44.3668C73.1204 44.3904 72.9978 44.3783 72.8863 44.3321C72.7749 44.2859 72.6796 44.2078 72.6126 44.1074C72.5455 44.0071 72.5098 43.8892 72.5098 43.7685C72.5098 43.6068 72.574 43.4516 72.6884 43.3372C72.8028 43.2228 72.958 43.1585 73.1198 43.1585Z" fill="#002447"/>
<path d="M73.1198 29.1085C73.2404 29.1085 73.3583 29.1443 73.4587 29.2113C73.559 29.2784 73.6372 29.3736 73.6833 29.4851C73.7295 29.5966 73.7416 29.7192 73.718 29.8375C73.6945 29.9559 73.6364 30.0646 73.5511 30.1499C73.4658 30.2352 73.3571 30.2933 73.2388 30.3168C73.1204 30.3404 72.9978 30.3283 72.8863 30.2821C72.7749 30.2359 72.6796 30.1577 72.6126 30.0574C72.5455 29.9571 72.5098 29.8392 72.5098 29.7185C72.5098 29.5568 72.574 29.4016 72.6884 29.2872C72.8028 29.1728 72.958 29.1085 73.1198 29.1085Z" fill="#002447"/>
<path d="M73.1198 15.0585C73.2404 15.0585 73.3583 15.0943 73.4587 15.1613C73.559 15.2284 73.6372 15.3236 73.6833 15.4351C73.7295 15.5466 73.7416 15.6692 73.718 15.7875C73.6945 15.9059 73.6364 16.0146 73.5511 16.0999C73.4658 16.1852 73.3571 16.2433 73.2388 16.2668C73.1204 16.2903 72.9978 16.2783 72.8863 16.2321C72.7749 16.1859 72.6796 16.1077 72.6126 16.0074C72.5455 15.9071 72.5098 15.7892 72.5098 15.6685C72.5098 15.5094 72.573 15.3568 72.6855 15.2443C72.798 15.1317 72.9506 15.0685 73.1098 15.0685L73.1198 15.0585Z" fill="#002447"/>
<path d="M73.1198 1.05853C73.2815 1.05853 73.4367 1.1228 73.5511 1.2372C73.6655 1.35159 73.7298 1.50675 73.7298 1.66853C73.7298 1.83031 73.6655 1.98547 73.5511 2.09987C73.4367 2.21427 73.2815 2.27853 73.1198 2.27853C72.958 2.27853 72.8028 2.21427 72.6884 2.09987C72.574 1.98547 72.5098 1.83031 72.5098 1.66853C72.5098 1.5094 72.573 1.35679 72.6855 1.24427C72.798 1.13175 72.9506 1.06853 73.1098 1.06853L73.1198 1.05853Z" fill="#002447"/>
<path d="M85.7699 197.739C85.85 197.737 85.9296 197.752 86.0041 197.781C86.0787 197.811 86.1466 197.854 86.2042 197.91C86.2618 197.966 86.3078 198.032 86.3397 198.106C86.3715 198.179 86.3886 198.258 86.3899 198.339C86.3912 198.419 86.3768 198.498 86.3473 198.573C86.3179 198.647 86.2741 198.715 86.2184 198.773C86.1626 198.83 86.0961 198.876 86.0226 198.908C85.9491 198.94 85.87 198.957 85.7899 198.959C85.7098 198.96 85.6302 198.945 85.5557 198.916C85.4812 198.887 85.4132 198.843 85.3556 198.787C85.2981 198.731 85.252 198.665 85.2202 198.591C85.1883 198.518 85.1712 198.439 85.1699 198.359C85.1699 198.199 85.2331 198.047 85.3457 197.934C85.4582 197.822 85.6108 197.759 85.7699 197.759" fill="#002447"/>
<path d="M85.7699 183.689C85.8886 183.689 86.0046 183.724 86.1033 183.79C86.2019 183.856 86.2788 183.949 86.3242 184.059C86.3697 184.169 86.3815 184.289 86.3584 184.406C86.3352 184.522 86.2781 184.629 86.1942 184.713C86.1103 184.797 86.0034 184.854 85.887 184.877C85.7706 184.9 85.6499 184.888 85.5403 184.843C85.4307 184.797 85.337 184.721 85.271 184.622C85.2051 184.523 85.1699 184.407 85.1699 184.289C85.1699 184.129 85.2331 183.977 85.3457 183.864C85.4582 183.752 85.6108 183.689 85.7699 183.689Z" fill="#002447"/>
<path d="M85.7699 169.629C85.8886 169.629 86.0046 169.664 86.1033 169.73C86.2019 169.796 86.2788 169.889 86.3242 169.999C86.3697 170.109 86.3815 170.229 86.3584 170.346C86.3352 170.462 86.2781 170.569 86.1942 170.653C86.1103 170.737 86.0034 170.794 85.887 170.817C85.7706 170.84 85.6499 170.828 85.5403 170.783C85.4307 170.737 85.337 170.661 85.271 170.562C85.2051 170.463 85.1699 170.347 85.1699 170.229C85.1699 170.069 85.2331 169.917 85.3457 169.804C85.4582 169.692 85.6108 169.629 85.7699 169.629Z" fill="#002447"/>
<path d="M85.7699 155.579C85.8886 155.579 86.0046 155.614 86.1033 155.68C86.2019 155.746 86.2788 155.839 86.3242 155.949C86.3697 156.059 86.3815 156.179 86.3584 156.296C86.3352 156.412 86.2781 156.519 86.1942 156.603C86.1103 156.687 86.0034 156.744 85.887 156.767C85.7706 156.79 85.6499 156.778 85.5403 156.733C85.4307 156.687 85.337 156.611 85.271 156.512C85.2051 156.413 85.1699 156.297 85.1699 156.179C85.1699 156.019 85.2331 155.867 85.3457 155.754C85.4582 155.642 85.6108 155.579 85.7699 155.579Z" fill="#002447"/>
<path d="M85.7701 141.519C85.8908 141.519 86.0087 141.554 86.109 141.621C86.2094 141.688 86.2875 141.784 86.3337 141.895C86.3799 142.007 86.392 142.129 86.3684 142.248C86.3449 142.366 86.2868 142.475 86.2015 142.56C86.1162 142.645 86.0075 142.703 85.8892 142.727C85.7708 142.75 85.6482 142.738 85.5367 142.692C85.4252 142.646 85.33 142.568 85.263 142.467C85.1959 142.367 85.1602 142.249 85.1602 142.129C85.1602 141.967 85.2244 141.812 85.3388 141.697C85.4532 141.583 85.6084 141.519 85.7701 141.519Z" fill="#002447"/>
<path d="M85.7701 127.469C85.8908 127.469 86.0087 127.504 86.109 127.571C86.2094 127.638 86.2875 127.734 86.3337 127.845C86.3799 127.957 86.392 128.079 86.3684 128.198C86.3449 128.316 86.2868 128.425 86.2015 128.51C86.1162 128.595 86.0075 128.653 85.8892 128.677C85.7708 128.7 85.6482 128.688 85.5367 128.642C85.4252 128.596 85.33 128.518 85.263 128.417C85.1959 128.317 85.1602 128.199 85.1602 128.079C85.1602 127.917 85.2244 127.762 85.3388 127.647C85.4532 127.533 85.6084 127.469 85.7701 127.469Z" fill="#002447"/>
<path d="M85.7701 113.419C85.8908 113.419 86.0087 113.454 86.109 113.521C86.2094 113.588 86.2875 113.684 86.3337 113.795C86.3799 113.907 86.392 114.029 86.3684 114.148C86.3449 114.266 86.2868 114.375 86.2015 114.46C86.1162 114.545 86.0075 114.603 85.8892 114.627C85.7708 114.65 85.6482 114.638 85.5367 114.592C85.4252 114.546 85.33 114.468 85.263 114.367C85.1959 114.267 85.1602 114.149 85.1602 114.029C85.1602 113.867 85.2244 113.712 85.3388 113.597C85.4532 113.483 85.6084 113.419 85.7701 113.419Z" fill="#002447"/>
<path d="M85.7699 99.3685C85.85 99.3672 85.9296 99.3817 86.0041 99.4111C86.0787 99.4406 86.1466 99.4844 86.2042 99.5401C86.2618 99.5958 86.3078 99.6623 86.3397 99.7358C86.3715 99.8094 86.3886 99.8884 86.3899 99.9685C86.3912 100.049 86.3768 100.128 86.3473 100.203C86.3179 100.277 86.2741 100.345 86.2184 100.403C86.1626 100.46 86.0961 100.506 86.0226 100.538C85.9491 100.57 85.87 100.587 85.7899 100.589C85.7098 100.59 85.6302 100.575 85.5557 100.546C85.4812 100.517 85.4132 100.473 85.3556 100.417C85.2981 100.361 85.252 100.295 85.2202 100.221C85.1883 100.148 85.1712 100.069 85.1699 99.9885C85.1724 99.8292 85.2361 99.677 85.3478 99.5634C85.4595 99.4499 85.6107 99.3837 85.7699 99.3785" fill="#002447"/>
<path d="M85.7699 85.3185C85.8886 85.3185 86.0046 85.3537 86.1033 85.4197C86.2019 85.4856 86.2788 85.5793 86.3242 85.6889C86.3697 85.7986 86.3815 85.9192 86.3584 86.0356C86.3352 86.152 86.2781 86.2589 86.1942 86.3428C86.1103 86.4267 86.0034 86.4839 85.887 86.507C85.7706 86.5302 85.6499 86.5183 85.5403 86.4729C85.4307 86.4274 85.337 86.3505 85.271 86.2519C85.2051 86.1532 85.1699 86.0372 85.1699 85.9185C85.1699 85.7594 85.2331 85.6068 85.3457 85.4943C85.4582 85.3817 85.6108 85.3185 85.7699 85.3185Z" fill="#002447"/>
<path d="M85.7699 71.2685C85.85 71.2672 85.9296 71.2817 86.0041 71.3111C86.0787 71.3406 86.1466 71.3844 86.2042 71.4401C86.2618 71.4958 86.3078 71.5623 86.3397 71.6358C86.3715 71.7094 86.3886 71.7884 86.3899 71.8685C86.3912 71.9486 86.3768 72.0282 86.3473 72.1027C86.3179 72.1773 86.2741 72.2453 86.2184 72.3028C86.1626 72.3604 86.0961 72.4064 86.0226 72.4383C85.9491 72.4702 85.87 72.4872 85.7899 72.4885C85.7098 72.4899 85.6302 72.4754 85.5557 72.446C85.4812 72.4165 85.4132 72.3727 85.3556 72.317C85.2981 72.2612 85.252 72.1947 85.2202 72.1212C85.1883 72.0477 85.1712 71.9686 85.1699 71.8885C85.1699 71.7294 85.2331 71.5768 85.3457 71.4643C85.4582 71.3517 85.6108 71.2885 85.7699 71.2885" fill="#002447"/>
<path d="M85.7699 57.2185C85.8886 57.2185 86.0046 57.2537 86.1033 57.3197C86.2019 57.3856 86.2788 57.4793 86.3242 57.5889C86.3697 57.6986 86.3815 57.8192 86.3584 57.9356C86.3352 58.052 86.2781 58.1589 86.1942 58.2428C86.1103 58.3267 86.0034 58.3839 85.887 58.407C85.7706 58.4302 85.6499 58.4183 85.5403 58.3729C85.4307 58.3275 85.337 58.2505 85.271 58.1519C85.2051 58.0532 85.1699 57.9372 85.1699 57.8185C85.1699 57.6594 85.2331 57.5068 85.3457 57.3943C85.4582 57.2818 85.6108 57.2185 85.7699 57.2185Z" fill="#002447"/>
<path d="M85.7699 43.1585C85.8886 43.1585 86.0046 43.1937 86.1033 43.2597C86.2019 43.3256 86.2788 43.4193 86.3242 43.5289C86.3697 43.6386 86.3815 43.7592 86.3584 43.8756C86.3352 43.992 86.2781 44.0989 86.1942 44.1828C86.1103 44.2667 86.0034 44.3239 85.887 44.347C85.7706 44.3702 85.6499 44.3583 85.5403 44.3129C85.4307 44.2675 85.337 44.1906 85.271 44.0919C85.2051 43.9932 85.1699 43.8772 85.1699 43.7585C85.1699 43.5994 85.2331 43.4468 85.3457 43.3343C85.4582 43.2218 85.6108 43.1585 85.7699 43.1585Z" fill="#002447"/>
<path d="M85.7699 29.1085C85.8886 29.1085 86.0046 29.1437 86.1033 29.2097C86.2019 29.2756 86.2788 29.3693 86.3242 29.4789C86.3697 29.5886 86.3815 29.7092 86.3584 29.8256C86.3352 29.942 86.2781 30.0489 86.1942 30.1328C86.1103 30.2167 86.0034 30.2739 85.887 30.297C85.7706 30.3202 85.6499 30.3083 85.5403 30.2629C85.4307 30.2175 85.337 30.1405 85.271 30.0419C85.2051 29.9432 85.1699 29.8272 85.1699 29.7085C85.1699 29.5494 85.2331 29.3968 85.3457 29.2843C85.4582 29.1717 85.6108 29.1085 85.7699 29.1085Z" fill="#002447"/>
<path d="M85.7701 15.0485C85.8908 15.0485 86.0087 15.0843 86.109 15.1513C86.2094 15.2184 86.2875 15.3136 86.3337 15.4251C86.3799 15.5366 86.392 15.6592 86.3684 15.7775C86.3449 15.8959 86.2868 16.0046 86.2015 16.0899C86.1162 16.1752 86.0075 16.2333 85.8892 16.2568C85.7708 16.2804 85.6482 16.2683 85.5367 16.2221C85.4252 16.1759 85.33 16.0977 85.263 15.9974C85.1959 15.8971 85.1602 15.7792 85.1602 15.6585C85.1602 15.4968 85.2244 15.3416 85.3388 15.2272C85.4532 15.1128 85.6084 15.0485 85.7701 15.0485Z" fill="#002447"/>
<path d="M85.7701 0.998535C85.9319 0.998535 86.0871 1.0628 86.2015 1.1772C86.3159 1.2916 86.3801 1.44675 86.3801 1.60854C86.3801 1.77032 86.3159 1.92547 86.2015 2.03987C86.0871 2.15427 85.9319 2.21854 85.7701 2.21854C85.6084 2.21854 85.4532 2.15427 85.3388 2.03987C85.2244 1.92547 85.1602 1.77032 85.1602 1.60854C85.1602 1.44675 85.2244 1.2916 85.3388 1.1772C85.4532 1.0628 85.6084 0.998535 85.7701 0.998535Z" fill="#002447"/>
</svg>
