<svg width="23" height="23" viewBox="0 0 23 23" fill="none" xmlns="http://www.w3.org/2000/svg">
<path d="M22.7381 21.4735L17.1249 15.8605C18.5202 14.1827 19.3607 12.0282 19.3607 9.68067C19.3607 4.34272 15.0181 0 9.68043 0C4.34261 0 0 4.34272 0 9.68067C0 15.0182 4.34261 19.3606 9.68043 19.3606C12.0278 19.3606 14.1824 18.5202 15.8603 17.1249L21.4735 22.7381C21.648 22.9127 21.877 23 22.1058 23C22.3346 23 22.5635 22.9127 22.7382 22.7381C23.0874 22.3888 23.0874 21.8227 22.7381 21.4735ZM1.78845 9.68067C1.78845 5.32888 5.32876 1.78845 9.68043 1.78845C14.032 1.78845 17.5722 5.32888 17.5722 9.68067C17.5722 14.0321 14.032 17.5722 9.68043 17.5722C5.32876 17.5722 1.78845 14.0321 1.78845 9.68067Z" fill="#1F242E"/>
</svg>
