<svg width="44" height="48" viewBox="0 0 44 48" fill="none" xmlns="http://www.w3.org/2000/svg">
<path d="M43.4778 18.9228L37.5685 5.98667C36.9848 4.70886 36.3229 4.02721 35.039 3.38146L28.5148 0.100123C28.3093 -0.00337718 28.0729 -0.0276584 27.851 0.0320602C23.3123 1.24818 20.6877 1.24818 16.149 0.0320602C15.9269 -0.0276584 15.6906 -0.00337718 15.4852 0.100123L8.96106 3.38146C7.67716 4.02721 7.01528 4.70886 6.4315 5.98667L0.522359 18.9228C0.326797 19.351 0.479047 19.8579 0.878233 20.1074L7.93787 24.5197V47.0625C7.93787 47.5802 8.35759 48 8.87537 48H35.1249C35.6426 48 36.0623 47.5802 36.0623 47.0625V24.5197L43.122 20.1075C43.5211 19.8579 43.6733 19.3511 43.4778 18.9228ZM7.93778 22.3086L2.56967 18.9535L7.93778 7.20167V22.3086ZM26.987 2.18127C26.4058 4.19108 24.3906 5.67786 22.0001 5.67786C19.6095 5.67786 17.5942 4.19099 17.013 2.18127C20.6699 3.03018 23.3301 3.03018 26.987 2.18127ZM9.81278 46.125V44.2499H17.7809C18.2987 44.2499 18.7184 43.8301 18.7184 43.3124C18.7184 42.7947 18.2987 42.3749 17.7809 42.3749H9.81278V5.0518L15.1287 2.37824C15.813 5.3323 18.6333 7.55286 22.0001 7.55286C25.3668 7.55286 28.1871 5.3323 28.8715 2.37824L34.1874 5.0518V42.3749H26.2186C25.7008 42.3749 25.2811 42.7947 25.2811 43.3124C25.2811 43.8301 25.7008 44.2499 26.2186 44.2499H34.1874V46.125H9.81278ZM36.0623 22.3085V7.20176L41.4304 18.9536L36.0623 22.3085Z" fill="#F4AA3E"/>
<path d="M24.5832 24.1589L25.3146 24.8903C25.4977 25.0733 25.7376 25.1649 25.9775 25.1649C26.2174 25.1649 26.4574 25.0733 26.6404 24.8903C27.0065 24.5243 27.0066 23.9306 26.6404 23.5644L25.909 22.833C26.235 22.3412 26.4714 21.7851 26.5933 21.1875H27.6251C28.1429 21.1875 28.5626 20.7677 28.5626 20.25C28.5626 19.7323 28.1429 19.3125 27.6251 19.3125H26.5933C26.4716 18.7148 26.2352 18.1587 25.9091 17.6669L26.6405 16.9355C27.0066 16.5694 27.0066 15.9757 26.6405 15.6096C26.2744 15.2436 25.6808 15.2436 25.3147 15.6096L24.5833 16.341C24.0914 16.0149 23.5352 15.7785 22.9377 15.6567V14.625C22.9377 14.1073 22.5179 13.6875 22.0002 13.6875C21.4824 13.6875 21.0627 14.1073 21.0627 14.625V15.6567C20.4651 15.7785 19.9089 16.0149 19.4171 16.341L18.6856 15.6096C18.3196 15.2437 17.7259 15.2436 17.3598 15.6096C16.9937 15.9757 16.9936 16.5693 17.3598 16.9355L18.0912 17.6669C17.7652 18.1587 17.5287 18.7149 17.4071 19.3125H16.3752C15.8575 19.3125 15.4377 19.7323 15.4377 20.25C15.4377 20.7677 15.8575 21.1875 16.3752 21.1875H17.4071C17.5288 21.7851 17.7652 22.3412 18.0912 22.833L17.3598 23.5645C16.9937 23.9306 16.9937 24.5242 17.3598 24.8904C17.5429 25.0734 17.7828 25.165 18.0227 25.165C18.2626 25.165 18.5026 25.0734 18.6856 24.8904L19.4171 24.1589C19.9089 24.485 20.465 24.7214 21.0627 24.8432V25.875C21.0627 26.3927 21.4824 26.8125 22.0002 26.8125C22.5179 26.8125 22.9377 26.3927 22.9377 25.875V24.8431C23.5352 24.7213 24.0913 24.485 24.5832 24.1589ZM19.1877 20.25C19.1877 18.6992 20.4493 17.4375 22.0002 17.4375C23.551 17.4375 24.8127 18.6992 24.8127 20.25C24.8127 21.8008 23.551 23.0625 22.0002 23.0625C20.4493 23.0625 19.1877 21.8008 19.1877 20.25Z" fill="#F4AA3E"/>
<path d="M22.0001 42.375H21.9994C21.4816 42.375 21.0623 42.7948 21.0623 43.3125C21.0623 43.8302 21.4823 44.25 22.0001 44.25C22.5179 44.25 22.9376 43.8302 22.9376 43.3125C22.9376 42.7948 22.5179 42.375 22.0001 42.375Z" fill="#F4AA3E"/>
</svg>
