<svg width="84" height="83" viewBox="0 0 84 83" fill="none" xmlns="http://www.w3.org/2000/svg">
<path d="M56.8554 60.9039H50.407C50.1915 60.9011 49.9822 60.9758 49.8172 61.1144C49.6522 61.253 49.5425 61.4463 49.508 61.659L46.9011 78.1996C46.889 78.2764 46.8937 78.3549 46.9147 78.4297C46.9358 78.5045 46.9728 78.5739 47.0231 78.6331C47.0735 78.6923 47.1361 78.7399 47.2065 78.7726C47.277 78.8054 47.3538 78.8225 47.4315 78.8229H50.7276C50.8768 78.8225 51.021 78.7689 51.1341 78.6716C51.2473 78.5744 51.3221 78.4399 51.3449 78.2925L52.085 73.603C52.1188 73.3897 52.2283 73.1958 52.3933 73.0566C52.5584 72.9173 52.7681 72.8422 52.984 72.8449H55.0246C59.2736 72.8449 61.7247 70.7893 62.366 66.7141C62.6656 64.9311 62.366 63.5318 61.542 62.5519C60.64 61.4732 59.0309 60.9039 56.8554 60.9039ZM57.6016 66.9448C57.248 69.2611 55.4801 69.2611 53.7691 69.2611H52.7982L53.4784 64.9371C53.499 64.8104 53.5639 64.695 53.6616 64.6116C53.7592 64.5282 53.8833 64.4821 54.0118 64.4817H54.4552C55.6209 64.4817 56.7206 64.4817 57.2869 65.1469C57.6255 65.5424 57.7304 66.1327 57.6016 66.9448Z" fill="#0FB6FF"/>
<path d="M10.8505 60.9038H4.39905C4.18615 60.9046 3.98045 60.9809 3.81857 61.1192C3.65669 61.2575 3.54915 61.4487 3.51509 61.6589L0.899149 78.1995C0.886009 78.2772 0.890063 78.3569 0.911027 78.4329C0.93199 78.5089 0.969354 78.5793 1.02049 78.6393C1.07162 78.6993 1.13528 78.7474 1.20699 78.7801C1.27869 78.8128 1.3567 78.8295 1.43552 78.8288H4.51591C4.73182 78.8315 4.94148 78.7563 5.10654 78.6171C5.27161 78.4779 5.38105 78.2839 5.41486 78.0707L6.11904 73.6089C6.14889 73.3975 6.25302 73.2036 6.41279 73.0619C6.57256 72.9203 6.77754 72.8401 6.99102 72.8358H9.03163C13.2807 72.8358 15.7348 70.7802 16.373 66.705C16.6727 64.9221 16.373 63.5227 15.552 62.5429C14.6351 61.4731 13.008 60.9038 10.8505 60.9038ZM11.5936 66.9447C11.243 69.261 9.47211 69.261 7.76411 69.261H6.79025L7.47345 64.9371C7.4928 64.8103 7.55694 64.6946 7.65424 64.611C7.75155 64.5275 7.87557 64.4816 8.00383 64.4816H8.45031C9.61295 64.4816 10.7127 64.4816 11.282 65.1468C11.6206 65.5423 11.7225 66.1327 11.5936 66.9447Z" fill="#0052EB"/>
<path d="M30.1299 66.8698H27.0405C26.9123 66.8698 26.7882 66.9157 26.6909 66.9993C26.5936 67.0828 26.5295 67.1985 26.5101 67.3253L26.3693 68.1883L26.1536 67.8736C25.4823 66.9028 23.9931 66.5792 22.5038 66.5792C19.0908 66.5792 16.1752 69.1651 15.6119 72.7939C15.3123 74.5918 15.7348 76.3297 16.7626 77.5373C17.7035 78.646 19.0489 79.1075 20.658 79.1075C21.4531 79.1137 22.2413 78.9596 22.9755 78.6543C23.7097 78.3489 24.3747 77.8988 24.931 77.3306L24.7932 78.1876C24.7781 78.2657 24.7806 78.3461 24.8003 78.4232C24.82 78.5002 24.8565 78.5719 24.9072 78.6332C24.9579 78.6945 25.0215 78.7438 25.0935 78.7776C25.1654 78.8114 25.244 78.8289 25.3235 78.8288H28.1073C28.3232 78.8315 28.5328 78.7563 28.6979 78.6171C28.863 78.4779 28.9724 78.284 29.0062 78.0707L30.6753 67.4991C30.6886 67.4206 30.6843 67.3402 30.6628 67.2635C30.6414 67.1869 30.6032 67.1159 30.5511 67.0558C30.4989 66.9956 30.4341 66.9478 30.3613 66.9156C30.2885 66.8835 30.2095 66.8678 30.1299 66.8698ZM25.8239 72.8838C25.7034 73.7161 25.2824 74.4754 24.6404 75.0186C23.9984 75.5618 23.1798 75.8513 22.339 75.8323C21.9534 75.8718 21.564 75.8172 21.2042 75.6732C20.8443 75.5292 20.5247 75.3 20.2728 75.0054C20.0209 74.7108 19.8442 74.3595 19.7579 73.9817C19.6715 73.6038 19.6781 73.2106 19.777 72.8358C19.8948 72.0047 20.3109 71.2448 20.9477 70.6978C21.5845 70.1509 22.3986 69.8543 23.238 69.8633C23.6225 69.8425 24.0068 69.9072 24.3633 70.0528C24.7198 70.1984 25.0396 70.4213 25.2996 70.7053C25.5408 71.0081 25.7128 71.36 25.8034 71.7364C25.894 72.1128 25.901 72.5044 25.8239 72.8838Z" fill="#0052EB"/>
<path d="M76.1376 66.8698H73.0482C72.9198 66.8692 72.7954 66.9149 72.698 66.9985C72.6006 67.0822 72.5366 67.1982 72.5178 67.3253L72.38 68.1883L72.1643 67.8736C71.496 66.9028 70.0038 66.5792 68.5175 66.5792C65.1045 66.5792 62.1889 69.1651 61.6256 72.7939C61.326 74.5918 61.7485 76.3297 62.7733 77.5373C63.7172 78.646 65.0626 79.1075 66.6687 79.1075C67.4633 79.1133 68.2509 78.959 68.9846 78.6537C69.7182 78.3484 70.3828 77.8984 70.9387 77.3306L70.8009 78.1876C70.7882 78.2644 70.7925 78.3431 70.8134 78.4181C70.8342 78.4932 70.8712 78.5628 70.9217 78.6221C70.9721 78.6814 71.0349 78.729 71.1056 78.7616C71.1764 78.7942 71.2534 78.811 71.3312 78.8108H74.112C74.3279 78.8135 74.5375 78.7384 74.7026 78.5992C74.8677 78.46 74.9771 78.266 75.0109 78.0527L76.68 67.4811C76.6903 67.4042 76.684 67.326 76.6613 67.2518C76.6387 67.1776 76.6004 67.1092 76.5489 67.0512C76.4974 66.9931 76.434 66.9469 76.363 66.9156C76.2921 66.8843 76.2152 66.8687 76.1376 66.8698ZM71.8316 72.8838C71.7105 73.7158 71.2893 74.4748 70.6474 75.0179C70.0056 75.5609 69.1873 75.8506 68.3467 75.8323C67.9614 75.8713 67.5723 75.8163 67.2129 75.672C66.8534 75.5278 66.5342 75.2986 66.2827 75.0041C66.0312 74.7095 65.8548 74.3584 65.7686 73.9808C65.6824 73.6032 65.6889 73.2103 65.7877 72.8358C65.9055 72.0047 66.3216 71.2448 66.9584 70.6978C67.5953 70.1509 68.4093 69.8543 69.2487 69.8633C69.6327 69.8425 70.0166 69.9073 70.3726 70.0529C70.7286 70.1985 71.0479 70.4213 71.3073 70.7053C71.5478 71.0085 71.7194 71.3604 71.8099 71.7367C71.9005 72.1129 71.9079 72.5044 71.8316 72.8838Z" fill="#0FB6FF"/>
<path d="M46.5804 66.8699H43.476C43.3296 66.8698 43.1853 66.9056 43.0558 66.974C42.9263 67.0424 42.8154 67.1414 42.7329 67.2624L38.4509 73.5551L36.653 67.4962C36.5976 67.3111 36.4841 67.1487 36.3292 67.0332C36.1743 66.9177 35.9863 66.8552 35.793 66.8549H32.7276C32.642 66.8551 32.5576 66.8757 32.4815 66.915C32.4054 66.9542 32.3397 67.0111 32.2899 67.0808C32.2401 67.1505 32.2077 67.231 32.1952 67.3158C32.1827 67.4005 32.1906 67.487 32.2182 67.5681L35.6372 77.6303L32.422 82.152C32.3647 82.2323 32.3306 82.3268 32.3235 82.4251C32.3165 82.5235 32.3366 82.6219 32.3819 82.7096C32.4271 82.7972 32.4956 82.8707 32.5798 82.9219C32.6641 82.9732 32.7609 83.0002 32.8595 83H35.9578C36.1025 83.0001 36.2451 82.9653 36.3734 82.8985C36.5017 82.8318 36.612 82.735 36.695 82.6165L47.0179 67.7149C47.0744 67.6347 47.1077 67.5405 47.1144 67.4426C47.121 67.3447 47.1007 67.2468 47.0555 67.1597C47.0104 67.0725 46.9423 66.9994 46.8585 66.9483C46.7747 66.8973 46.6785 66.8701 46.5804 66.8699Z" fill="#0052EB"/>
<path d="M79.7785 61.3592L77.1296 78.1995C77.1175 78.2763 77.1222 78.3548 77.1432 78.4296C77.1643 78.5044 77.2013 78.5738 77.2516 78.633C77.302 78.6922 77.3646 78.7398 77.4351 78.7725C77.5055 78.8053 77.5823 78.8225 77.66 78.8228H80.3239C80.5372 78.8219 80.7433 78.7451 80.9052 78.6062C81.0672 78.4673 81.1744 78.2754 81.2078 78.0647L83.8178 61.5241C83.8299 61.4474 83.8253 61.3691 83.8042 61.2944C83.7831 61.2197 83.7461 61.1505 83.6957 61.0916C83.6453 61.0326 83.5826 60.9853 83.5122 60.9529C83.4417 60.9204 83.365 60.9037 83.2874 60.9038H80.3059C80.178 60.9038 80.0544 60.9499 79.9575 61.0335C79.8607 61.1171 79.7972 61.2327 79.7785 61.3592Z" fill="#0FB6FF"/>
<path d="M62.474 14.5182C63.1272 10.3531 62.474 7.52137 60.2176 4.95638C57.7395 2.1187 53.2598 0.920105 47.5305 0.920105H30.894C30.3276 0.920289 29.7797 1.12258 29.3491 1.49061C28.9185 1.85863 28.6333 2.36823 28.5448 2.92775L21.6169 46.8503C21.5849 47.0542 21.5974 47.2626 21.6536 47.4612C21.7098 47.6598 21.8083 47.8439 21.9425 48.0008C22.0766 48.1577 22.2431 48.2837 22.4305 48.3701C22.6179 48.4565 22.8219 48.5013 23.0283 48.5014H33.2972L32.59 52.9961C32.5614 53.1743 32.5718 53.3566 32.6205 53.5304C32.6693 53.7042 32.7552 53.8653 32.8723 54.0027C32.9894 54.14 33.1349 54.2503 33.2988 54.3259C33.4627 54.4015 33.6411 54.4405 33.8216 54.4404H42.4784C42.9746 54.4406 43.4544 54.2635 43.8314 53.9409C44.2083 53.6184 44.4575 53.1717 44.534 52.6815L44.6209 52.244L46.251 41.9031L46.3559 41.3308C46.433 40.8411 46.6825 40.3952 47.0594 40.0732C47.4363 39.7513 47.9158 39.5745 48.4115 39.5748H49.706C58.0961 39.5748 64.6584 36.1678 66.5762 26.3154C67.3792 22.1982 66.9627 18.7612 64.8442 16.346C64.173 15.5964 63.3696 14.9768 62.474 14.5182Z" fill="#0FB6FF"/>
<path d="M62.474 14.5182C63.1272 10.3531 62.474 7.52138 60.2176 4.95638C57.7395 2.1187 53.2598 0.920105 47.5305 0.920105H30.894C30.3276 0.920289 29.7797 1.12258 29.3491 1.49061C28.9185 1.85863 28.6333 2.36823 28.5448 2.92775L21.6169 46.8503C21.5849 47.0542 21.5974 47.2627 21.6536 47.4613C21.7098 47.6599 21.8083 47.8439 21.9425 48.0008C22.0766 48.1577 22.2431 48.2837 22.4305 48.3701C22.6179 48.4565 22.8219 48.5013 23.0283 48.5014H33.2972L35.8772 32.1436L35.7963 32.659C35.8822 32.0991 36.1658 31.5886 36.5956 31.2197C37.0254 30.8509 37.5731 30.6482 38.1395 30.6483H43.0208C52.6095 30.6483 60.1007 26.7529 62.3032 15.492C62.3691 15.1594 62.426 14.8358 62.474 14.5182Z" fill="#002169"/>
<path d="M38.655 14.5721C38.7321 14.0825 38.9816 13.6365 39.3585 13.3145C39.7354 12.9926 40.2149 12.8159 40.7106 12.8162H53.7513C55.1903 12.8017 56.6282 12.9019 58.0512 13.1158C58.4288 13.1758 58.7944 13.2477 59.151 13.3256C59.5075 13.4035 59.8491 13.4934 60.1848 13.5893L60.6792 13.7451C61.2987 13.948 61.9001 14.2026 62.4771 14.5062C63.1303 10.3411 62.4771 7.50939 60.2207 4.94439C57.7396 2.1187 53.2599 0.920105 47.5306 0.920105H30.8941C30.3276 0.920289 29.7798 1.12258 29.3491 1.49061C28.9185 1.85863 28.6333 2.36823 28.5448 2.92775L21.6169 46.8503C21.5849 47.0542 21.5974 47.2626 21.6536 47.4612C21.7098 47.6598 21.8083 47.8439 21.9425 48.0008C22.0766 48.1577 22.2431 48.2837 22.4305 48.3701C22.6179 48.4565 22.8219 48.5013 23.0283 48.5014H33.2972L35.8772 32.1435L38.655 14.5721Z" fill="#0052EB"/>
</svg>
