<svg width="288" height="111" viewBox="0 0 288 111" fill="none" xmlns="http://www.w3.org/2000/svg">
<path d="M254.033 42.8147H254.263C254.98 42.8147 255.687 42.8872 256.385 43.0323C257.165 43.1954 257.908 43.4855 258.615 43.9025C259.213 44.2923 259.635 44.7773 259.879 45.3575C260.125 45.9286 260.287 46.5269 260.369 47.1524C260.478 48.0227 260.532 48.9428 260.532 49.9127C260.532 50.3116 260.523 50.7195 260.505 51.1365V51.4085C260.496 51.5807 260.491 51.7529 260.491 51.9251C260.464 52.8045 260.451 53.6566 260.451 54.4815C260.451 54.8985 260.455 55.3065 260.464 55.7053C260.482 56.9019 260.591 57.8674 260.79 58.6016C261.135 59.617 261.642 60.3241 262.313 60.7229C262.984 61.1218 263.565 61.353 264.054 61.4164L263.469 64.3535C262.943 64.2628 262.318 64.0498 261.593 63.7144C260.858 63.379 260.151 62.8669 259.472 62.1779C258.791 61.4889 258.275 60.5779 257.921 59.4447C257.676 58.5745 257.527 57.6544 257.473 56.6844C257.436 56.1042 257.418 55.5196 257.418 54.9303C257.418 54.5405 257.428 54.1461 257.445 53.7473C256.929 53.72 256.34 53.6929 255.677 53.6656C255.306 53.6566 254.948 53.6521 254.604 53.6521C254.023 53.6521 253.471 53.6656 252.945 53.6929C252.854 55.5059 252.673 57.3688 252.401 59.2816L249.45 58.8328C249.785 56.4305 249.976 54.119 250.021 51.898C250.03 51.2816 250.035 50.7104 250.035 50.1846C250.035 48.8068 249.994 47.7462 249.912 47.0028L252.89 46.6765C252.99 47.583 253.04 48.7751 253.04 50.2527V50.6334C253.14 50.6244 253.243 50.6198 253.352 50.6198H253.733C254.359 50.6198 254.998 50.6379 255.651 50.6741H255.786C256.439 50.7014 257.019 50.7331 257.527 50.7694C257.527 50.6606 257.531 50.5518 257.541 50.443C257.549 50.1529 257.554 49.881 257.554 49.6271C257.554 48.8385 257.504 48.1631 257.405 47.6011C257.223 46.9121 256.829 46.4408 256.221 46.1869C255.605 45.9331 254.916 45.8062 254.155 45.8062C253.384 45.8062 252.673 45.8515 252.02 45.9421C251.05 46.0601 250.238 46.2005 249.586 46.3637L248.607 46.5948L247.777 43.7393L248.892 43.4538C249.645 43.2725 250.574 43.1093 251.68 42.9643C252.223 42.9009 252.786 42.8555 253.366 42.8283C253.592 42.8192 253.815 42.8147 254.033 42.8147Z" fill="white"/>
<path d="M265.173 45.2625L268.151 45.4664C268.115 45.8925 268.088 46.3322 268.07 46.7854C268.786 46.0511 269.702 45.5933 270.817 45.412C271.061 45.3667 271.306 45.344 271.551 45.344L271.796 45.3577C272.784 45.403 273.627 45.7247 274.325 46.323C275.168 47.1661 275.63 48.1587 275.712 49.301L272.748 49.6002C272.666 49.0472 272.525 48.6981 272.326 48.5531C272.072 48.3446 271.804 48.2404 271.523 48.2404C271.396 48.2404 271.27 48.263 271.143 48.3083C270.726 48.4443 270.345 48.68 270 49.0154C269.656 49.3418 269.407 49.65 269.253 49.9401C268.736 50.901 268.405 52.1429 268.26 53.6658C268.224 54.0828 268.206 54.5089 268.206 54.944C268.206 56.0953 268.337 57.2919 268.6 58.5338L265.704 59.2817C265.214 57.4687 264.951 55.3022 264.916 52.782V51.8709C264.916 49.6591 265.002 47.4562 265.173 45.2625Z" fill="white"/>
<path d="M281.318 40.3535L284.228 41.0742C283.957 42.1801 283.766 43.6079 283.657 45.3575C284.736 45.3756 285.81 45.4798 286.88 45.6702L286.336 48.6073C285.511 48.4713 284.632 48.4034 283.698 48.4034H283.522V50.5653C283.549 52.2878 283.635 53.72 283.779 54.8622C283.843 55.3609 283.911 55.7416 283.984 56.0044C284.228 56.0861 284.573 56.154 285.017 56.2084C285.606 56.2719 286.227 56.3036 286.88 56.3036C287.106 56.3036 287.333 56.2991 287.56 56.2901L287.668 59.2679C287.397 59.277 287.124 59.2816 286.853 59.2816C286.118 59.2816 285.398 59.2453 284.69 59.1728C283.775 59.1274 282.927 58.9008 282.147 58.4929C281.912 58.3569 281.744 58.2164 281.644 58.0713C281.536 57.9354 281.455 57.8085 281.4 57.6906C281.391 57.6725 281.386 57.6544 281.386 57.6362C281.268 57.3915 281.178 57.1513 281.114 56.9155C280.987 56.435 280.888 55.873 280.815 55.2294C280.652 53.9422 280.557 52.4056 280.53 50.6197V48.6073C280.149 48.6708 279.859 48.7342 279.659 48.7977L278.721 45.9694C279.274 45.7789 279.913 45.634 280.638 45.5342C280.738 43.5581 280.965 41.8311 281.318 40.3535Z" fill="white"/>
<path d="M107.265 42.8013H107.469C108.693 42.8013 109.827 43.0279 110.868 43.4811L110.923 43.5084L110.964 43.5355C111.535 43.88 112.007 44.306 112.378 44.8137C112.74 45.3304 113.035 45.8879 113.261 46.4862C113.715 47.6919 113.987 48.9565 114.078 50.28C114.114 50.7514 114.132 51.2137 114.132 51.667C114.132 52.5463 114.064 53.3893 113.928 54.1961C113.838 54.7673 113.697 55.3067 113.507 55.8143C113.316 56.331 113.017 56.7978 112.609 57.2149C111.812 57.9763 110.882 58.5066 109.821 58.8058C108.77 59.0958 107.682 59.25 106.558 59.2681C106.377 59.2772 106.2 59.2817 106.028 59.2817C103.934 59.2817 102.089 58.9327 100.494 58.2346L101.731 55.5151C102.13 55.6965 102.637 55.8551 103.254 55.991C103.263 55.5741 103.267 55.1616 103.267 54.7536C103.267 52.1701 103.095 49.6228 102.751 47.1117L105.702 46.6766C106.073 49.4324 106.259 52.1791 106.259 54.9168C106.259 55.3792 106.254 55.8369 106.245 56.2902C106.282 56.2902 106.318 56.2857 106.354 56.2766H106.463C107.378 56.2404 108.199 56.1134 108.924 55.8958C109.649 55.6692 110.17 55.4063 110.488 55.1072C110.506 55.0891 110.574 54.9531 110.692 54.6992C110.8 54.4364 110.9 54.0919 110.991 53.6658C111.091 53.0494 111.141 52.3877 111.141 51.6806C111.141 51.2998 111.127 50.91 111.1 50.5111C111.018 49.4052 110.814 48.4307 110.488 47.5877C110.143 46.8171 109.817 46.3412 109.509 46.1598C109.219 46.0511 108.688 45.9605 107.918 45.8879C107.465 45.8517 106.993 45.8335 106.504 45.8335C106.151 45.8335 105.792 45.8426 105.429 45.8607C104.523 45.9242 103.716 46.0239 103.009 46.1598C102.755 46.2052 102.529 46.2596 102.329 46.323C102.13 46.3774 101.985 46.4182 101.894 46.4455L101.826 46.4726L100.385 43.8619C100.992 43.5446 101.686 43.3315 102.465 43.2227C103.299 43.0687 104.219 42.9554 105.225 42.8828C105.724 42.8466 106.218 42.8239 106.708 42.8148C106.898 42.8058 107.083 42.8013 107.265 42.8013Z" fill="white"/>
<path d="M121.03 45.3167L118.121 46.0509C117.984 45.4618 117.903 44.8951 117.875 44.3512C117.857 43.9433 117.848 43.5852 117.848 43.277V42.8147H120.826C120.826 43.1773 120.84 43.5988 120.867 44.0793C120.894 44.5507 120.949 44.9631 121.03 45.3167ZM121.275 46.9892C121.401 48.5393 121.465 50.1665 121.465 51.8707C121.465 52.3512 121.461 52.8317 121.452 53.3121C121.407 55.5331 121.275 57.5229 121.058 59.2816L118.093 58.9144C118.292 57.3008 118.415 55.4153 118.46 53.2578C118.47 52.7682 118.474 52.2878 118.474 51.8164C118.474 50.1938 118.415 48.6663 118.297 47.2339L121.275 46.9892Z" fill="white"/>
<path d="M137.515 43.6709L137.895 44.8811L137.909 44.8947C138.725 47.6324 139.188 50.1978 139.297 52.591C139.305 52.8901 139.31 53.1803 139.31 53.4613C139.31 55.5009 138.975 57.3502 138.304 59.0091C137.506 60.949 136.187 62.4085 134.347 63.3876C133.051 64.0222 131.569 64.3395 129.9 64.3395C129.175 64.3395 128.418 64.2805 127.629 64.1626L128.078 61.2119C128.758 61.3026 129.388 61.348 129.968 61.348C131.219 61.348 132.234 61.1349 133.014 60.7088C134.156 60.1468 134.999 59.1995 135.543 57.8669C136.042 56.6431 136.292 55.1292 136.292 53.3252C136.292 53.0715 136.286 52.8086 136.278 52.5366C135.97 51.2493 135.457 50.2658 134.741 49.5858C134.016 48.897 133.223 48.489 132.361 48.3621C132.126 48.3258 131.895 48.3077 131.668 48.3077C131.07 48.3077 130.503 48.4391 129.968 48.702C129.551 48.9378 129.193 49.3321 128.894 49.885C128.585 50.438 128.404 51.1134 128.35 51.9111C128.341 52.0381 128.337 52.1649 128.337 52.2918C128.337 52.9536 128.437 53.5746 128.636 54.1547C128.872 54.8527 129.207 55.3876 129.642 55.7593C129.932 55.9678 130.217 56.072 130.498 56.072C130.689 56.072 130.875 56.0222 131.056 55.9224C131.436 55.723 131.627 55.2969 131.627 54.6442C131.627 54.5264 131.623 54.404 131.614 54.2771C131.559 53.8782 131.419 53.5157 131.192 53.1893C130.956 52.8539 130.544 52.5728 129.954 52.3462L131.015 49.5451C132.094 49.9802 132.924 50.5921 133.503 51.3807C134.084 52.1695 134.437 52.9853 134.564 53.8283C134.619 54.191 134.646 54.54 134.646 54.8754C134.646 55.3196 134.601 55.7412 134.51 56.14C134.338 56.8561 133.966 57.4817 133.394 58.0164C132.679 58.6601 131.804 59.0137 130.771 59.0771C130.689 59.0862 130.607 59.0907 130.526 59.0907C129.574 59.0907 128.654 58.7508 127.766 58.0708C126.822 57.2732 126.165 56.3122 125.794 55.1881C125.486 54.2544 125.332 53.3117 125.332 52.3598C125.332 52.1422 125.34 51.9293 125.359 51.7208C125.431 50.5423 125.721 49.4454 126.229 48.4301C126.746 47.4148 127.539 46.6216 128.608 46.0504C129.542 45.5791 130.512 45.3434 131.518 45.3434C131.618 45.3434 131.723 45.348 131.831 45.357C133.019 45.4114 134.147 45.7513 135.217 46.3768C135.217 46.3496 135.212 46.327 135.204 46.3088C135.194 46.2817 135.19 46.2589 135.19 46.2408C135.145 46.0777 135.095 45.9145 135.04 45.7513L134.673 44.5683L137.515 43.6709Z" fill="white"/>
<path d="M146.385 45.3167L143.476 46.0509C143.339 45.4618 143.258 44.8951 143.23 44.3512C143.212 43.9433 143.203 43.5852 143.203 43.277V42.8147H146.181C146.181 43.1773 146.195 43.5988 146.222 44.0793C146.249 44.5507 146.304 44.9631 146.385 45.3167ZM146.63 46.9892C146.756 48.5393 146.82 50.1665 146.82 51.8707C146.82 52.3512 146.816 52.8317 146.807 53.3121C146.762 55.5331 146.63 57.5229 146.413 59.2816L143.448 58.9144C143.647 57.3008 143.77 55.4153 143.815 53.2578C143.824 52.7682 143.829 52.2878 143.829 51.8164C143.829 50.1938 143.77 48.6663 143.652 47.2339L146.63 46.9892Z" fill="white"/>
<path d="M152.889 40.3535L155.799 41.0742C155.527 42.1801 155.337 43.6079 155.229 45.3575C156.307 45.3756 157.382 45.4798 158.451 45.6702L157.907 48.6073C157.082 48.4713 156.202 48.4034 155.269 48.4034H155.092V50.5653C155.12 52.2878 155.206 53.72 155.35 54.8622C155.414 55.3609 155.482 55.7416 155.555 56.0044C155.799 56.0861 156.144 56.154 156.588 56.2084C157.177 56.2719 157.798 56.3036 158.451 56.3036C158.677 56.3036 158.905 56.2991 159.131 56.2901L159.24 59.2679C158.967 59.277 158.696 59.2816 158.423 59.2816C157.69 59.2816 156.969 59.2453 156.262 59.1728C155.346 59.1274 154.498 58.9008 153.719 58.4929C153.483 58.3569 153.316 58.2164 153.216 58.0713C153.107 57.9354 153.025 57.8085 152.971 57.6906C152.962 57.6725 152.957 57.6544 152.957 57.6362C152.84 57.3915 152.749 57.1513 152.686 56.9155C152.559 56.435 152.459 55.873 152.386 55.2294C152.223 53.9422 152.128 52.4056 152.101 50.6197V48.6073C151.72 48.6708 151.43 48.7342 151.231 48.7977L150.292 45.9694C150.845 45.7789 151.484 45.634 152.21 45.5342C152.309 43.5581 152.536 41.8311 152.889 40.3535Z" fill="white"/>
<path d="M167.892 45.3705L168.355 45.3569C169.741 45.3569 171.155 45.5427 172.597 45.9144C172.977 46.0323 173.281 46.209 173.508 46.4448C173.734 46.6714 173.911 46.907 174.038 47.1518C174.283 47.6141 174.465 48.1036 174.582 48.6204C174.836 49.69 174.972 50.8459 174.99 52.0877C174.999 52.3235 175.003 52.5592 175.003 52.7948C175.003 53.7739 174.94 54.694 174.814 55.5552C174.732 56.072 174.619 56.5524 174.473 56.9966C174.465 57.0237 174.455 57.0465 174.446 57.0646C174.383 57.2821 174.287 57.4997 174.161 57.7173C174.034 57.9348 173.816 58.1524 173.508 58.3699C172.792 58.796 172.025 59.0453 171.21 59.1178C170.421 59.2357 169.605 59.2946 168.762 59.2946H168.585C167.688 59.2855 166.85 59.2176 166.07 59.0906C165.97 59.0725 165.875 59.0589 165.785 59.0498C165.467 59.0136 165.159 58.941 164.86 58.8322C164.56 58.7234 164.243 58.5059 163.908 58.1795C163.636 57.9076 163.445 57.6448 163.337 57.3909C163.228 57.128 163.142 56.856 163.078 56.575C163.069 56.5478 163.06 56.5161 163.051 56.4798C162.897 55.8725 162.802 55.2198 162.766 54.5218C162.747 54.2952 162.739 54.0731 162.739 53.8555C162.739 53.366 162.788 52.8175 162.888 52.2102C162.996 51.5937 163.341 50.9728 163.921 50.3472C164.067 50.2113 164.225 50.1025 164.397 50.0209C164.57 49.9303 164.719 49.8669 164.846 49.8306C165.1 49.7489 165.354 49.6945 165.607 49.6674C166.061 49.604 166.532 49.5722 167.021 49.5722H167.212C167.774 49.5722 168.309 49.613 168.817 49.6945C169.061 49.7399 169.315 49.8079 169.578 49.8985C169.723 49.9529 169.886 50.0436 170.067 50.1705C170.258 50.2883 170.426 50.4606 170.571 50.6872C170.806 51.0861 170.951 51.5122 171.006 51.9654C171.051 52.3008 171.074 52.6317 171.074 52.958L171.06 53.2708C171.042 54.0776 170.933 54.7982 170.734 55.4328L167.892 54.4946C167.91 54.4402 167.938 54.2816 167.973 54.0187C168.019 53.7558 168.051 53.4702 168.069 53.162C168.069 53.0079 168.055 52.8629 168.028 52.7269C168.028 52.6907 168.024 52.6544 168.014 52.6181C167.778 52.5819 167.503 52.5592 167.185 52.5501C166.832 52.5501 166.437 52.5773 166.002 52.6317C165.993 52.6408 165.988 52.6498 165.988 52.6589C165.943 52.7858 165.888 53.0033 165.825 53.3116C165.771 53.5835 165.744 53.8918 165.744 54.2362V54.3858C165.771 54.9025 165.839 55.3467 165.947 55.7184C165.966 55.8 165.988 55.868 166.015 55.9224L166.042 55.9767C166.052 55.9767 166.061 55.9813 166.07 55.9903C166.197 56.0538 166.364 56.1082 166.573 56.1535C167.144 56.2442 167.819 56.294 168.599 56.3031H168.79C169.506 56.3031 170.159 56.2577 170.748 56.1671C171.183 56.0946 171.491 56.0176 171.672 55.9359C171.735 55.7547 171.795 55.4827 171.849 55.1201C171.957 54.3768 172.012 53.5292 172.012 52.5773V52.1694C171.976 51.0453 171.867 50.098 171.686 49.3275C171.604 49.0465 171.532 48.847 171.468 48.7292C170.508 48.5207 169.51 48.4164 168.476 48.4164C168.395 48.4164 168.051 48.4209 167.443 48.43C166.845 48.439 166.138 48.4979 165.322 48.6067L164.098 48.7699L163.513 45.8328L164.765 45.6289C165.59 45.4929 166.632 45.4068 167.892 45.3705Z" fill="white"/>
<path d="M185.356 45.3569C186.344 45.375 187.155 45.4475 187.79 45.5745C188.424 45.6923 188.819 45.7784 188.973 45.8328L188.986 45.8465C189.44 45.9824 189.798 46.2272 190.06 46.5807C190.323 46.9252 190.487 47.2606 190.55 47.587C190.614 47.9133 190.645 48.226 190.645 48.5252C190.645 48.779 190.623 49.0192 190.577 49.2458C190.442 50.1705 190.288 50.9093 190.115 51.4623C190.087 51.562 190.065 51.6481 190.047 51.7207L187.15 50.9864C187.16 50.9592 187.169 50.9274 187.178 50.8911C187.196 50.8368 187.209 50.7824 187.219 50.728C187.382 50.1388 187.513 49.5268 187.613 48.8923C187.622 48.838 187.626 48.7926 187.626 48.7563V48.5796C187.137 48.4527 186.439 48.3665 185.532 48.3212H185.233C184.399 48.3212 183.447 48.4482 182.378 48.7019C182.314 48.8107 182.242 49.0147 182.16 49.3138C181.979 50.0844 181.87 51.0272 181.834 52.1421V52.5909C181.834 53.5246 181.883 54.3586 181.984 55.0929C182.047 55.4646 182.111 55.7411 182.174 55.9224C182.355 56.0039 182.673 56.081 183.125 56.1535C183.742 56.2532 184.436 56.3031 185.206 56.3031H185.397C186.257 56.2759 187.055 56.1853 187.79 56.0311C188.524 55.877 189.009 55.7319 189.245 55.596L190.836 58.1251C190.074 58.5875 189.231 58.8958 188.307 59.0498C187.382 59.2039 186.43 59.281 185.451 59.281H185.111C184.25 59.281 183.434 59.2221 182.663 59.1042C181.82 59.0226 181.045 58.7688 180.338 58.3427C180.03 58.1343 179.812 57.9212 179.685 57.7037C179.558 57.4861 179.463 57.2686 179.4 57.051C179.391 57.0419 179.387 57.0283 179.387 57.0102C179.377 57.0011 179.373 56.9875 179.373 56.9694C179.219 56.5342 179.106 56.0583 179.032 55.5416C178.905 54.6714 178.843 53.7467 178.843 52.7677C178.843 52.532 178.847 52.2963 178.856 52.0606C178.874 50.8187 179.01 49.6629 179.264 48.5932C179.381 48.0765 179.563 47.587 179.808 47.1246C179.935 46.8889 180.112 46.6533 180.338 46.4175C180.565 46.1909 180.869 46.0187 181.249 45.9008C182.636 45.5382 183.901 45.3569 185.043 45.3569H185.356Z" fill="white"/>
<path d="M194.552 45.2625L197.53 45.4664C197.494 45.8925 197.466 46.3322 197.449 46.7854C198.165 46.0511 199.08 45.5933 200.195 45.412C200.44 45.3667 200.684 45.344 200.93 45.344L201.174 45.3577C202.162 45.403 203.005 45.7247 203.703 46.323C204.546 47.1661 205.009 48.1587 205.09 49.301L202.126 49.6002C202.044 49.0472 201.903 48.6981 201.704 48.5531C201.451 48.3446 201.183 48.2404 200.902 48.2404C200.776 48.2404 200.649 48.263 200.521 48.3083C200.105 48.4443 199.723 48.68 199.379 49.0154C199.035 49.3418 198.785 49.65 198.631 49.9401C198.114 50.901 197.784 52.1429 197.638 53.6658C197.603 54.0828 197.584 54.5089 197.584 54.944C197.584 56.0953 197.716 57.2919 197.979 58.5338L195.082 59.2817C194.592 57.4687 194.33 55.3022 194.294 52.782V51.8709C194.294 49.6591 194.38 47.4562 194.552 45.2625Z" fill="white"/>
<path d="M215.197 45.3569C215.895 45.3569 216.644 45.4113 217.441 45.5201C218.348 45.647 219.136 45.9779 219.807 46.5127C220.569 47.392 220.95 48.6294 220.95 50.2249V50.2793C220.95 51.8476 220.564 53.1484 219.793 54.1818C219.495 54.4719 219.236 54.6533 219.019 54.7258C218.81 54.7982 218.611 54.8391 218.42 54.8481C218.33 54.8481 218.235 54.8572 218.135 54.8753C217.636 54.9388 217.115 54.9705 216.571 54.9705C216.027 54.9614 215.506 54.9161 215.007 54.8345C214.762 54.7982 214.513 54.7303 214.259 54.6305C214.232 54.6215 214.21 54.6124 214.191 54.6034C214.064 54.5581 213.919 54.4856 213.756 54.3858C213.602 54.2861 213.444 54.1094 213.28 53.8555C212.954 53.2572 212.786 52.5727 212.777 51.8022C212.777 51.0407 212.882 50.2928 213.09 49.5586L215.891 49.8985C215.774 50.3427 215.706 50.796 215.687 51.2583C215.678 51.3399 215.673 51.4215 215.673 51.5031C215.673 51.6572 215.687 51.7932 215.714 51.911C215.959 51.9473 216.254 51.9699 216.599 51.979C217.034 51.979 217.4 51.9563 217.699 51.911H217.713L217.726 51.8974V51.8702C217.773 51.7433 217.826 51.5257 217.89 51.2175C217.944 50.9547 217.972 50.651 217.972 50.3065V50.1569C217.944 49.6855 217.881 49.2912 217.781 48.9739C217.754 48.9014 217.726 48.838 217.699 48.7836L217.672 48.7292C217.527 48.6475 217.319 48.5751 217.047 48.5116C216.385 48.3938 215.669 48.3348 214.898 48.3348C214.091 48.3439 213.407 48.4119 212.845 48.5388C212.51 48.6385 212.324 48.711 212.287 48.7563V48.7699C211.925 49.4589 211.698 50.3201 211.608 51.3535C211.589 51.5348 211.581 51.7116 211.581 51.8838C211.581 52.7088 211.743 53.4793 212.07 54.1954C212.433 55.0385 213.153 55.6459 214.232 56.0176C214.758 56.1988 215.429 56.2895 216.244 56.2895H216.367C217.246 56.2805 218.298 56.1127 219.522 55.7863L220.297 58.6691C218.746 59.077 217.35 59.281 216.109 59.281C215.076 59.281 214.142 59.1405 213.307 58.8595C212.373 58.5512 211.581 58.1025 210.928 57.5133C210.275 56.9332 209.768 56.2759 209.405 55.5416C208.806 54.2816 208.508 53.0261 208.508 51.7751C208.508 51.5485 208.517 51.3218 208.535 51.0951C208.671 49.6175 209.074 48.3031 209.745 47.1518C210.216 46.4629 210.946 45.9914 211.934 45.7377C212.895 45.4838 213.851 45.3569 214.803 45.3569H215.197Z" fill="white"/>
<path d="M229.969 45.3705L230.431 45.3569C231.818 45.3569 233.233 45.5427 234.674 45.9144C235.055 46.0323 235.359 46.209 235.585 46.4448C235.811 46.6714 235.989 46.907 236.115 47.1518C236.36 47.6141 236.541 48.1036 236.659 48.6204C236.913 49.69 237.049 50.8459 237.067 52.0877C237.076 52.3235 237.081 52.5592 237.081 52.7948C237.081 53.7739 237.017 54.694 236.89 55.5552C236.808 56.072 236.695 56.5524 236.55 56.9966C236.541 57.0237 236.533 57.0465 236.523 57.0646C236.459 57.2821 236.365 57.4997 236.238 57.7173C236.11 57.9348 235.893 58.1524 235.585 58.3699C234.869 58.796 234.103 59.0453 233.286 59.1178C232.498 59.2357 231.683 59.2946 230.839 59.2946H230.663C229.765 59.2855 228.927 59.2176 228.147 59.0906C228.048 59.0725 227.952 59.0589 227.861 59.0498C227.544 59.0136 227.236 58.941 226.937 58.8322C226.638 58.7234 226.32 58.5059 225.985 58.1795C225.713 57.9076 225.523 57.6448 225.414 57.3909C225.305 57.128 225.219 56.856 225.156 56.575C225.146 56.5478 225.137 56.5161 225.128 56.4798C224.974 55.8725 224.879 55.2198 224.842 54.5218C224.824 54.2952 224.815 54.0731 224.815 53.8555C224.815 53.366 224.865 52.8175 224.965 52.2102C225.074 51.5937 225.419 50.9728 225.998 50.3472C226.143 50.2113 226.302 50.1025 226.474 50.0209C226.646 49.9303 226.796 49.8669 226.923 49.8306C227.177 49.7489 227.431 49.6945 227.685 49.6674C228.138 49.604 228.609 49.5722 229.099 49.5722H229.289C229.852 49.5722 230.386 49.613 230.893 49.6945C231.139 49.7399 231.392 49.8079 231.655 49.8985C231.8 49.9529 231.964 50.0436 232.145 50.1705C232.335 50.2883 232.502 50.4606 232.648 50.6872C232.884 51.0861 233.029 51.5122 233.083 51.9654C233.128 52.3008 233.151 52.6317 233.151 52.958L233.138 53.2708C233.119 54.0776 233.011 54.7982 232.811 55.4328L229.969 54.4946C229.987 54.4402 230.014 54.2816 230.051 54.0187C230.096 53.7558 230.127 53.4702 230.146 53.162C230.146 53.0079 230.132 52.8629 230.105 52.7269C230.105 52.6907 230.1 52.6544 230.092 52.6181C229.856 52.5819 229.579 52.5592 229.262 52.5501C228.908 52.5501 228.514 52.5773 228.079 52.6317C228.07 52.6408 228.065 52.6498 228.065 52.6589C228.02 52.7858 227.966 53.0033 227.902 53.3116C227.847 53.5835 227.82 53.8918 227.82 54.2362V54.3858C227.847 54.9025 227.916 55.3467 228.025 55.7184C228.042 55.8 228.065 55.868 228.093 55.9224L228.12 55.9767C228.128 55.9767 228.138 55.9813 228.147 55.9903C228.274 56.0538 228.442 56.1082 228.65 56.1535C229.222 56.2442 229.897 56.294 230.676 56.3031H230.866C231.583 56.3031 232.235 56.2577 232.824 56.1671C233.26 56.0946 233.568 56.0176 233.749 55.9359C233.813 55.7547 233.871 55.4827 233.926 55.1201C234.035 54.3768 234.089 53.5292 234.089 52.5773V52.1694C234.053 51.0453 233.944 50.098 233.763 49.3275C233.682 49.0465 233.608 48.847 233.545 48.7292C232.584 48.5207 231.587 48.4164 230.554 48.4164C230.472 48.4164 230.127 48.4209 229.52 48.43C228.922 48.439 228.215 48.4979 227.399 48.6067L226.176 48.7699L225.591 45.8328L226.841 45.6289C227.666 45.4929 228.709 45.4068 229.969 45.3705Z" fill="white"/>
<path d="M240.92 56.3032H243.912V59.2812H240.92V56.3032Z" fill="white"/>
<g filter="url(#filter0_d)">
<path d="M85.0547 15.914L15.1887 15.78L15.0547 85.6461L84.9207 85.78L85.0547 15.914Z" fill="#F4AA3E"/>
<mask id="mask0" mask-type="alpha" maskUnits="userSpaceOnUse" x="15" y="15" width="71" height="71">
<path d="M85.0552 15.914L15.1892 15.78L15.0552 85.6461L84.9212 85.78L85.0552 15.914Z" fill="#F4AA3E"/>
</mask>
<g mask="url(#mask0)">
<path d="M88.5184 19.9215L19.1837 11.3198L10.582 80.6544L79.9166 89.2561L88.5184 19.9215Z" fill="url(#paint0_linear)"/>
<g filter="url(#filter1_d)">
<path fill-rule="evenodd" clip-rule="evenodd" d="M24.9566 8.75342L27.0921 9.30049C27.3724 9.3723 27.5414 9.65778 27.4696 9.93813C27.3979 10.2185 27.1124 10.3875 26.832 10.3157L25.7118 10.0287L25.4248 11.1489C25.353 11.4293 25.0675 11.5983 24.7871 11.5265C24.5068 11.4547 24.3378 11.1692 24.4096 10.8888L24.9566 8.75342ZM31.3379 10.9291C31.4097 10.6488 31.6952 10.4797 31.9756 10.5516L35.2312 11.3856C35.5115 11.4574 35.6806 11.7429 35.6088 12.0232C35.5369 12.3036 35.2514 12.4726 34.9711 12.4008L31.7155 11.5668C31.4352 11.4949 31.2661 11.2095 31.3379 10.9291ZM39.477 13.0142C39.5488 12.7339 39.8343 12.5649 40.1146 12.6367L43.3703 13.4707C43.6506 13.5425 43.8197 13.828 43.7478 14.1084C43.6761 14.3887 43.3906 14.5577 43.1102 14.4859L39.8545 13.6519C39.5742 13.5801 39.4052 13.2946 39.477 13.0142ZM47.6162 15.0994C47.6879 14.819 47.9734 14.65 48.2538 14.7218L51.5094 15.5558C51.7898 15.6277 51.9588 15.9131 51.887 16.1935C51.8152 16.4738 51.5297 16.6429 51.2494 16.571L47.9937 15.737C47.7134 15.6652 47.5443 15.3797 47.6162 15.0994ZM55.7552 17.1845C55.8271 16.9041 56.1126 16.7351 56.3929 16.8069L59.6485 17.641C59.9288 17.7128 60.0979 17.9983 60.0261 18.2786C59.9543 18.5589 59.6688 18.728 59.3884 18.6562L56.1328 17.8221C55.8525 17.7503 55.6834 17.4648 55.7552 17.1845ZM63.8944 19.2696C63.9661 18.9893 64.2516 18.8202 64.532 18.892L67.7876 19.7261C68.068 19.7979 68.2371 20.0834 68.1652 20.3637C68.0934 20.6441 67.8079 20.8131 67.5276 20.7413L64.2719 19.9072C63.9916 19.8354 63.8226 19.5499 63.8944 19.2696ZM72.0335 21.3547C72.1053 21.0744 72.3908 20.9053 72.6711 20.9771L75.9268 21.8112C76.2071 21.883 76.3761 22.1685 76.3043 22.4488C76.2325 22.7292 75.9471 22.8982 75.6667 22.8264L72.411 21.9924C72.1307 21.9205 71.9616 21.6351 72.0335 21.3547ZM80.1726 23.4398C80.2444 23.1595 80.5299 22.9905 80.8103 23.0623L84.0658 23.8963C84.3462 23.9681 84.5153 24.2536 84.4435 24.534C84.3716 24.8143 84.0861 24.9834 83.8058 24.9115L80.5502 24.0775C80.2699 24.0057 80.1008 23.7202 80.1726 23.4398ZM88.3117 25.5249C88.3835 25.2446 88.669 25.0756 88.9493 25.1474L91.0848 25.6944L90.5377 27.8299C90.4659 28.1102 90.1804 28.2792 89.9 28.2074C89.6197 28.1357 89.4507 27.8502 89.5225 27.5698L89.8095 26.4496L88.6892 26.1626C88.4089 26.0908 88.2399 25.8053 88.3117 25.5249ZM23.7962 15.3948C24.0765 15.4666 24.2456 15.7521 24.1737 16.0324L23.3397 19.288C23.2679 19.5684 22.9824 19.7374 22.702 19.6656C22.4217 19.5938 22.2527 19.3083 22.3245 19.028L23.1585 15.7723C23.2303 15.492 23.5158 15.3229 23.7962 15.3948ZM88.9091 32.0757C89.1894 32.1475 89.3585 32.433 89.2866 32.7134L88.4526 35.969C88.3808 36.2493 88.0953 36.4184 87.815 36.3466C87.5346 36.2747 87.3655 35.9892 87.4374 35.7089L88.2714 32.4533C88.3432 32.173 88.6287 32.0039 88.9091 32.0757ZM86.824 40.2148C87.1043 40.2866 87.2733 40.5721 87.2015 40.8524L86.3675 44.1081C86.2956 44.3884 86.0101 44.5575 85.7298 44.4856C85.4495 44.4139 85.2805 44.1284 85.3523 43.848L86.1863 40.5924C86.2582 40.312 86.5437 40.143 86.824 40.2148ZM21.711 23.5339C21.9914 23.6057 22.1604 23.8912 22.0886 24.1715L21.2546 27.4271C21.1827 27.7075 20.8973 27.8765 20.6169 27.8048C20.3366 27.7329 20.1675 27.4474 20.2394 27.1671L21.0734 23.9114C21.1452 23.6311 21.4307 23.462 21.711 23.5339ZM19.6259 31.673C19.9063 31.7448 20.0753 32.0303 20.0035 32.3106L19.1694 35.5663C19.0976 35.8466 18.8121 36.0157 18.5318 35.9438C18.2515 35.872 18.0824 35.5865 18.1542 35.3062L18.9883 32.0505C19.0601 31.7702 19.3456 31.6012 19.6259 31.673ZM84.7388 48.354C85.0192 48.4258 85.1882 48.7112 85.1164 48.9916L84.2823 52.2472C84.2106 52.5276 83.9251 52.6966 83.6447 52.6248C83.3644 52.553 83.1953 52.2675 83.2671 51.9872L84.1012 48.7315C84.173 48.4512 84.4585 48.2821 84.7388 48.354ZM17.5408 39.8121C17.8212 39.8839 17.9902 40.1694 17.9184 40.4497L17.0843 43.7053C17.0125 43.9858 16.727 44.1547 16.4467 44.083C16.1663 44.0111 15.9973 43.7256 16.0691 43.4453L16.9032 40.1897C16.975 39.9093 17.2605 39.7403 17.5408 39.8121ZM82.6537 56.493C82.934 56.5649 83.1031 56.8504 83.0313 57.1307L82.1972 60.3863C82.1254 60.6666 81.8399 60.8357 81.5596 60.7639C81.2792 60.6921 81.1102 60.4066 81.182 60.1262L82.0161 56.8706C82.0879 56.5903 82.3733 56.4212 82.6537 56.493ZM15.4557 47.9512C15.736 48.0231 15.9051 48.3085 15.8333 48.5888L14.9992 51.8445C14.9274 52.1248 14.6419 52.2939 14.3616 52.222C14.0812 52.1502 13.9122 51.8647 13.984 51.5844L14.818 48.3287C14.8899 48.0484 15.1753 47.8794 15.4557 47.9512ZM80.5686 64.6322C80.8489 64.7039 81.0179 64.9894 80.9462 65.2698L80.1121 68.5255C80.0403 68.8058 79.7548 68.9749 79.4744 68.903C79.1941 68.8312 79.0251 68.5457 79.0969 68.2654L79.9309 65.0097C80.0028 64.7294 80.2883 64.5604 80.5686 64.6322ZM13.3706 56.0903C13.6509 56.1621 13.82 56.4476 13.7481 56.7279L12.9141 59.9836C12.8423 60.264 12.5568 60.4329 12.2764 60.3612C11.9961 60.2894 11.8271 60.0039 11.8989 59.7235L12.7329 56.4679C12.8047 56.1875 13.0902 56.0185 13.3706 56.0903ZM78.4835 72.7713C78.7638 72.8431 78.9329 73.1286 78.861 73.4089L78.027 76.6646C77.9552 76.9449 77.6697 77.1139 77.3894 77.0421C77.109 76.9703 76.9399 76.6849 77.0118 76.4044L77.8458 73.1488C77.9176 72.8685 78.2031 72.6994 78.4835 72.7713ZM11.2855 64.2294C11.5658 64.3013 11.7348 64.5867 11.663 64.8671L10.829 68.1227C10.7571 68.4031 10.4717 68.5721 10.1913 68.5003C9.91098 68.4284 9.74194 68.1429 9.81376 67.8626L10.6478 64.607C10.7196 64.3267 11.0051 64.1576 11.2855 64.2294ZM76.3984 80.9104C76.6787 80.9822 76.8477 81.2676 76.7759 81.548L75.9419 84.8036C75.87 85.084 75.5845 85.2531 75.3042 85.1812C75.0239 85.1094 74.8549 84.8239 74.9267 84.5436L75.7607 81.2879C75.8326 81.0076 76.118 80.8386 76.3984 80.9104ZM9.20034 72.3685C9.48067 72.4403 9.64972 72.7258 9.5779 73.0061L9.29091 74.1264L10.4111 74.4134C10.6915 74.4852 10.8605 74.7707 10.7887 75.051C10.7169 75.3314 10.4314 75.5005 10.151 75.4286L8.01562 74.8815L8.56269 72.7461C8.63451 72.4657 8.91999 72.2967 9.20034 72.3685ZM74.3132 89.0495C74.5936 89.1213 74.7626 89.4068 74.6908 89.6871L74.1437 91.8226L72.0083 91.2755C71.7279 91.2037 71.5589 90.9182 71.6307 90.6378C71.7026 90.3575 71.988 90.1885 72.2683 90.2603L73.3886 90.5473L73.6756 89.427C73.7474 89.1467 74.0329 88.9776 74.3132 89.0495ZM14.657 76.042C14.7288 75.7617 15.0143 75.5927 15.2946 75.6645L18.5502 76.4985C18.8306 76.5704 18.9996 76.8558 18.9278 77.1361C18.856 77.4165 18.5705 77.5855 18.2902 77.5137L15.0345 76.6797C14.7542 76.6078 14.5851 76.3223 14.657 76.042ZM22.7961 78.1272C22.8679 77.8468 23.1534 77.6777 23.4337 77.7496L26.6893 78.5836C26.9697 78.6554 27.1387 78.9409 27.067 79.2213C26.9951 79.5016 26.7096 79.6707 26.4292 79.5988L23.1736 78.7648C22.8933 78.693 22.7242 78.4075 22.7961 78.1272ZM30.9352 80.2122C31.007 79.9319 31.2925 79.7629 31.5728 79.8347L34.8285 80.6687C35.1088 80.7406 35.2779 81.0261 35.206 81.3064C35.1342 81.5868 34.8487 81.7557 34.5684 81.684L31.3127 80.8499C31.0324 80.7781 30.8634 80.4926 30.9352 80.2122ZM39.0743 82.2974C39.1461 82.017 39.4316 81.848 39.7119 81.9198L42.9676 82.7539C43.248 82.8257 43.4169 83.1111 43.3452 83.3915C43.2733 83.6718 42.9879 83.8409 42.7075 83.769L39.4519 82.935C39.1715 82.8632 39.0024 82.5777 39.0743 82.2974ZM47.2134 84.3825C47.2853 84.1022 47.5707 83.9331 47.8511 84.0049L51.1067 84.839C51.387 84.9108 51.5561 85.1963 51.4843 85.4766C51.4124 85.757 51.1269 85.926 50.8466 85.8542L47.591 85.0201C47.3106 84.9483 47.1416 84.6629 47.2134 84.3825ZM55.3525 86.4676C55.4243 86.1873 55.7098 86.0183 55.9901 86.0901L59.2458 86.9241C59.5261 86.9959 59.6952 87.2814 59.6233 87.5617C59.5516 87.842 59.2661 88.0111 58.9857 87.9393L55.7301 87.1052C55.4497 87.0334 55.2807 86.7479 55.3525 86.4676ZM63.4917 88.5528C63.5635 88.2724 63.8489 88.1033 64.1293 88.1751L67.385 89.0092C67.6653 89.081 67.8343 89.3665 67.7625 89.6469C67.6906 89.9272 67.4052 90.0963 67.1248 90.0244L63.8692 89.1904C63.5889 89.1186 63.4198 88.8331 63.4917 88.5528Z" fill="#F4AA3E"/>
</g>
<path d="M34.9064 85.4344C34.8234 85.3514 32.7038 81.7523 31.1415 81.2515C29.5791 80.7506 28.438 82.2831 28.438 82.2831V85.6832H34.9064V85.4344Z" fill="#F4AA3E"/>
<path d="M37.698 83.92V80.2136C37.7022 79.2818 37.3366 78.3863 36.6816 77.7235L35.6246 76.6664C35.5562 76.5971 35.4747 76.5421 35.3848 76.5044C35.295 76.4669 35.1986 76.4475 35.1011 76.4475C35.0037 76.4475 34.9073 76.4669 34.8174 76.5044C34.7276 76.5421 34.6461 76.5971 34.5777 76.6664L32.2672 78.9737C32.137 79.1109 32.0645 79.2928 32.0645 79.4819C32.0645 79.671 32.137 79.8529 32.2672 79.9901L36.4106 84.4283C36.5121 84.5384 36.6445 84.6152 36.7905 84.6486C36.9365 84.682 37.0892 84.6705 37.2285 84.6155C37.3678 84.5605 37.4872 84.4646 37.571 84.3405C37.6548 84.2164 37.6991 84.0698 37.698 83.92Z" fill="#F4AA3E"/>
<path d="M32.0086 73.5393L33.4248 74.9555C33.5632 75.0946 33.6409 75.2828 33.6409 75.4789C33.6409 75.6752 33.5632 75.8634 33.4248 76.0024L32.0154 77.4118C31.9117 77.5144 31.78 77.5842 31.6368 77.6123C31.4937 77.6404 31.3454 77.6257 31.2105 77.5701C31.0756 77.5144 30.9602 77.4201 30.8786 77.2992C30.7969 77.1782 30.7528 77.036 30.7517 76.89V74.0645C30.7519 73.919 30.7951 73.7767 30.8758 73.6557C30.9566 73.5346 31.0713 73.44 31.2056 73.384C31.3398 73.3279 31.4877 73.3127 31.6305 73.3403C31.7734 73.368 31.9049 73.4373 32.0086 73.5393Z" fill="#F4AA3E"/>
<path d="M35.6856 68.7554L32.9346 71.5098C32.7961 71.6489 32.7185 71.8371 32.7185 72.0332C32.7185 72.2294 32.7961 72.4177 32.9346 72.5567L35.689 75.3111C35.793 75.4139 35.9249 75.4837 36.0684 75.5118C36.2119 75.5398 36.3605 75.5248 36.4955 75.4687C36.6305 75.4126 36.7459 75.3179 36.8272 75.1964C36.9086 75.0749 36.9522 74.9321 36.9527 74.7859V69.2805C36.9529 69.1336 36.9095 68.99 36.8279 68.8678C36.7465 68.7456 36.6305 68.6504 36.4948 68.5941C36.3591 68.5379 36.2098 68.5232 36.0657 68.5519C35.9217 68.5806 35.7894 68.6514 35.6856 68.7554Z" fill="#F4AA3E"/>
<path d="M32.0674 64.1341L34.3543 66.4209C34.4928 66.56 34.5704 66.7483 34.5704 66.9444C34.5704 67.1406 34.4928 67.3288 34.3543 67.4679L32.0776 69.7446C31.9741 69.8483 31.842 69.919 31.6983 69.9479C31.5546 69.9767 31.4055 69.9623 31.27 69.9065C31.1344 69.8507 31.0184 69.7559 30.9367 69.6343C30.8549 69.5126 30.811 69.3694 30.8105 69.2228V64.6593C30.8107 64.5137 30.8539 64.3715 30.9346 64.2504C31.0153 64.1293 31.1301 64.0348 31.2643 63.9788C31.3986 63.9226 31.5465 63.9074 31.6894 63.9351C31.8323 63.9627 31.9638 64.032 32.0674 64.1341Z" fill="#F4AA3E"/>
<path d="M35.6922 65.0011L33.1309 62.4432C32.9925 62.3042 32.9148 62.116 32.9148 61.9198C32.9148 61.7236 32.9925 61.5354 33.1309 61.3963L35.7159 58.8113C35.8194 58.7067 35.9519 58.6353 36.0962 58.6064C36.2406 58.5775 36.3903 58.5924 36.5261 58.6492C36.6619 58.7061 36.7776 58.8021 36.8585 58.9252C36.9393 59.0482 36.9814 59.1927 36.9796 59.3398L36.9559 64.4828C36.9557 64.6291 36.912 64.7721 36.8304 64.8936C36.7489 65.0151 36.633 65.1096 36.4976 65.1651C36.3623 65.2206 36.2134 65.2347 36.07 65.2055C35.9266 65.1763 35.7951 65.1052 35.6922 65.0011Z" fill="#F4AA3E"/>
<path d="M31.9981 54.5294L34.2646 56.7926C34.4002 56.9318 34.476 57.1183 34.476 57.3126C34.476 57.507 34.4002 57.6935 34.2646 57.8327L31.9879 60.2042C31.8849 60.3102 31.7527 60.3829 31.6081 60.4132C31.4635 60.4435 31.3131 60.4299 31.1763 60.3743C31.0395 60.3186 30.9224 60.2233 30.8401 60.1007C30.7577 59.978 30.7138 59.8336 30.714 59.6859V55.058C30.7076 54.9064 30.748 54.7566 30.8298 54.6287C30.9114 54.501 31.0305 54.4014 31.1708 54.3437C31.3111 54.286 31.4657 54.2728 31.6137 54.306C31.7618 54.3393 31.8959 54.4173 31.9981 54.5294Z" fill="#F4AA3E"/>
<path d="M30.1457 49.0783C30.1042 48.9953 30.0894 48.9015 30.1032 48.8097C30.117 48.7179 30.1589 48.6327 30.223 48.5655C30.2872 48.4985 30.3705 48.4528 30.4615 48.4348C30.5526 48.4168 30.647 48.4275 30.7319 48.4652C31.9379 48.9936 33.9097 49.7356 35.4242 49.7356C36.9386 49.7356 38.8968 49.0783 40.069 48.6176C40.1536 48.5836 40.2465 48.5761 40.3355 48.596C40.4244 48.6158 40.5053 48.6623 40.5673 48.7291C40.6293 48.7959 40.6696 48.8799 40.6829 48.9701C40.6962 49.0603 40.6818 49.1524 40.6416 49.2342C39.7608 51.0806 37.7449 54.7125 35.4478 54.7125C33.1508 54.7125 31.074 50.9993 30.1457 49.0783Z" fill="#F4AA3E"/>
<path d="M30.0815 45.0125C30.0388 44.9456 30.0149 44.8683 30.0124 44.7889C30.01 44.7095 30.029 44.631 30.0675 44.5616C30.106 44.4921 30.1627 44.4344 30.2314 44.3945C30.3 44.3546 30.3782 44.334 30.4576 44.3349C32.4904 44.3925 37.718 44.5212 38.7547 44.3078C39.517 44.1519 41.4312 43.3794 42.8609 42.7764C42.9542 42.7356 43.0587 42.7284 43.1567 42.756C43.2547 42.7836 43.3401 42.8443 43.3984 42.9278C43.4568 43.0112 43.4844 43.1123 43.4765 43.2138C43.4686 43.3153 43.4259 43.411 43.3555 43.4845C41.7192 45.2395 38.7107 47.9532 35.753 47.9532C34.64 47.9599 33.5421 47.6956 32.5541 47.1832C31.566 46.6709 30.7175 45.9259 30.0815 45.0125Z" fill="#F4AA3E"/>
<path d="M28.3838 39.4053C28.3838 38.0501 29.3223 36.1292 30.5758 36.1292C31.8293 36.1292 33.2557 37.525 33.3404 38.9479C33.4251 40.3708 33.0287 42.9084 31.4601 43.1083C29.8914 43.3082 28.3838 41.8548 28.3838 39.4053Z" fill="#F4AA3E"/>
<path d="M35.6222 36.6136C36.2558 35.7972 39.2372 35.9022 39.6877 36.3867C40.1384 36.8712 40.572 41.0011 40.1451 41.7701C39.7182 42.5392 37.6719 43.0508 36.3439 43.2507C35.0158 43.4506 34.2908 42.8238 34.2637 42.0277C34.2365 41.2314 35.3071 40.2219 35.385 39.629C35.463 39.0361 35.2224 37.1252 35.6222 36.6136Z" fill="#F4AA3E"/>
<path d="M46.0724 34.9062C45.0187 34.3369 43.0842 34.9909 42.6268 36.1292C42.1695 37.2675 41.8849 40.459 42.3999 40.774C42.9148 41.0891 44.2497 40.8283 45.1102 40.1473C45.9707 39.4663 46.445 35.1027 46.0724 34.9062Z" fill="#F4AA3E"/>
<path d="M50.517 29.9767C49.5007 29.8582 47.5831 31.6707 47.356 32.5957C47.1291 33.5206 46.7869 36.6408 47.1833 37C47.5797 37.3591 49.748 35.4043 50.2901 34.8046C50.8321 34.2049 52.0856 32.1281 51.5707 31.359C51.0557 30.59 51.0015 30.0344 50.517 29.9767Z" fill="#F4AA3E"/>
<path d="M49.8335 23.3973C49.9894 22.7434 53.6246 22.6282 53.9635 23.3973C54.3022 24.1663 54.9799 30.9727 54.4276 31.3455C53.8754 31.7181 51.7173 29.919 51.06 29.0348C50.4028 28.1506 49.0069 26.8699 49.8335 23.3973Z" fill="#F4AA3E"/>
<path d="M43.054 18.0144C41.8818 17.8179 39.1816 19.1527 39.5238 20.0065C39.8659 20.8602 45.429 23.6045 43.1692 29.8044C40.7469 36.4449 30.583 32.4775 30.007 32.6537C29.4311 32.8299 29.1261 34.3172 30.007 34.6865C30.8879 35.0558 42.2579 35.8079 44.8496 33.643C46.6317 32.1523 48.4951 28.0291 48.4375 26.4606C48.3799 24.8919 47.3262 18.7258 43.054 18.0144Z" fill="#F4AA3E"/>
<path d="M37.8134 20.8908C36.7597 20.552 31.3458 27.5279 31.715 28.8661C32.0844 30.2044 36.5531 33.5008 40.185 30.3466C43.4815 27.4702 40.683 21.8225 37.8134 20.8908Z" fill="#F4AA3E"/>
<path d="M36.1587 29.1772C37.2121 29.1772 38.0661 28.3232 38.0661 27.2697C38.0661 26.2163 37.2121 25.3623 36.1587 25.3623C35.1052 25.3623 34.2512 26.2163 34.2512 27.2697C34.2512 28.3232 35.1052 29.1772 36.1587 29.1772Z" fill="#4E2800"/>
<path d="M45.5616 16.2457C45.5616 15.7748 53.7672 15.5682 58.0665 17.6992C62.3659 19.8302 61.8577 20.518 61.0885 20.6907C60.3195 20.8635 52.4831 22.2018 51.0873 21.8596C49.6915 21.5174 45.5446 17.9092 45.5616 16.2457Z" fill="#F4AA3E"/>
<path d="M56.7546 23.0348C57.8014 21.4662 62.2633 21.2866 63.6694 22.0862C65.0754 22.8857 68.5277 26.87 68.0365 27.2698C67.5452 27.6695 63.6321 26.6701 62.4192 26.5617C61.2064 26.4532 57.7472 27.0868 57.2898 26.5617C56.8325 26.0366 56.226 23.8344 56.7546 23.0348Z" fill="#F4AA3E"/>
<path d="M56.1851 28.3908C55.7142 29.187 59.3393 30.4033 62.148 31.9211C64.9566 33.4389 68.3039 34.086 69.5439 33.8319C69.8054 33.7922 70.0523 33.6859 70.2607 33.5232C70.4693 33.3605 70.6324 33.1469 70.7345 32.9029C70.8366 32.6589 70.8741 32.3927 70.8437 32.13C70.8132 31.8673 70.7156 31.6168 70.5603 31.4028C69.9538 30.4507 63.6861 28.855 62.9272 28.628C62.1683 28.4011 56.795 27.3643 56.1851 28.3908Z" fill="#F4AA3E"/>
<path d="M68.6051 35.1301C69.7061 34.5304 71.2647 35.0014 71.4916 35.723C71.7186 36.4447 72.7079 37.9624 72.1387 38.3419C71.5695 38.7213 68.2257 35.3402 68.6051 35.1301Z" fill="#F4AA3E"/>
<path d="M62.6273 34.8486C64.1079 34.6115 65.1886 36.9322 65.1886 38.3653C65.1886 39.6087 63.5489 71.9061 63.7488 81.0164C63.7724 82.0327 64.6228 83.4658 65.3106 84.4585C65.3878 84.5696 65.4331 84.6996 65.4418 84.8346C65.4504 84.9696 65.422 85.1045 65.3595 85.2245C65.2971 85.3445 65.203 85.4452 65.0875 85.5156C64.9719 85.5859 64.8395 85.6234 64.7041 85.6239H61.018C60.8259 85.6232 60.6416 85.5479 60.5037 85.4139C60.366 85.2799 60.2856 85.0978 60.2795 84.9057C60.1914 82.1953 59.4427 72.7802 53.2257 73.8847C45.9721 75.1789 46.1619 80.1151 45.0947 79.468C44.0275 78.8209 43.2347 73.7424 43.3499 72.455C43.4651 71.1675 42.8179 67.7118 43.919 67.2138C45.0201 66.7157 50.529 70.3002 53.1478 70.368C57.9248 70.49 56.1021 65.8756 56.7289 64.9642C56.7289 64.9642 57.9553 64.2866 58.9785 64.4424C60.0017 64.5982 59.0361 62.4876 59.2631 62.1997C59.4901 61.9116 60.9164 61.9049 61.0892 61.234C61.4076 59.9737 59.5206 57.9003 60.2896 57.531C60.2896 57.531 63.6776 56.5146 63.6776 55.1933C63.6776 52.1442 60.171 51.4903 60.171 47.6179C60.171 45.6461 62.9356 44.2299 62.7357 39.6359C62.5358 35.0418 62.6273 34.8486 62.6273 34.8486Z" fill="#F4AA3E"/>
<path d="M46.0742 81.03C46.2165 80.3796 49.0759 75.7516 53.5684 76.3106C58.4538 76.9171 59.0839 82.287 59.1212 84.6619C59.1225 84.8086 59.0948 84.954 59.0395 85.0898C58.9842 85.2256 58.9025 85.3491 58.7992 85.4531C58.6958 85.5571 58.5728 85.6395 58.4373 85.6957C58.3019 85.7517 58.1566 85.7804 58.0099 85.78H57.6712C57.4111 85.7807 57.1591 85.6898 56.9596 85.5231C56.76 85.3564 56.6257 85.1246 56.5802 84.8686C56.2652 83.1509 55.2725 79.6003 52.4673 79.6003C48.7642 79.6003 48.4492 83.5981 47.653 83.466C46.8568 83.3339 45.9319 81.6772 46.0742 81.03Z" fill="#F4AA3E"/>
<path d="M54.1745 85.7801H49.9496C49.7627 85.7806 49.5785 85.734 49.4142 85.6447C49.2499 85.5553 49.1107 85.4261 49.0094 85.2688C48.9082 85.1116 48.8482 84.9314 48.8348 84.7448C48.8216 84.5583 48.8554 84.3714 48.9333 84.2013C49.5668 82.8224 50.7187 81.0506 52.45 81.1521C54.2489 81.2538 54.9706 83.1172 55.2552 84.4487C55.2883 84.6094 55.2853 84.7754 55.2465 84.9349C55.2075 85.0942 55.1337 85.2431 55.0303 85.3705C54.9269 85.4979 54.7964 85.6007 54.6484 85.6715C54.5005 85.7424 54.3386 85.7794 54.1745 85.7801Z" fill="#F4AA3E"/>
<path d="M72.0261 72.9459C72.0263 72.797 71.9891 72.6504 71.918 72.5197C71.8468 72.3889 71.7441 72.278 71.619 72.1971C71.4941 72.1162 71.3508 72.0679 71.2023 72.0567C71.0538 72.0455 70.9049 72.0717 70.7692 72.1328C68.7195 73.0645 64.8877 75.1819 64.8877 78.1464C64.8877 81.3819 67.0323 84.0618 68.0284 85.129C68.1749 85.2871 68.3526 85.4133 68.5503 85.4996C68.7479 85.5859 68.9612 85.6304 69.1769 85.6304H71.1351C71.3717 85.6295 71.5983 85.5349 71.7653 85.3672C71.9324 85.1996 72.0261 84.9726 72.0261 84.736V72.9459Z" fill="#F4AA3E"/>
<path d="M69.6327 79.9219C70.2783 79.9219 70.8016 79.3986 70.8016 78.7531C70.8016 78.1075 70.2783 77.5842 69.6327 77.5842C68.9872 77.5842 68.4639 78.1075 68.4639 78.7531C68.4639 79.3986 68.9872 79.9219 69.6327 79.9219Z" fill="#4E2800"/>
<path d="M66.0345 61.3564L65.14 71.3474C65.1284 71.4802 65.1528 71.6135 65.2104 71.7336C65.2681 71.8537 65.3571 71.9561 65.4681 72.0299C65.579 72.1037 65.7077 72.1463 65.8408 72.1532C65.9738 72.1601 66.1063 72.1311 66.2242 72.0691L70.8996 69.6264C71.2444 69.4447 71.5331 69.1723 71.7343 68.8385C71.9356 68.5048 72.0418 68.1222 72.0413 67.7325V67.1193C72.0417 66.6026 71.8551 66.1032 71.5162 65.7133L67.3287 60.9362C67.2337 60.8265 67.1083 60.7472 66.9685 60.7082C66.8286 60.6693 66.6804 60.6724 66.5423 60.7172C66.4042 60.762 66.2823 60.8466 66.192 60.9603C66.1017 61.074 66.0469 61.2117 66.0345 61.3564Z" fill="#F4AA3E"/>
<path d="M68.5224 68.8131C69.1679 68.8131 69.6912 68.2898 69.6912 67.6442C69.6912 66.9986 69.1679 66.4753 68.5224 66.4753C67.8769 66.4753 67.3535 66.9986 67.3535 67.6442C67.3535 68.2898 67.8769 68.8131 68.5224 68.8131Z" fill="#4E2800"/>
<path d="M72.0244 49.7555V62.2266C72.0236 62.3768 71.9773 62.5234 71.8914 62.6467C71.8056 62.77 71.6843 62.8644 71.5436 62.9172C71.403 62.9702 71.2495 62.9791 71.1037 62.9428C70.9578 62.9067 70.8265 62.827 70.7268 62.7145L66.9018 58.3575C66.4412 57.8328 66.1871 57.1585 66.187 56.4603V55.4066C66.1854 54.8011 66.4047 54.2157 66.8036 53.7601L70.7268 49.2609C70.826 49.146 70.9581 49.0645 71.1052 49.0273C71.2523 48.9902 71.4072 48.9993 71.5491 49.0534C71.6908 49.1074 71.8125 49.2037 71.8975 49.3294C71.9826 49.4551 72.027 49.6038 72.0244 49.7555Z" fill="#F4AA3E"/>
<path d="M69.6883 57.2091C70.3339 57.2091 70.8572 56.6858 70.8572 56.0402C70.8572 55.3946 70.3339 54.8713 69.6883 54.8713C69.0428 54.8713 68.5195 55.3946 68.5195 56.0402C68.5195 56.6858 69.0428 57.2091 69.6883 57.2091Z" fill="#4E2800"/>
<path d="M66.1867 37.1357V49.8913C66.1864 50.0416 66.232 50.1885 66.3174 50.3121C66.4028 50.4359 66.5241 50.5307 66.6647 50.5837C66.8053 50.6367 66.9589 50.6455 67.1047 50.609C67.2506 50.5724 67.3818 50.4922 67.4809 50.3791L71.0247 46.3678C71.6688 45.6356 72.0241 44.6937 72.0241 43.7184V43.2068C72.0221 42.5247 71.7825 41.8646 71.3465 41.3401L67.5113 36.6613C67.4151 36.5391 67.2829 36.4503 67.1335 36.4073C66.9839 36.3643 66.8247 36.3694 66.6784 36.4219C66.5319 36.4743 66.4056 36.5714 66.3174 36.6995C66.2292 36.8275 66.1835 36.9801 66.1867 37.1357Z" fill="#F4AA3E"/>
<path d="M68.5751 44.762C69.2206 44.762 69.7439 44.2387 69.7439 43.5932C69.7439 42.9477 69.2206 42.4243 68.5751 42.4243C67.9295 42.4243 67.4062 42.9477 67.4062 43.5932C67.4062 44.2387 67.9295 44.762 68.5751 44.762Z" fill="#4E2800"/>
<path d="M44.7931 58.1684C45.9682 58.1684 46.9208 57.2157 46.9208 56.0407C46.9208 54.8656 45.9682 53.9131 44.7931 53.9131C43.6181 53.9131 42.6655 54.8656 42.6655 56.0407C42.6655 57.2157 43.6181 58.1684 44.7931 58.1684Z" fill="#F4AA3E"/>
<path d="M44.6694 64.5339C45.5899 64.5339 46.3362 63.7877 46.3362 62.8671C46.3362 61.9465 45.5899 61.2002 44.6694 61.2002C43.7488 61.2002 43.0024 61.9465 43.0024 62.8671C43.0024 63.7877 43.7488 64.5339 44.6694 64.5339Z" fill="#F4AA3E"/>
<path d="M48.3733 54.167C49.0899 54.167 49.6709 53.586 49.6709 52.8694C49.6709 52.1527 49.0899 51.5718 48.3733 51.5718C47.6566 51.5718 47.0757 52.1527 47.0757 52.8694C47.0757 53.586 47.6566 54.167 48.3733 54.167Z" fill="#F4AA3E"/>
<path d="M40.967 54.167C41.6837 54.167 42.2646 53.586 42.2646 52.8694C42.2646 52.1527 41.6837 51.5718 40.967 51.5718C40.2504 51.5718 39.6694 52.1527 39.6694 52.8694C39.6694 53.586 40.2504 54.167 40.967 54.167Z" fill="#F4AA3E"/>
<path d="M44.6694 51.9411C45.5899 51.9411 46.3362 51.1948 46.3362 50.2743C46.3362 49.3537 45.5899 48.6074 44.6694 48.6074C43.7488 48.6074 43.0024 49.3537 43.0024 50.2743C43.0024 51.1948 43.7488 51.9411 44.6694 51.9411Z" fill="#F4AA3E"/>
<path d="M48.3748 61.7524C49.5498 61.7524 50.5024 60.7998 50.5024 59.6248C50.5024 58.4497 49.5498 57.4971 48.3748 57.4971C47.1997 57.4971 46.2471 58.4497 46.2471 59.6248C46.2471 60.7998 47.1997 61.7524 48.3748 61.7524Z" fill="#F4AA3E"/>
<path d="M41.3366 61.7524C42.5116 61.7524 43.4643 60.7998 43.4643 59.6248C43.4643 58.4497 42.5116 57.4971 41.3366 57.4971C40.1615 57.4971 39.209 58.4497 39.209 59.6248C39.209 60.7998 40.1615 61.7524 41.3366 61.7524Z" fill="#F4AA3E"/>
</g>
</g>
<defs>
<filter id="filter0_d" x="0.0546875" y="0.780029" width="110.001" height="110" filterUnits="userSpaceOnUse" color-interpolation-filters="sRGB">
<feFlood flood-opacity="0" result="BackgroundImageFix"/>
<feColorMatrix in="SourceAlpha" type="matrix" values="0 0 0 0 0 0 0 0 0 0 0 0 0 0 0 0 0 0 127 0"/>
<feOffset dx="5" dy="5"/>
<feGaussianBlur stdDeviation="10"/>
<feColorMatrix type="matrix" values="0 0 0 0 0 0 0 0 0 0 0 0 0 0 0 0 0 0 0.25 0"/>
<feBlend mode="normal" in2="BackgroundImageFix" result="effect1_dropShadow"/>
<feBlend mode="normal" in="SourceGraphic" in2="effect1_dropShadow" result="shape"/>
</filter>
<filter id="filter1_d" x="7.01562" y="7.75342" width="87.0692" height="87.0692" filterUnits="userSpaceOnUse" color-interpolation-filters="sRGB">
<feFlood flood-opacity="0" result="BackgroundImageFix"/>
<feColorMatrix in="SourceAlpha" type="matrix" values="0 0 0 0 0 0 0 0 0 0 0 0 0 0 0 0 0 0 127 0"/>
<feOffset dx="1" dy="1"/>
<feGaussianBlur stdDeviation="1"/>
<feColorMatrix type="matrix" values="0 0 0 0 0 0 0 0 0 0 0 0 0 0 0 0 0 0 0.4 0"/>
<feBlend mode="normal" in2="BackgroundImageFix" result="effect1_dropShadow"/>
<feBlend mode="normal" in="SourceGraphic" in2="effect1_dropShadow" result="shape"/>
</filter>
<linearGradient id="paint0_linear" x1="53.851" y1="15.6207" x2="45.2493" y2="84.9553" gradientUnits="userSpaceOnUse">
<stop stop-color="#693906"/>
<stop offset="1" stop-color="#4E2800"/>
</linearGradient>
</defs>
</svg>
