<svg width="273" height="71" viewBox="0 0 273 71" fill="none" xmlns="http://www.w3.org/2000/svg">
<path d="M239.033 27.8147H239.263C239.98 27.8147 240.687 27.8872 241.385 28.0323C242.165 28.1954 242.908 28.4855 243.615 28.9025C244.213 29.2923 244.635 29.7773 244.879 30.3575C245.125 30.9286 245.287 31.5269 245.369 32.1524C245.478 33.0227 245.532 33.9428 245.532 34.9127C245.532 35.3116 245.523 35.7195 245.505 36.1365V36.4085C245.496 36.5807 245.491 36.7529 245.491 36.9251C245.464 37.8045 245.451 38.6566 245.451 39.4815C245.451 39.8985 245.455 40.3065 245.464 40.7053C245.482 41.9019 245.591 42.8674 245.79 43.6016C246.135 44.617 246.642 45.3241 247.313 45.7229C247.984 46.1218 248.565 46.353 249.054 46.4164L248.469 49.3535C247.943 49.2628 247.318 49.0498 246.593 48.7144C245.858 48.379 245.151 47.8669 244.472 47.1779C243.791 46.4889 243.275 45.5779 242.921 44.4447C242.676 43.5745 242.527 42.6544 242.473 41.6844C242.436 41.1042 242.418 40.5196 242.418 39.9303C242.418 39.5405 242.428 39.1461 242.445 38.7473C241.929 38.72 241.34 38.6929 240.677 38.6656C240.306 38.6566 239.948 38.6521 239.604 38.6521C239.023 38.6521 238.471 38.6656 237.945 38.6929C237.854 40.5059 237.673 42.3688 237.401 44.2816L234.45 43.8328C234.785 41.4305 234.976 39.119 235.021 36.898C235.03 36.2816 235.035 35.7104 235.035 35.1846C235.035 33.8068 234.994 32.7462 234.912 32.0028L237.89 31.6765C237.99 32.583 238.04 33.7751 238.04 35.2527V35.6334C238.14 35.6244 238.243 35.6198 238.352 35.6198H238.733C239.359 35.6198 239.998 35.6379 240.651 35.6741H240.786C241.439 35.7014 242.019 35.7331 242.527 35.7694C242.527 35.6606 242.531 35.5518 242.541 35.443C242.549 35.1529 242.554 34.881 242.554 34.6271C242.554 33.8385 242.504 33.1631 242.405 32.6011C242.223 31.9121 241.829 31.4408 241.221 31.1869C240.605 30.9331 239.916 30.8062 239.155 30.8062C238.384 30.8062 237.673 30.8515 237.02 30.9421C236.05 31.0601 235.238 31.2005 234.586 31.3637L233.607 31.5948L232.777 28.7393L233.892 28.4538C234.645 28.2725 235.574 28.1093 236.68 27.9643C237.223 27.9009 237.786 27.8555 238.366 27.8283C238.592 27.8192 238.815 27.8147 239.033 27.8147Z" fill="#F4AA3E"/>
<path d="M250.174 30.2625L253.152 30.4664C253.116 30.8925 253.088 31.3322 253.071 31.7854C253.786 31.0511 254.702 30.5933 255.817 30.412C256.062 30.3667 256.306 30.344 256.552 30.344L256.796 30.3577C257.784 30.403 258.627 30.7247 259.325 31.323C260.168 32.1661 260.631 33.1587 260.712 34.301L257.748 34.6002C257.667 34.0472 257.526 33.6981 257.326 33.5531C257.073 33.3446 256.805 33.2404 256.524 33.2404C256.397 33.2404 256.271 33.263 256.144 33.3083C255.727 33.4443 255.346 33.68 255.001 34.0154C254.656 34.3418 254.407 34.65 254.253 34.9401C253.736 35.901 253.406 37.1429 253.26 38.6658C253.225 39.0828 253.206 39.5089 253.206 39.944C253.206 41.0953 253.338 42.2919 253.601 43.5338L250.704 44.2817C250.215 42.4687 249.952 40.3022 249.916 37.782V36.8709C249.916 34.6591 250.002 32.4562 250.174 30.2625Z" fill="#F4AA3E"/>
<path d="M266.318 25.3535L269.228 26.0742C268.956 27.1801 268.766 28.6079 268.657 30.3575C269.735 30.3756 270.81 30.4798 271.879 30.6702L271.335 33.6073C270.51 33.4713 269.631 33.4034 268.698 33.4034H268.521V35.5653C268.548 37.2878 268.634 38.72 268.779 39.8622C268.842 40.3609 268.91 40.7416 268.983 41.0044C269.228 41.0861 269.572 41.154 270.016 41.2084C270.605 41.2719 271.227 41.3036 271.879 41.3036C272.106 41.3036 272.333 41.2991 272.559 41.2901L272.668 44.2679C272.396 44.277 272.124 44.2816 271.852 44.2816C271.118 44.2816 270.397 44.2453 269.69 44.1728C268.774 44.1274 267.927 43.9008 267.147 43.4929C266.912 43.3569 266.744 43.2164 266.644 43.0713C266.535 42.9354 266.454 42.8085 266.399 42.6906C266.391 42.6725 266.385 42.6544 266.385 42.6362C266.268 42.3915 266.177 42.1513 266.114 41.9155C265.987 41.435 265.888 40.873 265.815 40.2294C265.652 38.9422 265.556 37.4056 265.529 35.6197V33.6073C265.149 33.6708 264.858 33.7342 264.659 33.7977L263.721 30.9694C264.273 30.7789 264.913 30.634 265.638 30.5342C265.738 28.5581 265.964 26.8311 266.318 25.3535Z" fill="#F4AA3E"/>
<path d="M92.2654 27.8013H92.469C93.6926 27.8013 94.8265 28.0279 95.8682 28.4811L95.923 28.5084L95.9639 28.5355C96.5348 28.88 97.0065 29.306 97.3781 29.8137C97.7401 30.3304 98.0351 30.8879 98.2614 31.4862C98.7148 32.6919 98.9872 33.9565 99.0777 35.28C99.1143 35.7514 99.1317 36.2137 99.1317 36.667C99.1317 37.5463 99.0638 38.3893 98.928 39.1961C98.8375 39.7673 98.6965 40.3067 98.5068 40.8143C98.3162 41.331 98.0169 41.7978 97.6087 42.2149C96.8116 42.9763 95.8821 43.5066 94.8213 43.8058C93.77 44.0958 92.6822 44.25 91.5578 44.2681C91.3768 44.2772 91.2002 44.2817 91.0279 44.2817C88.9338 44.2817 87.089 43.9327 85.4935 43.2346L86.731 40.5151C87.1298 40.6965 87.6374 40.8551 88.2539 40.991C88.263 40.5741 88.2675 40.1616 88.2675 39.7536C88.2675 37.1701 88.0953 34.6228 87.7507 32.1117L90.7015 31.6766C91.0731 34.4324 91.2593 37.1791 91.2593 39.9168C91.2593 40.3792 91.2541 40.8369 91.2454 41.2902C91.282 41.2902 91.3176 41.2857 91.3542 41.2766H91.463C92.3785 41.2404 93.1991 41.1134 93.9241 40.8958C94.649 40.6692 95.1703 40.4063 95.4879 40.1072C95.5062 40.0891 95.5741 39.9531 95.6915 39.6992C95.8003 39.4364 95.9004 39.0919 95.9909 38.6658C96.091 38.0494 96.1406 37.3877 96.1406 36.6806C96.1406 36.2998 96.1267 35.91 96.0997 35.5111C96.0179 34.4052 95.8143 33.4307 95.4879 32.5877C95.1433 31.8171 94.8169 31.3412 94.5089 31.1598C94.2191 31.0511 93.6882 30.9605 92.918 30.8879C92.4646 30.8517 91.993 30.8335 91.5039 30.8335C91.1506 30.8335 90.792 30.8426 90.4291 30.8607C89.5232 30.9242 88.7162 31.0239 88.0091 31.1598C87.7553 31.2052 87.5286 31.2596 87.3293 31.323C87.1298 31.3774 86.9847 31.4182 86.8941 31.4455L86.8261 31.4726L85.3848 28.8619C85.9921 28.5446 86.6856 28.3315 87.4652 28.2227C88.2992 28.0687 89.2193 27.9554 90.2255 27.8828C90.7241 27.8466 91.2184 27.8239 91.7075 27.8148C91.8981 27.8058 92.0835 27.8013 92.2654 27.8013Z" fill="#4E2800"/>
<path d="M106.029 30.3167L103.12 31.0509C102.983 30.4618 102.902 29.8951 102.875 29.3512C102.856 28.9433 102.848 28.5852 102.848 28.277V27.8147H105.826C105.826 28.1773 105.84 28.5988 105.867 29.0793C105.894 29.5507 105.948 29.9631 106.029 30.3167ZM106.275 31.9892C106.401 33.5393 106.464 35.1665 106.464 36.8707C106.464 37.3512 106.46 37.8317 106.451 38.3121C106.406 40.5331 106.275 42.5229 106.057 44.2816L103.092 43.9144C103.291 42.3008 103.414 40.4153 103.459 38.2578C103.469 37.7682 103.473 37.2878 103.473 36.8164C103.473 35.1938 103.414 33.6663 103.297 32.2339L106.275 31.9892Z" fill="#4E2800"/>
<path d="M122.516 28.6709L122.896 29.8811L122.91 29.8947C123.725 32.6324 124.188 35.1978 124.297 37.591C124.306 37.8901 124.31 38.1803 124.31 38.4613C124.31 40.5009 123.975 42.3502 123.304 44.0091C122.506 45.949 121.188 47.4085 119.347 48.3876C118.051 49.0222 116.569 49.3395 114.901 49.3395C114.176 49.3395 113.419 49.2805 112.63 49.1626L113.079 46.2119C113.758 46.3026 114.388 46.348 114.969 46.348C116.219 46.348 117.235 46.1349 118.015 45.7088C119.156 45.1468 120 44.1995 120.544 42.8669C121.042 41.6431 121.292 40.1292 121.292 38.3252C121.292 38.0715 121.287 37.8086 121.278 37.5366C120.97 36.2493 120.457 35.2658 119.741 34.5858C119.016 33.897 118.224 33.489 117.362 33.3621C117.126 33.3258 116.895 33.3077 116.668 33.3077C116.07 33.3077 115.504 33.4391 114.969 33.702C114.552 33.9378 114.193 34.3321 113.895 34.885C113.586 35.438 113.405 36.1134 113.351 36.9111C113.341 37.0381 113.337 37.1649 113.337 37.2918C113.337 37.9536 113.437 38.5746 113.636 39.1547C113.872 39.8527 114.207 40.3876 114.642 40.7593C114.932 40.9678 115.218 41.072 115.499 41.072C115.689 41.072 115.876 41.0222 116.057 40.9224C116.437 40.723 116.627 40.2969 116.627 39.6442C116.627 39.5264 116.623 39.404 116.614 39.2771C116.56 38.8782 116.419 38.5157 116.192 38.1893C115.956 37.8539 115.544 37.5728 114.955 37.3462L116.016 34.5451C117.095 34.9802 117.924 35.5921 118.504 36.3807C119.084 37.1695 119.438 37.9853 119.565 38.8283C119.619 39.191 119.646 39.54 119.646 39.8754C119.646 40.3196 119.601 40.7412 119.511 41.14C119.338 41.8561 118.967 42.4817 118.395 43.0164C117.68 43.6601 116.804 44.0137 115.771 44.0771C115.689 44.0862 115.608 44.0907 115.527 44.0907C114.575 44.0907 113.655 43.7508 112.766 43.0708C111.823 42.2732 111.166 41.3122 110.794 40.1881C110.486 39.2544 110.332 38.3117 110.332 37.3598C110.332 37.1422 110.341 36.9293 110.359 36.7208C110.431 35.5423 110.722 34.4454 111.229 33.4301C111.746 32.4148 112.539 31.6216 113.609 31.0504C114.542 30.5791 115.513 30.3434 116.519 30.3434C116.619 30.3434 116.723 30.348 116.832 30.357C118.019 30.4114 119.148 30.7513 120.217 31.3768C120.217 31.3496 120.213 31.327 120.204 31.3088C120.195 31.2817 120.19 31.2589 120.19 31.2408C120.145 31.0777 120.095 30.9145 120.041 30.7513L119.673 29.5683L122.516 28.6709Z" fill="#4E2800"/>
<path d="M131.385 30.3167L128.476 31.0509C128.339 30.4618 128.258 29.8951 128.23 29.3512C128.212 28.9433 128.203 28.5852 128.203 28.277V27.8147H131.181C131.181 28.1773 131.195 28.5988 131.222 29.0793C131.249 29.5507 131.304 29.9631 131.385 30.3167ZM131.63 31.9892C131.756 33.5393 131.82 35.1665 131.82 36.8707C131.82 37.3512 131.816 37.8317 131.807 38.3121C131.762 40.5331 131.63 42.5229 131.413 44.2816L128.448 43.9144C128.647 42.3008 128.77 40.4153 128.815 38.2578C128.824 37.7682 128.829 37.2878 128.829 36.8164C128.829 35.1938 128.77 33.6663 128.652 32.2339L131.63 31.9892Z" fill="#4E2800"/>
<path d="M137.89 25.3535L140.8 26.0742C140.528 27.1801 140.338 28.6079 140.229 30.3575C141.307 30.3756 142.382 30.4798 143.452 30.6702L142.908 33.6073C142.083 33.4713 141.203 33.4034 140.269 33.4034H140.092V35.5653C140.12 37.2878 140.206 38.72 140.351 39.8622C140.414 40.3609 140.482 40.7416 140.555 41.0044C140.8 41.0861 141.145 41.154 141.588 41.2084C142.178 41.2719 142.799 41.3036 143.452 41.3036C143.678 41.3036 143.905 41.2991 144.131 41.2901L144.24 44.2679C143.968 44.277 143.696 44.2816 143.424 44.2816C142.69 44.2816 141.97 44.2453 141.262 44.1728C140.347 44.1274 139.499 43.9008 138.719 43.4929C138.483 43.3569 138.316 43.2164 138.216 43.0713C138.107 42.9354 138.026 42.8085 137.972 42.6906C137.962 42.6725 137.958 42.6544 137.958 42.6362C137.84 42.3915 137.75 42.1513 137.686 41.9155C137.559 41.435 137.459 40.873 137.387 40.2294C137.223 38.9422 137.128 37.4056 137.101 35.6197V33.6073C136.72 33.6708 136.43 33.7342 136.231 33.7977L135.293 30.9694C135.846 30.7789 136.484 30.634 137.21 30.5342C137.309 28.5581 137.536 26.8311 137.89 25.3535Z" fill="#4E2800"/>
<path d="M152.892 30.3705L153.355 30.3569C154.741 30.3569 156.155 30.5427 157.598 30.9144C157.978 31.0323 158.282 31.209 158.509 31.4448C158.735 31.6714 158.912 31.907 159.039 32.1518C159.283 32.6141 159.465 33.1036 159.583 33.6204C159.837 34.69 159.972 35.8459 159.991 37.0877C159.999 37.3235 160.004 37.5592 160.004 37.7948C160.004 38.7739 159.94 39.694 159.814 40.5552C159.732 41.072 159.619 41.5524 159.474 41.9966C159.465 42.0237 159.456 42.0465 159.447 42.0646C159.383 42.2821 159.288 42.4997 159.161 42.7173C159.034 42.9348 158.817 43.1524 158.509 43.3699C157.792 43.796 157.026 44.0453 156.21 44.1178C155.422 44.2357 154.606 44.2946 153.762 44.2946H153.586C152.688 44.2855 151.85 44.2176 151.071 44.0906C150.971 44.0725 150.876 44.0589 150.785 44.0498C150.468 44.0136 150.159 43.941 149.86 43.8322C149.561 43.7234 149.244 43.5059 148.908 43.1795C148.636 42.9076 148.446 42.6448 148.337 42.3909C148.228 42.128 148.142 41.856 148.079 41.575C148.07 41.5478 148.06 41.5161 148.052 41.4798C147.898 40.8725 147.803 40.2198 147.766 39.5218C147.748 39.2952 147.739 39.0731 147.739 38.8555C147.739 38.366 147.789 37.8175 147.888 37.2102C147.997 36.5937 148.341 35.9728 148.922 35.3472C149.067 35.2113 149.226 35.1025 149.398 35.0209C149.57 34.9303 149.72 34.8669 149.846 34.8306C150.1 34.7489 150.354 34.6945 150.608 34.6674C151.061 34.604 151.533 34.5722 152.022 34.5722H152.212C152.775 34.5722 153.31 34.613 153.817 34.6945C154.062 34.7399 154.316 34.8079 154.579 34.8985C154.724 34.9529 154.887 35.0436 155.068 35.1705C155.258 35.2883 155.426 35.4606 155.572 35.6872C155.807 36.0861 155.952 36.5122 156.007 36.9654C156.052 37.3008 156.075 37.6317 156.075 37.958L156.061 38.2708C156.042 39.0776 155.934 39.7982 155.734 40.4328L152.892 39.4946C152.91 39.4402 152.938 39.2816 152.974 39.0187C153.019 38.7558 153.051 38.4702 153.07 38.162C153.07 38.0079 153.056 37.8629 153.029 37.7269C153.029 37.6907 153.024 37.6544 153.015 37.6181C152.779 37.5819 152.503 37.5592 152.185 37.5501C151.832 37.5501 151.438 37.5773 151.003 37.6317C150.993 37.6408 150.989 37.6498 150.989 37.6589C150.944 37.7858 150.889 38.0033 150.825 38.3116C150.771 38.5835 150.744 38.8918 150.744 39.2362V39.3858C150.771 39.9025 150.839 40.3467 150.948 40.7184C150.966 40.8 150.989 40.868 151.016 40.9224L151.043 40.9767C151.052 40.9767 151.061 40.9813 151.071 40.9903C151.198 41.0538 151.365 41.1082 151.574 41.1535C152.144 41.2442 152.82 41.294 153.6 41.3031H153.79C154.506 41.3031 155.159 41.2577 155.748 41.1671C156.183 41.0946 156.491 41.0176 156.672 40.9359C156.736 40.7547 156.795 40.4827 156.849 40.1201C156.958 39.3768 157.013 38.5292 157.013 37.5773V37.1694C156.976 36.0453 156.867 35.098 156.686 34.3275C156.605 34.0465 156.532 33.847 156.469 33.7292C155.508 33.5207 154.511 33.4164 153.477 33.4164C153.396 33.4164 153.051 33.4209 152.444 33.43C151.845 33.439 151.138 33.4979 150.322 33.6067L149.099 33.7699L148.514 30.8328L149.765 30.6289C150.59 30.4929 151.633 30.4068 152.892 30.3705Z" fill="#4E2800"/>
<path d="M170.356 30.3569C171.344 30.375 172.155 30.4475 172.79 30.5745C173.424 30.6923 173.819 30.7784 173.973 30.8328L173.986 30.8465C174.44 30.9824 174.798 31.2272 175.06 31.5807C175.323 31.9252 175.487 32.2606 175.55 32.587C175.614 32.9133 175.645 33.226 175.645 33.5252C175.645 33.779 175.623 34.0192 175.577 34.2458C175.442 35.1705 175.288 35.9093 175.115 36.4623C175.087 36.562 175.065 36.6481 175.047 36.7207L172.15 35.9864C172.16 35.9592 172.169 35.9274 172.178 35.8911C172.196 35.8368 172.209 35.7824 172.219 35.728C172.382 35.1388 172.513 34.5268 172.613 33.8923C172.622 33.838 172.626 33.7926 172.626 33.7563V33.5796C172.137 33.4527 171.439 33.3665 170.532 33.3212H170.233C169.399 33.3212 168.447 33.4482 167.378 33.7019C167.314 33.8107 167.242 34.0147 167.16 34.3138C166.979 35.0844 166.87 36.0272 166.834 37.1421V37.5909C166.834 38.5246 166.883 39.3586 166.984 40.0929C167.047 40.4646 167.111 40.7411 167.174 40.9224C167.355 41.0039 167.673 41.081 168.125 41.1535C168.742 41.2532 169.436 41.3031 170.206 41.3031H170.397C171.257 41.2759 172.055 41.1853 172.79 41.0311C173.524 40.877 174.009 40.7319 174.245 40.596L175.836 43.1251C175.074 43.5875 174.231 43.8958 173.307 44.0498C172.382 44.2039 171.43 44.281 170.451 44.281H170.111C169.25 44.281 168.434 44.2221 167.663 44.1042C166.82 44.0226 166.045 43.7688 165.338 43.3427C165.03 43.1343 164.812 42.9212 164.685 42.7037C164.558 42.4861 164.463 42.2686 164.4 42.051C164.391 42.0419 164.387 42.0283 164.387 42.0102C164.377 42.0011 164.373 41.9875 164.373 41.9694C164.219 41.5342 164.106 41.0583 164.032 40.5416C163.905 39.6714 163.843 38.7467 163.843 37.7677C163.843 37.532 163.847 37.2963 163.856 37.0606C163.874 35.8187 164.01 34.6629 164.264 33.5932C164.381 33.0765 164.563 32.587 164.808 32.1246C164.935 31.8889 165.112 31.6533 165.338 31.4175C165.565 31.1909 165.869 31.0187 166.249 30.9008C167.636 30.5382 168.901 30.3569 170.043 30.3569H170.356Z" fill="#4E2800"/>
<path d="M179.552 30.2625L182.53 30.4664C182.494 30.8925 182.466 31.3322 182.449 31.7854C183.165 31.0511 184.08 30.5933 185.195 30.412C185.44 30.3667 185.684 30.344 185.93 30.344L186.174 30.3577C187.162 30.403 188.005 30.7247 188.703 31.323C189.546 32.1661 190.009 33.1587 190.09 34.301L187.126 34.6002C187.044 34.0472 186.903 33.6981 186.704 33.5531C186.451 33.3446 186.183 33.2404 185.902 33.2404C185.776 33.2404 185.649 33.263 185.521 33.3083C185.105 33.4443 184.723 33.68 184.379 34.0154C184.035 34.3418 183.785 34.65 183.631 34.9401C183.114 35.901 182.784 37.1429 182.638 38.6658C182.603 39.0828 182.584 39.5089 182.584 39.944C182.584 41.0953 182.716 42.2919 182.979 43.5338L180.082 44.2817C179.592 42.4687 179.33 40.3022 179.294 37.782V36.8709C179.294 34.6591 179.38 32.4562 179.552 30.2625Z" fill="#4E2800"/>
<path d="M200.197 30.3569C200.895 30.3569 201.644 30.4113 202.441 30.5201C203.348 30.647 204.136 30.9779 204.807 31.5127C205.569 32.392 205.95 33.6294 205.95 35.2249V35.2793C205.95 36.8476 205.564 38.1484 204.793 39.1818C204.495 39.4719 204.236 39.6533 204.019 39.7258C203.81 39.7982 203.611 39.8391 203.42 39.8481C203.33 39.8481 203.235 39.8572 203.135 39.8753C202.636 39.9388 202.115 39.9705 201.571 39.9705C201.027 39.9614 200.506 39.9161 200.007 39.8345C199.762 39.7982 199.513 39.7303 199.259 39.6305C199.232 39.6215 199.21 39.6124 199.191 39.6034C199.064 39.5581 198.919 39.4856 198.756 39.3858C198.602 39.2861 198.444 39.1094 198.28 38.8555C197.954 38.2572 197.786 37.5727 197.777 36.8022C197.777 36.0407 197.882 35.2928 198.09 34.5586L200.891 34.8985C200.774 35.3427 200.706 35.796 200.687 36.2583C200.678 36.3399 200.673 36.4215 200.673 36.5031C200.673 36.6572 200.687 36.7932 200.714 36.911C200.959 36.9473 201.254 36.9699 201.599 36.979C202.034 36.979 202.4 36.9563 202.699 36.911H202.713L202.726 36.8974V36.8702C202.773 36.7433 202.826 36.5257 202.89 36.2175C202.944 35.9547 202.972 35.651 202.972 35.3065V35.1569C202.944 34.6855 202.881 34.2912 202.781 33.9739C202.754 33.9014 202.726 33.838 202.699 33.7836L202.672 33.7292C202.527 33.6475 202.319 33.5751 202.047 33.5116C201.385 33.3938 200.669 33.3348 199.898 33.3348C199.091 33.3439 198.407 33.4119 197.845 33.5388C197.51 33.6385 197.324 33.711 197.287 33.7563V33.7699C196.925 34.4589 196.698 35.3201 196.608 36.3535C196.589 36.5348 196.581 36.7116 196.581 36.8838C196.581 37.7088 196.743 38.4793 197.07 39.1954C197.433 40.0385 198.153 40.6459 199.232 41.0176C199.758 41.1988 200.429 41.2895 201.244 41.2895H201.367C202.246 41.2805 203.298 41.1127 204.522 40.7863L205.297 43.6691C203.746 44.077 202.35 44.281 201.109 44.281C200.076 44.281 199.142 44.1405 198.307 43.8595C197.373 43.5512 196.581 43.1025 195.928 42.5133C195.275 41.9332 194.768 41.2759 194.405 40.5416C193.806 39.2816 193.508 38.0261 193.508 36.7751C193.508 36.5485 193.517 36.3218 193.535 36.0951C193.671 34.6175 194.074 33.3031 194.745 32.1518C195.216 31.4629 195.946 30.9914 196.934 30.7377C197.895 30.4838 198.851 30.3569 199.803 30.3569H200.197Z" fill="#4E2800"/>
<path d="M214.969 30.3705L215.431 30.3569C216.818 30.3569 218.233 30.5427 219.674 30.9144C220.055 31.0323 220.359 31.209 220.585 31.4448C220.811 31.6714 220.989 31.907 221.115 32.1518C221.36 32.6141 221.541 33.1036 221.659 33.6204C221.913 34.69 222.049 35.8459 222.067 37.0877C222.076 37.3235 222.081 37.5592 222.081 37.7948C222.081 38.7739 222.017 39.694 221.89 40.5552C221.808 41.072 221.695 41.5524 221.55 41.9966C221.541 42.0237 221.533 42.0465 221.523 42.0646C221.459 42.2821 221.365 42.4997 221.238 42.7173C221.11 42.9348 220.893 43.1524 220.585 43.3699C219.869 43.796 219.103 44.0453 218.286 44.1178C217.498 44.2357 216.683 44.2946 215.839 44.2946H215.663C214.765 44.2855 213.927 44.2176 213.147 44.0906C213.048 44.0725 212.952 44.0589 212.861 44.0498C212.544 44.0136 212.236 43.941 211.937 43.8322C211.638 43.7234 211.32 43.5059 210.985 43.1795C210.713 42.9076 210.523 42.6448 210.414 42.3909C210.305 42.128 210.219 41.856 210.156 41.575C210.146 41.5478 210.137 41.5161 210.128 41.4798C209.974 40.8725 209.879 40.2198 209.842 39.5218C209.824 39.2952 209.815 39.0731 209.815 38.8555C209.815 38.366 209.865 37.8175 209.965 37.2102C210.074 36.5937 210.419 35.9728 210.998 35.3472C211.143 35.2113 211.302 35.1025 211.474 35.0209C211.646 34.9303 211.796 34.8669 211.923 34.8306C212.177 34.7489 212.431 34.6945 212.685 34.6674C213.138 34.604 213.609 34.5722 214.099 34.5722H214.289C214.852 34.5722 215.386 34.613 215.893 34.6945C216.139 34.7399 216.392 34.8079 216.655 34.8985C216.8 34.9529 216.964 35.0436 217.145 35.1705C217.335 35.2883 217.502 35.4606 217.648 35.6872C217.884 36.0861 218.029 36.5122 218.083 36.9654C218.128 37.3008 218.151 37.6317 218.151 37.958L218.138 38.2708C218.119 39.0776 218.011 39.7982 217.811 40.4328L214.969 39.4946C214.987 39.4402 215.014 39.2816 215.051 39.0187C215.096 38.7558 215.127 38.4702 215.146 38.162C215.146 38.0079 215.132 37.8629 215.105 37.7269C215.105 37.6907 215.1 37.6544 215.092 37.6181C214.856 37.5819 214.579 37.5592 214.262 37.5501C213.908 37.5501 213.514 37.5773 213.079 37.6317C213.07 37.6408 213.065 37.6498 213.065 37.6589C213.02 37.7858 212.966 38.0033 212.902 38.3116C212.847 38.5835 212.82 38.8918 212.82 39.2362V39.3858C212.847 39.9025 212.916 40.3467 213.025 40.7184C213.042 40.8 213.065 40.868 213.093 40.9224L213.12 40.9767C213.128 40.9767 213.138 40.9813 213.147 40.9903C213.274 41.0538 213.442 41.1082 213.65 41.1535C214.222 41.2442 214.897 41.294 215.676 41.3031H215.866C216.583 41.3031 217.235 41.2577 217.824 41.1671C218.26 41.0946 218.568 41.0176 218.749 40.9359C218.813 40.7547 218.871 40.4827 218.926 40.1201C219.035 39.3768 219.089 38.5292 219.089 37.5773V37.1694C219.053 36.0453 218.944 35.098 218.763 34.3275C218.682 34.0465 218.608 33.847 218.545 33.7292C217.584 33.5207 216.587 33.4164 215.554 33.4164C215.472 33.4164 215.127 33.4209 214.52 33.43C213.922 33.439 213.215 33.4979 212.399 33.6067L211.176 33.7699L210.591 30.8328L211.841 30.6289C212.666 30.4929 213.709 30.4068 214.969 30.3705Z" fill="#4E2800"/>
<path d="M225.92 41.3032H228.912V44.2812H225.92V41.3032Z" fill="#4E2800"/>
<path d="M70.0547 0.914019L0.188677 0.780029L0.0546875 70.6461L69.9207 70.78L70.0547 0.914019Z" fill="#F4AA3E"/>
<mask id="mask0" mask-type="alpha" maskUnits="userSpaceOnUse" x="0" y="0" width="71" height="71">
<path d="M70.0547 0.91402L0.188678 0.780029L0.0546875 70.6461L69.9207 70.78L70.0547 0.91402Z" fill="#F4AA3E"/>
</mask>
<g mask="url(#mask0)">
<path d="M73.5184 4.92151L4.18371 -3.68018L-4.41797 65.6544L64.9166 74.2561L73.5184 4.92151Z" fill="url(#paint0_linear)"/>
<g filter="url(#filter0_d)">
<path fill-rule="evenodd" clip-rule="evenodd" d="M9.95665 -6.24658L12.0921 -5.69951C12.3724 -5.6277 12.5414 -5.34222 12.4696 -5.06187C12.3979 -4.78153 12.1124 -4.61249 11.832 -4.68431L10.7118 -4.97129L10.4248 -3.85107C10.353 -3.57073 10.0675 -3.40169 9.78713 -3.47351C9.50679 -3.54533 9.3378 -3.83081 9.40959 -4.11116L9.95665 -6.24658ZM16.3379 -4.07088C16.4097 -4.35123 16.6952 -4.52027 16.9756 -4.44845L20.2312 -3.6144C20.5115 -3.54258 20.6806 -3.2571 20.6088 -2.97675C20.5369 -2.69641 20.2514 -2.52737 19.9711 -2.59919L16.7155 -3.43324C16.4352 -3.50506 16.2661 -3.79054 16.3379 -4.07088ZM24.477 -1.98576C24.5488 -2.26611 24.8343 -2.43515 25.1146 -2.36333L28.3703 -1.52928C28.6506 -1.45746 28.8197 -1.17198 28.7478 -0.89163C28.6761 -0.611292 28.3906 -0.442251 28.1102 -0.514073L24.8545 -1.34812C24.5742 -1.41994 24.4052 -1.70542 24.477 -1.98576ZM32.6162 0.0993567C32.6879 -0.180986 32.9734 -0.350028 33.2538 -0.278205L36.5094 0.555841C36.7898 0.62766 36.9588 0.913144 36.887 1.19349C36.8152 1.47383 36.5297 1.64287 36.2494 1.57105L32.9937 0.737C32.7134 0.665181 32.5443 0.379698 32.6162 0.0993567ZM40.7552 2.18447C40.8271 1.90413 41.1126 1.73509 41.3929 1.80691L44.6485 2.64096C44.9288 2.71278 45.0979 2.99826 45.0261 3.2786C44.9543 3.55895 44.6688 3.72799 44.3884 3.65617L41.1328 2.82212C40.8525 2.7503 40.6834 2.46482 40.7552 2.18447ZM48.8944 4.26959C48.9661 3.98925 49.2516 3.82021 49.532 3.89203L52.7876 4.72608C53.068 4.7979 53.2371 5.08338 53.1652 5.36372C53.0934 5.64407 52.8079 5.8131 52.5276 5.74129L49.2719 4.90723C48.9916 4.83542 48.8226 4.54994 48.8944 4.26959ZM57.0335 6.35471C57.1053 6.07437 57.3908 5.90533 57.6711 5.97715L60.9268 6.8112C61.2071 6.88301 61.3761 7.1685 61.3043 7.44884C61.2325 7.72918 60.9471 7.89822 60.6667 7.82641L57.411 6.99235C57.1307 6.92054 56.9616 6.63506 57.0335 6.35471ZM65.1726 8.43983C65.2444 8.1595 65.5299 7.99045 65.8103 8.06227L69.0658 8.89631C69.3462 8.96813 69.5153 9.25362 69.4435 9.53396C69.3716 9.81431 69.0861 9.98339 68.8058 9.91151L65.5502 9.07747C65.2699 9.00566 65.1008 8.72017 65.1726 8.43983ZM73.3117 10.5249C73.3835 10.2446 73.669 10.0756 73.9493 10.1474L76.0848 10.6944L75.5377 12.8299C75.4659 13.1102 75.1804 13.2792 74.9 13.2074C74.6197 13.1357 74.4507 12.8502 74.5225 12.5698L74.8095 11.4496L73.6892 11.1626C73.4089 11.0908 73.2399 10.8053 73.3117 10.5249ZM8.79617 0.39475C9.07651 0.466569 9.24558 0.752052 9.17371 1.03239L8.33968 4.28804C8.26786 4.56838 7.98238 4.73742 7.70204 4.6656C7.42169 4.59378 7.25266 4.3083 7.32447 4.02796L8.15853 0.772314C8.23034 0.491971 8.51582 0.32293 8.79617 0.39475ZM73.9091 17.0757C74.1894 17.1475 74.3585 17.433 74.2866 17.7134L73.4526 20.969C73.3808 21.2493 73.0953 21.4184 72.815 21.3466C72.5346 21.2747 72.3655 20.9892 72.4374 20.7089L73.2714 17.4533C73.3432 17.173 73.6287 17.0039 73.9091 17.0757ZM71.824 25.2148C72.1043 25.2866 72.2733 25.5721 72.2015 25.8524L71.3675 29.1081C71.2956 29.3884 71.0101 29.5575 70.7298 29.4856C70.4495 29.4139 70.2805 29.1284 70.3523 28.848L71.1863 25.5924C71.2582 25.312 71.5437 25.143 71.824 25.2148ZM6.71105 8.53386C6.99139 8.60568 7.16043 8.89117 7.08861 9.17151L6.25456 12.4271C6.18275 12.7075 5.89726 12.8765 5.61692 12.8048C5.33658 12.7329 5.16754 12.4474 5.23935 12.1671L6.07341 8.91143C6.14522 8.63108 6.4307 8.46204 6.71105 8.53386ZM4.62593 16.673C4.90627 16.7448 5.07531 17.0303 5.00349 17.3106L4.16944 20.5663C4.09763 20.8466 3.81214 21.0157 3.5318 20.9438C3.25146 20.872 3.08242 20.5865 3.15423 20.3062L3.98829 17.0505C4.0601 16.7702 4.34559 16.6012 4.62593 16.673ZM69.7388 33.354C70.0192 33.4258 70.1882 33.7112 70.1164 33.9916L69.2823 37.2472C69.2106 37.5276 68.9251 37.6966 68.6447 37.6248C68.3644 37.553 68.1953 37.2675 68.2671 36.9872L69.1012 33.7315C69.173 33.4512 69.4585 33.2821 69.7388 33.354ZM2.54081 24.8121C2.82115 24.8839 2.9902 25.1694 2.91837 25.4497L2.08433 28.7053C2.01251 28.9858 1.72702 29.1547 1.44669 29.083C1.16634 29.0111 0.9973 28.7256 1.06912 28.4453L1.90317 25.1897C1.97499 24.9093 2.26047 24.7403 2.54081 24.8121ZM67.6537 41.493C67.934 41.5649 68.1031 41.8504 68.0313 42.1307L67.1972 45.3863C67.1254 45.6666 66.8399 45.8357 66.5596 45.7639C66.2792 45.6921 66.1102 45.4066 66.182 45.1262L67.0161 41.8706C67.0879 41.5903 67.3733 41.4212 67.6537 41.493ZM0.455691 32.9512C0.736032 33.0231 0.905074 33.3085 0.833254 33.5888L-0.000793457 36.8445C-0.0726132 37.1248 -0.358096 37.2939 -0.638434 37.222C-0.91878 37.1502 -1.08782 36.8647 -1.016 36.5844L-0.181953 33.3287C-0.110134 33.0484 0.175349 32.8794 0.455691 32.9512ZM65.5686 49.6322C65.8489 49.7039 66.0179 49.9894 65.9462 50.2698L65.1121 53.5255C65.0403 53.8058 64.7548 53.9749 64.4744 53.903C64.1941 53.8312 64.0251 53.5457 64.0969 53.2654L64.9309 50.0097C65.0028 49.7294 65.2883 49.5604 65.5686 49.6322ZM-1.62942 41.0903C-1.34909 41.1621 -1.18004 41.4476 -1.25187 41.7279L-2.08591 44.9836C-2.15773 45.264 -2.44322 45.4329 -2.72355 45.3612C-3.0039 45.2894 -3.17294 45.0039 -3.10112 44.7235L-2.26707 41.4679C-2.19525 41.1875 -1.90977 41.0185 -1.62942 41.0903ZM63.4835 57.7713C63.7638 57.8431 63.9329 58.1286 63.861 58.4089L63.027 61.6646C62.9552 61.9449 62.6697 62.1139 62.3894 62.0421C62.109 61.9703 61.9399 61.6849 62.0118 61.4044L62.8458 58.1488C62.9176 57.8685 63.2031 57.6994 63.4835 57.7713ZM-3.71454 49.2294C-3.43421 49.3013 -3.26516 49.5867 -3.33699 49.8671L-4.17103 53.1227C-4.24285 53.4031 -4.52834 53.5721 -4.80867 53.5003C-5.08902 53.4284 -5.25806 53.1429 -5.18624 52.8626L-4.35219 49.607C-4.28037 49.3267 -3.99489 49.1576 -3.71454 49.2294ZM61.3984 65.9104C61.6787 65.9822 61.8477 66.2676 61.7759 66.548L60.9419 69.8036C60.87 70.084 60.5845 70.2531 60.3042 70.1812C60.0239 70.1094 59.8549 69.8239 59.9267 69.5436L60.7607 66.2879C60.8326 66.0076 61.118 65.8386 61.3984 65.9104ZM-5.79966 57.3685C-5.51933 57.4403 -5.35028 57.7258 -5.4221 58.0061L-5.70909 59.1264L-4.58887 59.4134C-4.30853 59.4852 -4.13949 59.7707 -4.2113 60.051C-4.28312 60.3314 -4.5686 60.5005 -4.84895 60.4286L-6.98438 59.8815L-6.43731 57.7461C-6.36549 57.4657 -6.08001 57.2967 -5.79966 57.3685ZM59.3132 74.0495C59.5936 74.1213 59.7626 74.4068 59.6908 74.6871L59.1437 76.8226L57.0083 76.2755C56.7279 76.2037 56.5589 75.9182 56.6307 75.6378C56.7026 75.3575 56.988 75.1885 57.2683 75.2603L58.3886 75.5473L58.6756 74.427C58.7474 74.1467 59.0329 73.9776 59.3132 74.0495ZM-0.343045 61.042C-0.271226 60.7617 0.0142579 60.5927 0.2946 60.6645L3.55024 61.4985C3.83059 61.5704 3.99963 61.8558 3.92781 62.1361C3.85599 62.4165 3.5705 62.5855 3.29017 62.5137L0.0345197 61.6797C-0.245823 61.6078 -0.414863 61.3223 -0.343045 61.042ZM7.79607 63.1272C7.86788 62.8468 8.15337 62.6777 8.43371 62.7496L11.6893 63.5836C11.9697 63.6554 12.1387 63.9409 12.067 64.2213C11.9951 64.5016 11.7096 64.6707 11.4292 64.5988L8.17363 63.7648C7.89329 63.693 7.72425 63.4075 7.79607 63.1272ZM15.9352 65.2122C16.007 64.9319 16.2925 64.7629 16.5728 64.8347L19.8285 65.6687C20.1088 65.7406 20.2779 66.0261 20.206 66.3064C20.1342 66.5868 19.8487 66.7557 19.5684 66.684L16.3127 65.8499C16.0324 65.7781 15.8634 65.4926 15.9352 65.2122ZM24.0743 67.2974C24.1461 67.017 24.4316 66.848 24.7119 66.9198L27.9676 67.7539C28.248 67.8257 28.4169 68.1111 28.3452 68.3915C28.2733 68.6718 27.9879 68.8409 27.7075 68.769L24.4519 67.935C24.1715 67.8632 24.0024 67.5777 24.0743 67.2974ZM32.2134 69.3825C32.2853 69.1022 32.5707 68.9331 32.8511 69.0049L36.1067 69.839C36.387 69.9108 36.5561 70.1963 36.4843 70.4766C36.4124 70.757 36.1269 70.926 35.8466 70.8542L32.591 70.0201C32.3106 69.9483 32.1416 69.6629 32.2134 69.3825ZM40.3525 71.4676C40.4243 71.1873 40.7098 71.0183 40.9901 71.0901L44.2458 71.9241C44.5261 71.9959 44.6952 72.2814 44.6233 72.5617C44.5516 72.842 44.2661 73.0111 43.9857 72.9393L40.7301 72.1052C40.4497 72.0334 40.2807 71.7479 40.3525 71.4676ZM48.4917 73.5528C48.5635 73.2724 48.8489 73.1033 49.1293 73.1751L52.385 74.0092C52.6653 74.081 52.8343 74.3665 52.7625 74.6469C52.6906 74.9272 52.4052 75.0963 52.1248 75.0244L48.8692 74.1904C48.5889 74.1186 48.4198 73.8331 48.4917 73.5528Z" fill="#F4AA3E"/>
</g>
<path d="M19.9059 70.4344C19.8229 70.3514 17.7033 66.7523 16.141 66.2515C14.5786 65.7506 13.4375 67.2831 13.4375 67.2831V70.6832H19.9059V70.4344Z" fill="#F4AA3E"/>
<path d="M22.698 68.92V65.2136C22.7022 64.2818 22.3366 63.3863 21.6816 62.7235L20.6246 61.6664C20.5562 61.5971 20.4747 61.5421 20.3848 61.5044C20.295 61.4669 20.1986 61.4475 20.1011 61.4475C20.0037 61.4475 19.9073 61.4669 19.8174 61.5044C19.7276 61.5421 19.6461 61.5971 19.5777 61.6664L17.2672 63.9737C17.137 64.1109 17.0645 64.2928 17.0645 64.4819C17.0645 64.671 17.137 64.8529 17.2672 64.9901L21.4106 69.4283C21.5121 69.5384 21.6445 69.6152 21.7905 69.6486C21.9365 69.682 22.0892 69.6705 22.2285 69.6155C22.3678 69.5605 22.4872 69.4646 22.571 69.3405C22.6548 69.2164 22.6991 69.0698 22.698 68.92Z" fill="#F4AA3E"/>
<path d="M17.0079 58.5393L18.4241 59.9555C18.5625 60.0946 18.6402 60.2828 18.6402 60.4789C18.6402 60.6752 18.5625 60.8634 18.4241 61.0024L17.0147 62.4118C16.9109 62.5144 16.7792 62.5842 16.6361 62.6123C16.493 62.6404 16.3447 62.6257 16.2097 62.5701C16.0749 62.5144 15.9594 62.4201 15.8779 62.2992C15.7962 62.1782 15.7521 62.036 15.751 61.89V59.0645C15.7512 58.919 15.7944 58.7767 15.8751 58.6557C15.9559 58.5346 16.0705 58.44 16.2048 58.384C16.3391 58.3279 16.4869 58.3127 16.6298 58.3403C16.7727 58.368 16.9042 58.4373 17.0079 58.5393Z" fill="#F4AA3E"/>
<path d="M20.6849 53.7554L17.9338 56.5098C17.7954 56.6489 17.7178 56.8371 17.7178 57.0332C17.7178 57.2294 17.7954 57.4177 17.9338 57.5567L20.6882 60.3111C20.7922 60.4139 20.9242 60.4837 21.0677 60.5118C21.2112 60.5398 21.3597 60.5248 21.4947 60.4687C21.6298 60.4126 21.7451 60.3179 21.8265 60.1964C21.9078 60.0749 21.9515 59.9321 21.9519 59.7859V54.2805C21.9522 54.1336 21.9088 53.99 21.8272 53.8678C21.7457 53.7456 21.6298 53.6504 21.494 53.5941C21.3584 53.5379 21.2091 53.5232 21.065 53.5519C20.921 53.5806 20.7887 53.6514 20.6849 53.7554Z" fill="#F4AA3E"/>
<path d="M17.0674 49.1341L19.3543 51.4209C19.4928 51.56 19.5704 51.7483 19.5704 51.9444C19.5704 52.1406 19.4928 52.3288 19.3543 52.4679L17.0776 54.7446C16.9741 54.8483 16.842 54.919 16.6983 54.9479C16.5546 54.9767 16.4055 54.9623 16.27 54.9065C16.1344 54.8507 16.0184 54.7559 15.9367 54.6343C15.8549 54.5126 15.811 54.3694 15.8105 54.2228V49.6593C15.8107 49.5137 15.8539 49.3715 15.9346 49.2504C16.0153 49.1293 16.1301 49.0348 16.2643 48.9788C16.3986 48.9226 16.5465 48.9074 16.6894 48.9351C16.8323 48.9627 16.9638 49.032 17.0674 49.1341Z" fill="#F4AA3E"/>
<path d="M20.6915 50.0011L18.1302 47.4432C17.9918 47.3042 17.9141 47.116 17.9141 46.9198C17.9141 46.7236 17.9918 46.5354 18.1302 46.3963L20.7152 43.8113C20.8187 43.7067 20.9511 43.6353 21.0955 43.6064C21.2399 43.5775 21.3896 43.5924 21.5254 43.6492C21.6612 43.7061 21.7769 43.8021 21.8577 43.9252C21.9385 44.0482 21.9807 44.1927 21.9789 44.3398L21.9552 49.4828C21.9549 49.6291 21.9113 49.7721 21.8297 49.8936C21.7481 50.0151 21.6323 50.1096 21.4969 50.1651C21.3615 50.2206 21.2127 50.2347 21.0693 50.2055C20.9259 50.1763 20.7944 50.1052 20.6915 50.0011Z" fill="#F4AA3E"/>
<path d="M16.9976 39.5294L19.2642 41.7926C19.3997 41.9318 19.4755 42.1183 19.4755 42.3126C19.4755 42.507 19.3997 42.6935 19.2642 42.8327L16.9874 45.2042C16.8844 45.3102 16.7522 45.3829 16.6076 45.4132C16.463 45.4435 16.3127 45.4299 16.1758 45.3743C16.039 45.3186 15.9219 45.2233 15.8396 45.1007C15.7572 44.978 15.7133 44.8336 15.7136 44.6859V40.058C15.7071 39.9064 15.7475 39.7566 15.8293 39.6287C15.9109 39.501 16.0301 39.4014 16.1703 39.3437C16.3106 39.286 16.4652 39.2728 16.6133 39.306C16.7613 39.3393 16.8954 39.4173 16.9976 39.5294Z" fill="#F4AA3E"/>
<path d="M15.1452 34.0783C15.1037 33.9953 15.0889 33.9015 15.1027 33.8097C15.1166 33.7179 15.1584 33.6327 15.2225 33.5655C15.2867 33.4985 15.37 33.4528 15.461 33.4348C15.5521 33.4168 15.6465 33.4275 15.7314 33.4652C16.9374 33.9936 18.9092 34.7356 20.4237 34.7356C21.9381 34.7356 23.8963 34.0783 25.0686 33.6176C25.1531 33.5836 25.246 33.5761 25.335 33.596C25.4239 33.6158 25.5048 33.6623 25.5668 33.7291C25.6288 33.7959 25.6691 33.8799 25.6824 33.9701C25.6957 34.0603 25.6813 34.1524 25.6411 34.2342C24.7603 36.0806 22.7444 39.7125 20.4473 39.7125C18.1503 39.7125 16.0735 35.9993 15.1452 34.0783Z" fill="#F4AA3E"/>
<path d="M15.081 30.0125C15.0383 29.9456 15.0144 29.8683 15.0119 29.7889C15.0095 29.7095 15.0285 29.631 15.067 29.5616C15.1055 29.4921 15.1622 29.4344 15.2309 29.3945C15.2995 29.3546 15.3777 29.334 15.4571 29.3349C17.4899 29.3925 22.7175 29.5212 23.7542 29.3078C24.5165 29.1519 26.4307 28.3794 27.8604 27.7764C27.9537 27.7356 28.0582 27.7284 28.1562 27.756C28.2542 27.7836 28.3396 27.8443 28.3979 27.9278C28.4563 28.0112 28.4839 28.1123 28.476 28.2138C28.4681 28.3153 28.4254 28.411 28.3551 28.4845C26.7187 30.2395 23.7102 32.9532 20.7525 32.9532C19.6395 32.9599 18.5417 32.6956 17.5536 32.1832C16.5655 31.6709 15.717 30.9259 15.081 30.0125Z" fill="#F4AA3E"/>
<path d="M13.3838 24.4053C13.3838 23.0501 14.3223 21.1292 15.5758 21.1292C16.8293 21.1292 18.2557 22.525 18.3404 23.9479C18.4251 25.3708 18.0287 27.9084 16.4601 28.1083C14.8914 28.3082 13.3838 26.8548 13.3838 24.4053Z" fill="#F4AA3E"/>
<path d="M20.6218 21.6136C21.2553 20.7972 24.2367 20.9022 24.6873 21.3867C25.1379 21.8712 25.5715 26.0011 25.1446 26.7701C24.7177 27.5392 22.6714 28.0508 21.3434 28.2507C20.0153 28.4506 19.2903 27.8238 19.2632 27.0277C19.236 26.2314 20.3067 25.2219 20.3846 24.629C20.4625 24.0361 20.2219 22.1252 20.6218 21.6136Z" fill="#F4AA3E"/>
<path d="M31.0716 19.9062C30.018 19.3369 28.0835 19.9909 27.6261 21.1292C27.1688 22.2675 26.8841 25.459 27.3991 25.774C27.914 26.0891 29.2489 25.8283 30.1095 25.1473C30.97 24.4663 31.4443 20.1027 31.0716 19.9062Z" fill="#F4AA3E"/>
<path d="M35.5166 14.9767C34.5002 14.8582 32.5826 16.6707 32.3556 17.5957C32.1286 18.5206 31.7864 21.6408 32.1828 22C32.5792 22.3591 34.7475 20.4043 35.2896 19.8046C35.8317 19.2049 37.0851 17.1281 36.5702 16.359C36.0552 15.59 36.001 15.0344 35.5166 14.9767Z" fill="#F4AA3E"/>
<path d="M34.8325 8.39727C34.9884 7.74339 38.6237 7.6282 38.9625 8.39727C39.3013 9.16633 39.9789 15.9727 39.4266 16.3455C38.8744 16.7181 36.7163 14.919 36.059 14.0348C35.4018 13.1506 34.0059 11.8699 34.8325 8.39727Z" fill="#F4AA3E"/>
<path d="M28.0533 3.01435C26.8811 2.81785 24.1809 4.15271 24.523 5.00647C24.8652 5.86024 30.4283 8.60448 28.1685 14.8044C25.7461 21.4449 15.5823 17.4775 15.0063 17.6537C14.4303 17.8299 14.1254 19.3172 15.0063 19.6865C15.8871 20.0558 27.2571 20.8079 29.8489 18.643C31.6309 17.1523 33.4944 13.0291 33.4367 11.4606C33.3792 9.89189 32.3255 3.72583 28.0533 3.01435Z" fill="#F4AA3E"/>
<path d="M22.8127 5.89084C21.759 5.55204 16.3451 12.5279 16.7143 13.8661C17.0836 15.2044 21.5524 18.5008 25.1843 15.3466C28.4807 12.4702 25.6822 6.82252 22.8127 5.89084Z" fill="#F4AA3E"/>
<path d="M21.1584 14.1772C22.2118 14.1772 23.0658 13.3232 23.0658 12.2697C23.0658 11.2163 22.2118 10.3623 21.1584 10.3623C20.1049 10.3623 19.251 11.2163 19.251 12.2697C19.251 13.3232 20.1049 14.1772 21.1584 14.1772Z" fill="#4E2800"/>
<path d="M30.5606 1.24575C30.5606 0.77482 38.7662 0.568155 43.0655 2.69918C47.3649 4.8302 46.8567 5.51796 46.0876 5.69075C45.3185 5.86352 37.4822 7.20178 36.0863 6.85959C34.6906 6.5174 30.5437 2.90924 30.5606 1.24575Z" fill="#F4AA3E"/>
<path d="M41.7541 8.03482C42.8009 6.4662 47.2629 6.28664 48.6689 7.08619C50.0749 7.88575 53.5272 11.87 53.036 12.2698C52.5447 12.6695 48.6316 11.6701 47.4187 11.5617C46.2059 11.4532 42.7467 12.0868 42.2893 11.5617C41.832 11.0366 41.2255 8.83437 41.7541 8.03482Z" fill="#F4AA3E"/>
<path d="M41.1851 13.3908C40.7142 14.187 44.3393 15.4033 47.148 16.9211C49.9566 18.4389 53.3039 19.086 54.5439 18.8319C54.8054 18.7922 55.0523 18.6859 55.2607 18.5232C55.4693 18.3605 55.6324 18.1469 55.7345 17.9029C55.8366 17.6589 55.8741 17.3927 55.8437 17.13C55.8132 16.8673 55.7156 16.6168 55.5603 16.4028C54.9538 15.4507 48.6861 13.855 47.9272 13.628C47.1683 13.4011 41.795 12.3643 41.1851 13.3908Z" fill="#F4AA3E"/>
<path d="M53.6051 20.1301C54.7061 19.5304 56.2647 20.0014 56.4916 20.723C56.7186 21.4447 57.7079 22.9624 57.1387 23.3419C56.5695 23.7213 53.2257 20.3402 53.6051 20.1301Z" fill="#F4AA3E"/>
<path d="M47.6268 19.8486C49.1074 19.6115 50.1881 21.9322 50.1881 23.3653C50.1881 24.6087 48.5484 56.9061 48.7483 66.0164C48.7719 67.0327 49.6223 68.4658 50.3101 69.4585C50.3873 69.5696 50.4327 69.6996 50.4413 69.8346C50.45 69.9696 50.4215 70.1045 50.359 70.2245C50.2966 70.3445 50.2025 70.4452 50.087 70.5156C49.9715 70.5859 49.839 70.6234 49.7036 70.6239H46.0176C45.8254 70.6232 45.6411 70.5479 45.5033 70.4139C45.3655 70.2799 45.2851 70.0978 45.279 69.9057C45.1909 67.1953 44.4422 57.7802 38.2252 58.8847C30.9716 60.1789 31.1614 65.1151 30.0942 64.468C29.027 63.8209 28.2342 58.7424 28.3494 57.455C28.4646 56.1675 27.8174 52.7118 28.9185 52.2138C30.0196 51.7157 35.5285 55.3002 38.1473 55.368C42.9243 55.49 41.1016 50.8756 41.7284 49.9642C41.7284 49.9642 42.9548 49.2866 43.978 49.4424C45.0012 49.5982 44.0356 47.4876 44.2626 47.1997C44.4896 46.9116 45.9159 46.9049 46.0887 46.234C46.4071 44.9737 44.5201 42.9003 45.2891 42.531C45.2891 42.531 48.6771 41.5146 48.6771 40.1933C48.6771 37.1442 45.1705 36.4903 45.1705 32.6179C45.1705 30.6461 47.9351 29.2299 47.7352 24.6359C47.5353 20.0418 47.6268 19.8486 47.6268 19.8486Z" fill="#F4AA3E"/>
<path d="M31.0742 66.03C31.2165 65.3796 34.0759 60.7516 38.5684 61.3106C43.4538 61.9171 44.0839 67.287 44.1212 69.6619C44.1225 69.8086 44.0948 69.954 44.0395 70.0898C43.9842 70.2256 43.9025 70.3491 43.7992 70.4531C43.6958 70.5571 43.5728 70.6395 43.4373 70.6957C43.3019 70.7517 43.1566 70.7804 43.0099 70.78H42.6712C42.4111 70.7807 42.1591 70.6898 41.9596 70.5231C41.76 70.3564 41.6257 70.1246 41.5802 69.8686C41.2652 68.1509 40.2725 64.6003 37.4673 64.6003C33.7642 64.6003 33.4492 68.5981 32.653 68.466C31.8568 68.3339 30.9319 66.6772 31.0742 66.03Z" fill="#F4AA3E"/>
<path d="M39.1735 70.7801H34.9487C34.7617 70.7806 34.5775 70.734 34.4132 70.6447C34.2489 70.5553 34.1098 70.4261 34.0084 70.2688C33.9072 70.1116 33.8472 69.9314 33.8339 69.7448C33.8206 69.5583 33.8544 69.3714 33.9323 69.2013C34.5658 67.8224 35.7177 66.0506 37.449 66.1521C39.248 66.2538 39.9696 68.1172 40.2542 69.4487C40.2873 69.6094 40.2844 69.7754 40.2455 69.9349C40.2065 70.0942 40.1327 70.2431 40.0293 70.3705C39.9259 70.4979 39.7955 70.6007 39.6474 70.6715C39.4995 70.7424 39.3376 70.7794 39.1735 70.7801Z" fill="#F4AA3E"/>
<path d="M57.0251 57.9459C57.0253 57.797 56.9881 57.6504 56.917 57.5197C56.8458 57.3889 56.7431 57.278 56.6181 57.1971C56.4931 57.1162 56.3498 57.0679 56.2013 57.0567C56.0528 57.0455 55.9039 57.0717 55.7682 57.1328C53.7185 58.0645 49.8867 60.1819 49.8867 63.1464C49.8867 66.3819 52.0313 69.0618 53.0274 70.129C53.1739 70.2871 53.3516 70.4133 53.5493 70.4996C53.7469 70.5859 53.9603 70.6304 54.1759 70.6304H56.1342C56.3707 70.6295 56.5974 70.5349 56.7643 70.3672C56.9314 70.1996 57.0251 69.9726 57.0251 69.736V57.9459Z" fill="#F4AA3E"/>
<path d="M54.6318 64.9219C55.2773 64.9219 55.8006 64.3986 55.8006 63.7531C55.8006 63.1075 55.2773 62.5842 54.6318 62.5842C53.9862 62.5842 53.4629 63.1075 53.4629 63.7531C53.4629 64.3986 53.9862 64.9219 54.6318 64.9219Z" fill="#4E2800"/>
<path d="M51.034 46.3564L50.1395 56.3474C50.1279 56.4802 50.1523 56.6135 50.2099 56.7336C50.2677 56.8537 50.3567 56.9561 50.4676 57.0299C50.5785 57.1037 50.7072 57.1463 50.8403 57.1532C50.9733 57.1601 51.1058 57.1311 51.2237 57.0691L55.8991 54.6264C56.2439 54.4447 56.5326 54.1723 56.7339 53.8385C56.9351 53.5048 57.0413 53.1222 57.0408 52.7325V52.1193C57.0412 51.6026 56.8546 51.1032 56.5157 50.7133L52.3282 45.9362C52.2332 45.8265 52.1078 45.7472 51.968 45.7082C51.8281 45.6693 51.6799 45.6724 51.5418 45.7172C51.4037 45.762 51.2819 45.8466 51.1915 45.9603C51.1012 46.074 51.0464 46.2117 51.034 46.3564Z" fill="#F4AA3E"/>
<path d="M53.5214 53.8131C54.167 53.8131 54.6903 53.2898 54.6903 52.6442C54.6903 51.9986 54.167 51.4753 53.5214 51.4753C52.8759 51.4753 52.3525 51.9986 52.3525 52.6442C52.3525 53.2898 52.8759 53.8131 53.5214 53.8131Z" fill="#4E2800"/>
<path d="M57.0239 34.7555V47.2266C57.0232 47.3768 56.9768 47.5234 56.8909 47.6467C56.8051 47.77 56.6838 47.8644 56.5431 47.9172C56.4025 47.9702 56.249 47.9791 56.1032 47.9428C55.9573 47.9067 55.826 47.827 55.7263 47.7145L51.9014 43.3575C51.4407 42.8328 51.1866 42.1585 51.1865 41.4603V40.4066C51.185 39.8011 51.4042 39.2157 51.8031 38.7601L55.7263 34.2609C55.8255 34.146 55.9576 34.0645 56.1047 34.0273C56.2518 33.9902 56.4068 33.9993 56.5486 34.0534C56.6903 34.1074 56.812 34.2037 56.897 34.3294C56.9821 34.4551 57.0265 34.6038 57.0239 34.7555Z" fill="#F4AA3E"/>
<path d="M54.6873 42.2091C55.3329 42.2091 55.8562 41.6858 55.8562 41.0402C55.8562 40.3946 55.3329 39.8713 54.6873 39.8713C54.0419 39.8713 53.5186 40.3946 53.5186 41.0402C53.5186 41.6858 54.0419 42.2091 54.6873 42.2091Z" fill="#4E2800"/>
<path d="M51.1857 22.1357V34.8913C51.1854 35.0416 51.231 35.1885 51.3164 35.3121C51.4019 35.4359 51.5231 35.5307 51.6638 35.5837C51.8044 35.6367 51.9579 35.6455 52.1037 35.609C52.2496 35.5724 52.3809 35.4922 52.4799 35.3791L56.0237 31.3678C56.6678 30.6356 57.0231 29.6937 57.0231 28.7184V28.2068C57.0211 27.5247 56.7815 26.8646 56.3455 26.3401L52.5104 21.6613C52.4141 21.5391 52.2819 21.4503 52.1325 21.4073C51.983 21.3643 51.8238 21.3694 51.6774 21.4219C51.5309 21.4743 51.4047 21.5714 51.3164 21.6995C51.2282 21.8275 51.1825 21.9801 51.1857 22.1357Z" fill="#F4AA3E"/>
<path d="M53.5751 29.762C54.2206 29.762 54.7439 29.2387 54.7439 28.5932C54.7439 27.9477 54.2206 27.4243 53.5751 27.4243C52.9295 27.4243 52.4062 27.9477 52.4062 28.5932C52.4062 29.2387 52.9295 29.762 53.5751 29.762Z" fill="#4E2800"/>
<path d="M29.7926 43.1684C30.9677 43.1684 31.9203 42.2157 31.9203 41.0407C31.9203 39.8656 30.9677 38.9131 29.7926 38.9131C28.6176 38.9131 27.665 39.8656 27.665 41.0407C27.665 42.2157 28.6176 43.1684 29.7926 43.1684Z" fill="#F4AA3E"/>
<path d="M29.6689 49.5339C30.5894 49.5339 31.3357 48.7877 31.3357 47.8671C31.3357 46.9465 30.5894 46.2002 29.6689 46.2002C28.7483 46.2002 28.002 46.9465 28.002 47.8671C28.002 48.7877 28.7483 49.5339 29.6689 49.5339Z" fill="#F4AA3E"/>
<path d="M33.3728 39.167C34.0894 39.167 34.6704 38.586 34.6704 37.8694C34.6704 37.1527 34.0894 36.5718 33.3728 36.5718C32.6561 36.5718 32.0752 37.1527 32.0752 37.8694C32.0752 38.586 32.6561 39.167 33.3728 39.167Z" fill="#F4AA3E"/>
<path d="M25.9665 39.167C26.6832 39.167 27.2641 38.586 27.2641 37.8694C27.2641 37.1527 26.6832 36.5718 25.9665 36.5718C25.2499 36.5718 24.6689 37.1527 24.6689 37.8694C24.6689 38.586 25.2499 39.167 25.9665 39.167Z" fill="#F4AA3E"/>
<path d="M29.6689 36.9411C30.5894 36.9411 31.3357 36.1948 31.3357 35.2743C31.3357 34.3537 30.5894 33.6074 29.6689 33.6074C28.7483 33.6074 28.002 34.3537 28.002 35.2743C28.002 36.1948 28.7483 36.9411 29.6689 36.9411Z" fill="#F4AA3E"/>
<path d="M33.3738 46.7524C34.5488 46.7524 35.5014 45.7998 35.5014 44.6248C35.5014 43.4497 34.5488 42.4971 33.3738 42.4971C32.1987 42.4971 31.2461 43.4497 31.2461 44.6248C31.2461 45.7998 32.1987 46.7524 33.3738 46.7524Z" fill="#F4AA3E"/>
<path d="M26.3356 46.7524C27.5107 46.7524 28.4633 45.7998 28.4633 44.6248C28.4633 43.4497 27.5107 42.4971 26.3356 42.4971C25.1605 42.4971 24.208 43.4497 24.208 44.6248C24.208 45.7998 25.1605 46.7524 26.3356 46.7524Z" fill="#F4AA3E"/>
</g>
<defs>
<filter id="filter0_d" x="-7.98438" y="-7.24658" width="87.0692" height="87.0692" filterUnits="userSpaceOnUse" color-interpolation-filters="sRGB">
<feFlood flood-opacity="0" result="BackgroundImageFix"/>
<feColorMatrix in="SourceAlpha" type="matrix" values="0 0 0 0 0 0 0 0 0 0 0 0 0 0 0 0 0 0 127 0"/>
<feOffset dx="1" dy="1"/>
<feGaussianBlur stdDeviation="1"/>
<feColorMatrix type="matrix" values="0 0 0 0 0 0 0 0 0 0 0 0 0 0 0 0 0 0 0.4 0"/>
<feBlend mode="normal" in2="BackgroundImageFix" result="effect1_dropShadow"/>
<feBlend mode="normal" in="SourceGraphic" in2="effect1_dropShadow" result="shape"/>
</filter>
<linearGradient id="paint0_linear" x1="38.851" y1="0.620665" x2="30.2493" y2="69.9553" gradientUnits="userSpaceOnUse">
<stop stop-color="#693906"/>
<stop offset="1" stop-color="#4E2800"/>
</linearGradient>
</defs>
</svg>
